M48
;DRILL file {KiCad 5.0.0} date Wed Oct  3 23:40:43 2018
;FORMAT={-:-/ absolute / inch / decimal}
FMAT,2
INCH,TZ
T1C0.0157
T2C0.0315
T3C0.0354
T4C0.0394
%
G90
G05
M72
T1
X4.175Y-4.05
X4.175Y-4.3
X4.425Y-3.925
X4.45Y-4.175
X4.475Y-4.475
X4.525Y-3.95
X4.525Y-4.275
X4.525Y-4.325
T2
X4.6Y-3.95
X4.6Y-4.05
X4.6Y-4.275
X4.6Y-4.475
T3
X4.225Y-4.75
X4.275Y-4.65
X4.325Y-4.75
X4.375Y-4.65
X4.425Y-4.75
X4.475Y-4.65
X4.525Y-4.75
X4.575Y-4.65
X4.25Y-4.375
X4.25Y-4.475
T4
X4.1728Y-3.925
X4.1728Y-4.1809
X4.35Y-3.925
X4.35Y-4.1809
T0
M30
