G04 #@! TF.GenerationSoftware,KiCad,Pcbnew,5.0.0*
G04 #@! TF.CreationDate,2018-10-03T23:40:34+00:00*
G04 #@! TF.ProjectId,jeopardy-hw,6A656F70617264792D68772E6B696361,rev?*
G04 #@! TF.SameCoordinates,Original*
G04 #@! TF.FileFunction,Copper,L2,Bot,Signal*
G04 #@! TF.FilePolarity,Positive*
%FSLAX46Y46*%
G04 Gerber Fmt 4.6, Leading zero omitted, Abs format (unit mm)*
G04 Created by KiCad (PCBNEW 5.0.0) date Wed Oct  3 23:40:34 2018*
%MOMM*%
%LPD*%
G01*
G04 APERTURE LIST*
G04 #@! TA.AperFunction,ComponentPad*
%ADD10O,1.600000X1.600000*%
G04 #@! TD*
G04 #@! TA.AperFunction,ComponentPad*
%ADD11C,1.600000*%
G04 #@! TD*
G04 #@! TA.AperFunction,ComponentPad*
%ADD12C,1.500000*%
G04 #@! TD*
G04 #@! TA.AperFunction,ComponentPad*
%ADD13R,1.500000X1.500000*%
G04 #@! TD*
G04 #@! TA.AperFunction,WasherPad*
%ADD14C,3.650000*%
G04 #@! TD*
G04 #@! TA.AperFunction,ComponentPad*
%ADD15C,1.800000*%
G04 #@! TD*
G04 #@! TA.AperFunction,ComponentPad*
%ADD16R,1.800000X1.800000*%
G04 #@! TD*
G04 #@! TA.AperFunction,ComponentPad*
%ADD17C,1.700000*%
G04 #@! TD*
G04 #@! TA.AperFunction,ViaPad*
%ADD18C,0.800000*%
G04 #@! TD*
G04 #@! TA.AperFunction,Conductor*
%ADD19C,0.500000*%
G04 #@! TD*
G04 #@! TA.AperFunction,Conductor*
%ADD20C,0.254000*%
G04 #@! TD*
G04 APERTURE END LIST*
D10*
G04 #@! TO.P,R_BTN_LED_P1,2*
G04 #@! TO.N,GND*
X116840000Y-100330000D03*
D11*
G04 #@! TO.P,R_BTN_LED_P1,1*
G04 #@! TO.N,Net-(R_BTN_LED_P1-Pad1)*
X116840000Y-102870000D03*
G04 #@! TD*
D12*
G04 #@! TO.P,J_P1,8*
G04 #@! TO.N,Net-(J_P1-Pad8)*
X116205000Y-118110000D03*
G04 #@! TO.P,J_P1,7*
G04 #@! TO.N,Net-(J_P1-Pad7)*
X114935000Y-120650000D03*
G04 #@! TO.P,J_P1,6*
G04 #@! TO.N,Net-(J_P1-Pad6)*
X113665000Y-118110000D03*
G04 #@! TO.P,J_P1,5*
G04 #@! TO.N,+12V*
X112395000Y-120650000D03*
G04 #@! TO.P,J_P1,4*
G04 #@! TO.N,+3V3*
X111125000Y-118110000D03*
G04 #@! TO.P,J_P1,3*
G04 #@! TO.N,Net-(J_P1-Pad3)*
X109855000Y-120650000D03*
G04 #@! TO.P,J_P1,2*
G04 #@! TO.N,Net-(J_P1-Pad2)*
X108585000Y-118110000D03*
D13*
G04 #@! TO.P,J_P1,1*
G04 #@! TO.N,GND*
X107315000Y-120650000D03*
D14*
G04 #@! TO.P,J_P1,Hole*
G04 #@! TO.N,*
X105825000Y-127000000D03*
X117695000Y-127000000D03*
G04 #@! TD*
D11*
G04 #@! TO.P,R_BTN_P1,1*
G04 #@! TO.N,GND*
X116840000Y-108585000D03*
D10*
G04 #@! TO.P,R_BTN_P1,2*
G04 #@! TO.N,Net-(J_P1-Pad6)*
X116840000Y-113665000D03*
G04 #@! TD*
D15*
G04 #@! TO.P,LED_P1,2*
G04 #@! TO.N,+12V*
X107950000Y-113665000D03*
D16*
G04 #@! TO.P,LED_P1,1*
G04 #@! TO.N,Net-(J_P1-Pad8)*
X107950000Y-111125000D03*
G04 #@! TD*
D17*
G04 #@! TO.P,SW_P1,4*
G04 #@! TO.N,Net-(J_P1-Pad7)*
X105990000Y-106195000D03*
G04 #@! TO.P,SW_P1,3*
G04 #@! TO.N,Net-(R_BTN_LED_P1-Pad1)*
X105990000Y-99695000D03*
G04 #@! TO.P,SW_P1,2*
G04 #@! TO.N,Net-(J_P1-Pad6)*
X110490000Y-106195000D03*
G04 #@! TO.P,SW_P1,1*
G04 #@! TO.N,+3V3*
X110490000Y-99695000D03*
G04 #@! TD*
D18*
G04 #@! TO.N,GND*
X114935000Y-108585000D03*
X114935000Y-100330000D03*
G04 #@! TO.N,+3V3*
X112395000Y-99695000D03*
G04 #@! TO.N,Net-(J_P1-Pad7)*
X114935000Y-109855000D03*
X106045000Y-109220000D03*
G04 #@! TO.N,Net-(J_P1-Pad6)*
X113030000Y-106045000D03*
X113665000Y-113665000D03*
G04 #@! TO.N,Net-(R_BTN_LED_P1-Pad1)*
X106045000Y-102870000D03*
G04 #@! TD*
D19*
G04 #@! TO.N,GND*
X114935000Y-108585000D02*
X114935000Y-100330000D01*
G04 #@! TO.N,+3V3*
X111995001Y-117239999D02*
X111874999Y-117360001D01*
X112395000Y-99695000D02*
X111995001Y-100094999D01*
X111874999Y-117360001D02*
X111125000Y-118110000D01*
X111995001Y-100094999D02*
X111995001Y-117239999D01*
G04 #@! TO.N,+12V*
X112395000Y-120650000D02*
X111645001Y-119900001D01*
X111064999Y-119900001D02*
X109835001Y-118670003D01*
X109835001Y-118670003D02*
X109835001Y-115550001D01*
X111645001Y-119900001D02*
X111064999Y-119900001D01*
X109835001Y-115550001D02*
X108849999Y-114564999D01*
X108849999Y-114564999D02*
X107950000Y-113665000D01*
G04 #@! TO.N,Net-(J_P1-Pad7)*
X114935000Y-109855000D02*
X114935000Y-120650000D01*
X105990000Y-106195000D02*
X105990000Y-109165000D01*
X105990000Y-109165000D02*
X106045000Y-109220000D01*
G04 #@! TO.N,Net-(J_P1-Pad6)*
X113665000Y-106680000D02*
X113665000Y-113665000D01*
X113030000Y-106045000D02*
X113665000Y-106680000D01*
X113665000Y-113665000D02*
X113665000Y-118110000D01*
G04 #@! TO.N,Net-(R_BTN_LED_P1-Pad1)*
X106045000Y-99750000D02*
X105990000Y-99695000D01*
X106045000Y-102870000D02*
X106045000Y-99750000D01*
G04 #@! TD*
D20*
G04 #@! TO.N,GND*
G36*
X120194000Y-134672000D02*
X103834000Y-134672000D01*
X103834000Y-128487965D01*
X104431522Y-129085487D01*
X105335676Y-129460000D01*
X106314324Y-129460000D01*
X107218478Y-129085487D01*
X107910487Y-128393478D01*
X108285000Y-127489324D01*
X108285000Y-126510676D01*
X115235000Y-126510676D01*
X115235000Y-127489324D01*
X115609513Y-128393478D01*
X116301522Y-129085487D01*
X117205676Y-129460000D01*
X118184324Y-129460000D01*
X119088478Y-129085487D01*
X119780487Y-128393478D01*
X120155000Y-127489324D01*
X120155000Y-126510676D01*
X119780487Y-125606522D01*
X119088478Y-124914513D01*
X118184324Y-124540000D01*
X117205676Y-124540000D01*
X116301522Y-124914513D01*
X115609513Y-125606522D01*
X115235000Y-126510676D01*
X108285000Y-126510676D01*
X107910487Y-125606522D01*
X107218478Y-124914513D01*
X106314324Y-124540000D01*
X105335676Y-124540000D01*
X104431522Y-124914513D01*
X103834000Y-125512035D01*
X103834000Y-120935750D01*
X105930000Y-120935750D01*
X105930000Y-121526310D01*
X106026673Y-121759699D01*
X106205302Y-121938327D01*
X106438691Y-122035000D01*
X107029250Y-122035000D01*
X107188000Y-121876250D01*
X107188000Y-120777000D01*
X106088750Y-120777000D01*
X105930000Y-120935750D01*
X103834000Y-120935750D01*
X103834000Y-119773690D01*
X105930000Y-119773690D01*
X105930000Y-120364250D01*
X106088750Y-120523000D01*
X107188000Y-120523000D01*
X107188000Y-119423750D01*
X107029250Y-119265000D01*
X106438691Y-119265000D01*
X106205302Y-119361673D01*
X106026673Y-119540301D01*
X105930000Y-119773690D01*
X103834000Y-119773690D01*
X103834000Y-105899615D01*
X104505000Y-105899615D01*
X104505000Y-106490385D01*
X104731078Y-107036185D01*
X105105000Y-107410107D01*
X105105001Y-108784773D01*
X105010000Y-109014126D01*
X105010000Y-109425874D01*
X105167569Y-109806280D01*
X105458720Y-110097431D01*
X105839126Y-110255000D01*
X106250874Y-110255000D01*
X106409677Y-110189222D01*
X106402560Y-110225000D01*
X106402560Y-112025000D01*
X106451843Y-112272765D01*
X106592191Y-112482809D01*
X106802235Y-112623157D01*
X106817908Y-112626275D01*
X106648690Y-112795493D01*
X106415000Y-113359670D01*
X106415000Y-113970330D01*
X106648690Y-114534507D01*
X107080493Y-114966310D01*
X107644670Y-115200000D01*
X108233421Y-115200000D01*
X108285844Y-115252423D01*
X108285847Y-115252425D01*
X108950002Y-115916581D01*
X108950002Y-116762075D01*
X108860494Y-116725000D01*
X108309506Y-116725000D01*
X107800460Y-116935853D01*
X107410853Y-117325460D01*
X107200000Y-117834506D01*
X107200000Y-118385494D01*
X107410853Y-118894540D01*
X107781313Y-119265000D01*
X107600750Y-119265000D01*
X107442000Y-119423750D01*
X107442000Y-120523000D01*
X107462000Y-120523000D01*
X107462000Y-120777000D01*
X107442000Y-120777000D01*
X107442000Y-121876250D01*
X107600750Y-122035000D01*
X108191309Y-122035000D01*
X108424698Y-121938327D01*
X108603327Y-121759699D01*
X108700000Y-121526310D01*
X108700000Y-121453687D01*
X109070460Y-121824147D01*
X109579506Y-122035000D01*
X110130494Y-122035000D01*
X110639540Y-121824147D01*
X111029147Y-121434540D01*
X111125000Y-121203130D01*
X111220853Y-121434540D01*
X111610460Y-121824147D01*
X112119506Y-122035000D01*
X112670494Y-122035000D01*
X113179540Y-121824147D01*
X113569147Y-121434540D01*
X113665000Y-121203130D01*
X113760853Y-121434540D01*
X114150460Y-121824147D01*
X114659506Y-122035000D01*
X115210494Y-122035000D01*
X115719540Y-121824147D01*
X116109147Y-121434540D01*
X116320000Y-120925494D01*
X116320000Y-120374506D01*
X116109147Y-119865460D01*
X115820000Y-119576313D01*
X115820000Y-119449641D01*
X115929506Y-119495000D01*
X116480494Y-119495000D01*
X116989540Y-119284147D01*
X117379147Y-118894540D01*
X117590000Y-118385494D01*
X117590000Y-117834506D01*
X117379147Y-117325460D01*
X116989540Y-116935853D01*
X116480494Y-116725000D01*
X115929506Y-116725000D01*
X115820000Y-116770359D01*
X115820000Y-114709317D01*
X116280091Y-115016740D01*
X116698667Y-115100000D01*
X116981333Y-115100000D01*
X117399909Y-115016740D01*
X117874577Y-114699577D01*
X118191740Y-114224909D01*
X118303113Y-113665000D01*
X118191740Y-113105091D01*
X117874577Y-112630423D01*
X117399909Y-112313260D01*
X116981333Y-112230000D01*
X116698667Y-112230000D01*
X116280091Y-112313260D01*
X115820000Y-112620683D01*
X115820000Y-110423007D01*
X115970000Y-110060874D01*
X115970000Y-109649126D01*
X115965748Y-109638860D01*
X116011861Y-109592747D01*
X116085995Y-109838864D01*
X116623223Y-110031965D01*
X117193454Y-110004778D01*
X117594005Y-109838864D01*
X117668139Y-109592745D01*
X116840000Y-108764605D01*
X116825858Y-108778748D01*
X116646252Y-108599142D01*
X116660395Y-108585000D01*
X117019605Y-108585000D01*
X117847745Y-109413139D01*
X118093864Y-109339005D01*
X118286965Y-108801777D01*
X118259778Y-108231546D01*
X118093864Y-107830995D01*
X117847745Y-107756861D01*
X117019605Y-108585000D01*
X116660395Y-108585000D01*
X115832255Y-107756861D01*
X115586136Y-107830995D01*
X115393035Y-108368223D01*
X115420089Y-108935654D01*
X115140874Y-108820000D01*
X114729126Y-108820000D01*
X114550000Y-108894196D01*
X114550000Y-107577255D01*
X116011861Y-107577255D01*
X116840000Y-108405395D01*
X117668139Y-107577255D01*
X117594005Y-107331136D01*
X117056777Y-107138035D01*
X116486546Y-107165222D01*
X116085995Y-107331136D01*
X116011861Y-107577255D01*
X114550000Y-107577255D01*
X114550000Y-106767161D01*
X114567337Y-106680000D01*
X114550000Y-106592839D01*
X114550000Y-106592835D01*
X114498652Y-106334690D01*
X114303049Y-106041951D01*
X114229156Y-105992577D01*
X114057431Y-105820852D01*
X113907431Y-105458720D01*
X113616280Y-105167569D01*
X113235874Y-105010000D01*
X112880001Y-105010000D01*
X112880001Y-102584561D01*
X115405000Y-102584561D01*
X115405000Y-103155439D01*
X115623466Y-103682862D01*
X116027138Y-104086534D01*
X116554561Y-104305000D01*
X117125439Y-104305000D01*
X117652862Y-104086534D01*
X118056534Y-103682862D01*
X118275000Y-103155439D01*
X118275000Y-102584561D01*
X118056534Y-102057138D01*
X117652862Y-101653466D01*
X117503573Y-101591628D01*
X117577423Y-101561041D01*
X117992389Y-101185134D01*
X118231914Y-100679041D01*
X118110629Y-100457000D01*
X116967000Y-100457000D01*
X116967000Y-100477000D01*
X116713000Y-100477000D01*
X116713000Y-100457000D01*
X115569371Y-100457000D01*
X115448086Y-100679041D01*
X115687611Y-101185134D01*
X116102577Y-101561041D01*
X116176427Y-101591628D01*
X116027138Y-101653466D01*
X115623466Y-102057138D01*
X115405000Y-102584561D01*
X112880001Y-102584561D01*
X112880001Y-100614382D01*
X112981280Y-100572431D01*
X113272431Y-100281280D01*
X113396827Y-99980959D01*
X115448086Y-99980959D01*
X115569371Y-100203000D01*
X116713000Y-100203000D01*
X116713000Y-99060085D01*
X116967000Y-99060085D01*
X116967000Y-100203000D01*
X118110629Y-100203000D01*
X118231914Y-99980959D01*
X117992389Y-99474866D01*
X117577423Y-99098959D01*
X117189039Y-98938096D01*
X116967000Y-99060085D01*
X116713000Y-99060085D01*
X116490961Y-98938096D01*
X116102577Y-99098959D01*
X115687611Y-99474866D01*
X115448086Y-99980959D01*
X113396827Y-99980959D01*
X113430000Y-99900874D01*
X113430000Y-99489126D01*
X113272431Y-99108720D01*
X112981280Y-98817569D01*
X112600874Y-98660000D01*
X112189126Y-98660000D01*
X111808720Y-98817569D01*
X111755820Y-98870469D01*
X111748922Y-98853815D01*
X111331185Y-98436078D01*
X110785385Y-98210000D01*
X110194615Y-98210000D01*
X109648815Y-98436078D01*
X109231078Y-98853815D01*
X109005000Y-99399615D01*
X109005000Y-99990385D01*
X109231078Y-100536185D01*
X109648815Y-100953922D01*
X110194615Y-101180000D01*
X110785385Y-101180000D01*
X111110001Y-101045539D01*
X111110001Y-104844461D01*
X110785385Y-104710000D01*
X110194615Y-104710000D01*
X109648815Y-104936078D01*
X109231078Y-105353815D01*
X109005000Y-105899615D01*
X109005000Y-106490385D01*
X109231078Y-107036185D01*
X109648815Y-107453922D01*
X110194615Y-107680000D01*
X110785385Y-107680000D01*
X111110001Y-107545539D01*
X111110002Y-116725000D01*
X110849506Y-116725000D01*
X110720001Y-116778643D01*
X110720001Y-115637160D01*
X110737338Y-115550000D01*
X110720001Y-115462840D01*
X110720001Y-115462836D01*
X110668653Y-115204691D01*
X110596616Y-115096881D01*
X110522425Y-114985846D01*
X110522424Y-114985845D01*
X110473050Y-114911952D01*
X110399157Y-114862578D01*
X109537425Y-114000847D01*
X109537423Y-114000844D01*
X109485000Y-113948421D01*
X109485000Y-113359670D01*
X109251310Y-112795493D01*
X109082092Y-112626275D01*
X109097765Y-112623157D01*
X109307809Y-112482809D01*
X109448157Y-112272765D01*
X109497440Y-112025000D01*
X109497440Y-110225000D01*
X109448157Y-109977235D01*
X109307809Y-109767191D01*
X109097765Y-109626843D01*
X108850000Y-109577560D01*
X107050000Y-109577560D01*
X107014222Y-109584677D01*
X107080000Y-109425874D01*
X107080000Y-109014126D01*
X106922431Y-108633720D01*
X106875000Y-108586289D01*
X106875000Y-107410107D01*
X107248922Y-107036185D01*
X107475000Y-106490385D01*
X107475000Y-105899615D01*
X107248922Y-105353815D01*
X106831185Y-104936078D01*
X106285385Y-104710000D01*
X105694615Y-104710000D01*
X105148815Y-104936078D01*
X104731078Y-105353815D01*
X104505000Y-105899615D01*
X103834000Y-105899615D01*
X103834000Y-99399615D01*
X104505000Y-99399615D01*
X104505000Y-99990385D01*
X104731078Y-100536185D01*
X105148815Y-100953922D01*
X105160001Y-100958555D01*
X105160000Y-102301993D01*
X105010000Y-102664126D01*
X105010000Y-103075874D01*
X105167569Y-103456280D01*
X105458720Y-103747431D01*
X105839126Y-103905000D01*
X106250874Y-103905000D01*
X106631280Y-103747431D01*
X106922431Y-103456280D01*
X107080000Y-103075874D01*
X107080000Y-102664126D01*
X106930000Y-102301993D01*
X106930000Y-100855107D01*
X107248922Y-100536185D01*
X107475000Y-99990385D01*
X107475000Y-99399615D01*
X107248922Y-98853815D01*
X106831185Y-98436078D01*
X106285385Y-98210000D01*
X105694615Y-98210000D01*
X105148815Y-98436078D01*
X104731078Y-98853815D01*
X104505000Y-99399615D01*
X103834000Y-99399615D01*
X103834000Y-97992000D01*
X120194001Y-97992000D01*
X120194000Y-134672000D01*
X120194000Y-134672000D01*
G37*
X120194000Y-134672000D02*
X103834000Y-134672000D01*
X103834000Y-128487965D01*
X104431522Y-129085487D01*
X105335676Y-129460000D01*
X106314324Y-129460000D01*
X107218478Y-129085487D01*
X107910487Y-128393478D01*
X108285000Y-127489324D01*
X108285000Y-126510676D01*
X115235000Y-126510676D01*
X115235000Y-127489324D01*
X115609513Y-128393478D01*
X116301522Y-129085487D01*
X117205676Y-129460000D01*
X118184324Y-129460000D01*
X119088478Y-129085487D01*
X119780487Y-128393478D01*
X120155000Y-127489324D01*
X120155000Y-126510676D01*
X119780487Y-125606522D01*
X119088478Y-124914513D01*
X118184324Y-124540000D01*
X117205676Y-124540000D01*
X116301522Y-124914513D01*
X115609513Y-125606522D01*
X115235000Y-126510676D01*
X108285000Y-126510676D01*
X107910487Y-125606522D01*
X107218478Y-124914513D01*
X106314324Y-124540000D01*
X105335676Y-124540000D01*
X104431522Y-124914513D01*
X103834000Y-125512035D01*
X103834000Y-120935750D01*
X105930000Y-120935750D01*
X105930000Y-121526310D01*
X106026673Y-121759699D01*
X106205302Y-121938327D01*
X106438691Y-122035000D01*
X107029250Y-122035000D01*
X107188000Y-121876250D01*
X107188000Y-120777000D01*
X106088750Y-120777000D01*
X105930000Y-120935750D01*
X103834000Y-120935750D01*
X103834000Y-119773690D01*
X105930000Y-119773690D01*
X105930000Y-120364250D01*
X106088750Y-120523000D01*
X107188000Y-120523000D01*
X107188000Y-119423750D01*
X107029250Y-119265000D01*
X106438691Y-119265000D01*
X106205302Y-119361673D01*
X106026673Y-119540301D01*
X105930000Y-119773690D01*
X103834000Y-119773690D01*
X103834000Y-105899615D01*
X104505000Y-105899615D01*
X104505000Y-106490385D01*
X104731078Y-107036185D01*
X105105000Y-107410107D01*
X105105001Y-108784773D01*
X105010000Y-109014126D01*
X105010000Y-109425874D01*
X105167569Y-109806280D01*
X105458720Y-110097431D01*
X105839126Y-110255000D01*
X106250874Y-110255000D01*
X106409677Y-110189222D01*
X106402560Y-110225000D01*
X106402560Y-112025000D01*
X106451843Y-112272765D01*
X106592191Y-112482809D01*
X106802235Y-112623157D01*
X106817908Y-112626275D01*
X106648690Y-112795493D01*
X106415000Y-113359670D01*
X106415000Y-113970330D01*
X106648690Y-114534507D01*
X107080493Y-114966310D01*
X107644670Y-115200000D01*
X108233421Y-115200000D01*
X108285844Y-115252423D01*
X108285847Y-115252425D01*
X108950002Y-115916581D01*
X108950002Y-116762075D01*
X108860494Y-116725000D01*
X108309506Y-116725000D01*
X107800460Y-116935853D01*
X107410853Y-117325460D01*
X107200000Y-117834506D01*
X107200000Y-118385494D01*
X107410853Y-118894540D01*
X107781313Y-119265000D01*
X107600750Y-119265000D01*
X107442000Y-119423750D01*
X107442000Y-120523000D01*
X107462000Y-120523000D01*
X107462000Y-120777000D01*
X107442000Y-120777000D01*
X107442000Y-121876250D01*
X107600750Y-122035000D01*
X108191309Y-122035000D01*
X108424698Y-121938327D01*
X108603327Y-121759699D01*
X108700000Y-121526310D01*
X108700000Y-121453687D01*
X109070460Y-121824147D01*
X109579506Y-122035000D01*
X110130494Y-122035000D01*
X110639540Y-121824147D01*
X111029147Y-121434540D01*
X111125000Y-121203130D01*
X111220853Y-121434540D01*
X111610460Y-121824147D01*
X112119506Y-122035000D01*
X112670494Y-122035000D01*
X113179540Y-121824147D01*
X113569147Y-121434540D01*
X113665000Y-121203130D01*
X113760853Y-121434540D01*
X114150460Y-121824147D01*
X114659506Y-122035000D01*
X115210494Y-122035000D01*
X115719540Y-121824147D01*
X116109147Y-121434540D01*
X116320000Y-120925494D01*
X116320000Y-120374506D01*
X116109147Y-119865460D01*
X115820000Y-119576313D01*
X115820000Y-119449641D01*
X115929506Y-119495000D01*
X116480494Y-119495000D01*
X116989540Y-119284147D01*
X117379147Y-118894540D01*
X117590000Y-118385494D01*
X117590000Y-117834506D01*
X117379147Y-117325460D01*
X116989540Y-116935853D01*
X116480494Y-116725000D01*
X115929506Y-116725000D01*
X115820000Y-116770359D01*
X115820000Y-114709317D01*
X116280091Y-115016740D01*
X116698667Y-115100000D01*
X116981333Y-115100000D01*
X117399909Y-115016740D01*
X117874577Y-114699577D01*
X118191740Y-114224909D01*
X118303113Y-113665000D01*
X118191740Y-113105091D01*
X117874577Y-112630423D01*
X117399909Y-112313260D01*
X116981333Y-112230000D01*
X116698667Y-112230000D01*
X116280091Y-112313260D01*
X115820000Y-112620683D01*
X115820000Y-110423007D01*
X115970000Y-110060874D01*
X115970000Y-109649126D01*
X115965748Y-109638860D01*
X116011861Y-109592747D01*
X116085995Y-109838864D01*
X116623223Y-110031965D01*
X117193454Y-110004778D01*
X117594005Y-109838864D01*
X117668139Y-109592745D01*
X116840000Y-108764605D01*
X116825858Y-108778748D01*
X116646252Y-108599142D01*
X116660395Y-108585000D01*
X117019605Y-108585000D01*
X117847745Y-109413139D01*
X118093864Y-109339005D01*
X118286965Y-108801777D01*
X118259778Y-108231546D01*
X118093864Y-107830995D01*
X117847745Y-107756861D01*
X117019605Y-108585000D01*
X116660395Y-108585000D01*
X115832255Y-107756861D01*
X115586136Y-107830995D01*
X115393035Y-108368223D01*
X115420089Y-108935654D01*
X115140874Y-108820000D01*
X114729126Y-108820000D01*
X114550000Y-108894196D01*
X114550000Y-107577255D01*
X116011861Y-107577255D01*
X116840000Y-108405395D01*
X117668139Y-107577255D01*
X117594005Y-107331136D01*
X117056777Y-107138035D01*
X116486546Y-107165222D01*
X116085995Y-107331136D01*
X116011861Y-107577255D01*
X114550000Y-107577255D01*
X114550000Y-106767161D01*
X114567337Y-106680000D01*
X114550000Y-106592839D01*
X114550000Y-106592835D01*
X114498652Y-106334690D01*
X114303049Y-106041951D01*
X114229156Y-105992577D01*
X114057431Y-105820852D01*
X113907431Y-105458720D01*
X113616280Y-105167569D01*
X113235874Y-105010000D01*
X112880001Y-105010000D01*
X112880001Y-102584561D01*
X115405000Y-102584561D01*
X115405000Y-103155439D01*
X115623466Y-103682862D01*
X116027138Y-104086534D01*
X116554561Y-104305000D01*
X117125439Y-104305000D01*
X117652862Y-104086534D01*
X118056534Y-103682862D01*
X118275000Y-103155439D01*
X118275000Y-102584561D01*
X118056534Y-102057138D01*
X117652862Y-101653466D01*
X117503573Y-101591628D01*
X117577423Y-101561041D01*
X117992389Y-101185134D01*
X118231914Y-100679041D01*
X118110629Y-100457000D01*
X116967000Y-100457000D01*
X116967000Y-100477000D01*
X116713000Y-100477000D01*
X116713000Y-100457000D01*
X115569371Y-100457000D01*
X115448086Y-100679041D01*
X115687611Y-101185134D01*
X116102577Y-101561041D01*
X116176427Y-101591628D01*
X116027138Y-101653466D01*
X115623466Y-102057138D01*
X115405000Y-102584561D01*
X112880001Y-102584561D01*
X112880001Y-100614382D01*
X112981280Y-100572431D01*
X113272431Y-100281280D01*
X113396827Y-99980959D01*
X115448086Y-99980959D01*
X115569371Y-100203000D01*
X116713000Y-100203000D01*
X116713000Y-99060085D01*
X116967000Y-99060085D01*
X116967000Y-100203000D01*
X118110629Y-100203000D01*
X118231914Y-99980959D01*
X117992389Y-99474866D01*
X117577423Y-99098959D01*
X117189039Y-98938096D01*
X116967000Y-99060085D01*
X116713000Y-99060085D01*
X116490961Y-98938096D01*
X116102577Y-99098959D01*
X115687611Y-99474866D01*
X115448086Y-99980959D01*
X113396827Y-99980959D01*
X113430000Y-99900874D01*
X113430000Y-99489126D01*
X113272431Y-99108720D01*
X112981280Y-98817569D01*
X112600874Y-98660000D01*
X112189126Y-98660000D01*
X111808720Y-98817569D01*
X111755820Y-98870469D01*
X111748922Y-98853815D01*
X111331185Y-98436078D01*
X110785385Y-98210000D01*
X110194615Y-98210000D01*
X109648815Y-98436078D01*
X109231078Y-98853815D01*
X109005000Y-99399615D01*
X109005000Y-99990385D01*
X109231078Y-100536185D01*
X109648815Y-100953922D01*
X110194615Y-101180000D01*
X110785385Y-101180000D01*
X111110001Y-101045539D01*
X111110001Y-104844461D01*
X110785385Y-104710000D01*
X110194615Y-104710000D01*
X109648815Y-104936078D01*
X109231078Y-105353815D01*
X109005000Y-105899615D01*
X109005000Y-106490385D01*
X109231078Y-107036185D01*
X109648815Y-107453922D01*
X110194615Y-107680000D01*
X110785385Y-107680000D01*
X111110001Y-107545539D01*
X111110002Y-116725000D01*
X110849506Y-116725000D01*
X110720001Y-116778643D01*
X110720001Y-115637160D01*
X110737338Y-115550000D01*
X110720001Y-115462840D01*
X110720001Y-115462836D01*
X110668653Y-115204691D01*
X110596616Y-115096881D01*
X110522425Y-114985846D01*
X110522424Y-114985845D01*
X110473050Y-114911952D01*
X110399157Y-114862578D01*
X109537425Y-114000847D01*
X109537423Y-114000844D01*
X109485000Y-113948421D01*
X109485000Y-113359670D01*
X109251310Y-112795493D01*
X109082092Y-112626275D01*
X109097765Y-112623157D01*
X109307809Y-112482809D01*
X109448157Y-112272765D01*
X109497440Y-112025000D01*
X109497440Y-110225000D01*
X109448157Y-109977235D01*
X109307809Y-109767191D01*
X109097765Y-109626843D01*
X108850000Y-109577560D01*
X107050000Y-109577560D01*
X107014222Y-109584677D01*
X107080000Y-109425874D01*
X107080000Y-109014126D01*
X106922431Y-108633720D01*
X106875000Y-108586289D01*
X106875000Y-107410107D01*
X107248922Y-107036185D01*
X107475000Y-106490385D01*
X107475000Y-105899615D01*
X107248922Y-105353815D01*
X106831185Y-104936078D01*
X106285385Y-104710000D01*
X105694615Y-104710000D01*
X105148815Y-104936078D01*
X104731078Y-105353815D01*
X104505000Y-105899615D01*
X103834000Y-105899615D01*
X103834000Y-99399615D01*
X104505000Y-99399615D01*
X104505000Y-99990385D01*
X104731078Y-100536185D01*
X105148815Y-100953922D01*
X105160001Y-100958555D01*
X105160000Y-102301993D01*
X105010000Y-102664126D01*
X105010000Y-103075874D01*
X105167569Y-103456280D01*
X105458720Y-103747431D01*
X105839126Y-103905000D01*
X106250874Y-103905000D01*
X106631280Y-103747431D01*
X106922431Y-103456280D01*
X107080000Y-103075874D01*
X107080000Y-102664126D01*
X106930000Y-102301993D01*
X106930000Y-100855107D01*
X107248922Y-100536185D01*
X107475000Y-99990385D01*
X107475000Y-99399615D01*
X107248922Y-98853815D01*
X106831185Y-98436078D01*
X106285385Y-98210000D01*
X105694615Y-98210000D01*
X105148815Y-98436078D01*
X104731078Y-98853815D01*
X104505000Y-99399615D01*
X103834000Y-99399615D01*
X103834000Y-97992000D01*
X120194001Y-97992000D01*
X120194000Y-134672000D01*
G04 #@! TD*
M02*
