G04 #@! TF.GenerationSoftware,KiCad,Pcbnew,5.0.1*
G04 #@! TF.CreationDate,2018-10-24T01:14:12+02:00*
G04 #@! TF.ProjectId,jeopardy-hw,6A656F70617264792D68772E6B696361,rev?*
G04 #@! TF.SameCoordinates,Original*
G04 #@! TF.FileFunction,Copper,L2,Bot,Signal*
G04 #@! TF.FilePolarity,Positive*
%FSLAX46Y46*%
G04 Gerber Fmt 4.6, Leading zero omitted, Abs format (unit mm)*
G04 Created by KiCad (PCBNEW 5.0.1) date Wed 24 Oct 2018 01:14:12 AM CEST*
%MOMM*%
%LPD*%
G01*
G04 APERTURE LIST*
G04 #@! TA.AperFunction,ComponentPad*
%ADD10C,1.500000*%
G04 #@! TD*
G04 #@! TA.AperFunction,ComponentPad*
%ADD11R,1.500000X1.500000*%
G04 #@! TD*
G04 #@! TA.AperFunction,WasherPad*
%ADD12C,3.650000*%
G04 #@! TD*
G04 #@! TA.AperFunction,ComponentPad*
%ADD13R,3.500000X3.500000*%
G04 #@! TD*
G04 #@! TA.AperFunction,ComponentPad*
%ADD14O,1.524000X2.540000*%
G04 #@! TD*
G04 #@! TA.AperFunction,ComponentPad*
%ADD15C,3.937000*%
G04 #@! TD*
G04 #@! TA.AperFunction,ComponentPad*
%ADD16O,1.600000X1.600000*%
G04 #@! TD*
G04 #@! TA.AperFunction,ComponentPad*
%ADD17R,1.600000X1.600000*%
G04 #@! TD*
G04 #@! TA.AperFunction,ComponentPad*
%ADD18O,1.700000X1.700000*%
G04 #@! TD*
G04 #@! TA.AperFunction,ComponentPad*
%ADD19R,1.700000X1.700000*%
G04 #@! TD*
G04 #@! TA.AperFunction,ViaPad*
%ADD20C,0.800000*%
G04 #@! TD*
G04 #@! TA.AperFunction,Conductor*
%ADD21C,0.500000*%
G04 #@! TD*
G04 #@! TA.AperFunction,Conductor*
%ADD22C,0.250000*%
G04 #@! TD*
G04 #@! TA.AperFunction,Conductor*
%ADD23C,0.254000*%
G04 #@! TD*
G04 APERTURE END LIST*
D10*
G04 #@! TO.P,PLAYER1,8*
G04 #@! TO.N,Net-(J_BRD_P1-Pad8)*
X169418000Y-140716000D03*
G04 #@! TO.P,PLAYER1,7*
G04 #@! TO.N,Net-(J_BRD_P1-Pad7)*
X171958000Y-141986000D03*
G04 #@! TO.P,PLAYER1,6*
G04 #@! TO.N,Net-(J_BRD_P1-Pad6)*
X169418000Y-143256000D03*
G04 #@! TO.P,PLAYER1,5*
G04 #@! TO.N,+12V*
X171958000Y-144526000D03*
G04 #@! TO.P,PLAYER1,4*
G04 #@! TO.N,+3V3*
X169418000Y-145796000D03*
G04 #@! TO.P,PLAYER1,3*
G04 #@! TO.N,N/C*
X171958000Y-147066000D03*
G04 #@! TO.P,PLAYER1,2*
X169418000Y-148336000D03*
D11*
G04 #@! TO.P,PLAYER1,1*
G04 #@! TO.N,GND*
X171958000Y-149606000D03*
D12*
G04 #@! TO.P,PLAYER1,Hole*
G04 #@! TO.N,*
X178308000Y-151096000D03*
X178308000Y-139226000D03*
G04 #@! TD*
G04 #@! TO.P,PLAYER2,Hole*
G04 #@! TO.N,*
X217424000Y-151604000D03*
X217424000Y-139734000D03*
D11*
G04 #@! TO.P,PLAYER2,1*
G04 #@! TO.N,GND*
X223774000Y-141224000D03*
D10*
G04 #@! TO.P,PLAYER2,2*
G04 #@! TO.N,N/C*
X226314000Y-142494000D03*
G04 #@! TO.P,PLAYER2,3*
X223774000Y-143764000D03*
G04 #@! TO.P,PLAYER2,4*
G04 #@! TO.N,+3V3*
X226314000Y-145034000D03*
G04 #@! TO.P,PLAYER2,5*
G04 #@! TO.N,+12V*
X223774000Y-146304000D03*
G04 #@! TO.P,PLAYER2,6*
G04 #@! TO.N,Net-(J_BRD_P2-Pad6)*
X226314000Y-147574000D03*
G04 #@! TO.P,PLAYER2,7*
G04 #@! TO.N,Net-(J_BRD_P2-Pad7)*
X223774000Y-148844000D03*
G04 #@! TO.P,PLAYER2,8*
G04 #@! TO.N,Net-(J_BRD_P2-Pad8)*
X226314000Y-150114000D03*
G04 #@! TD*
G04 #@! TO.P,PLAYER3,8*
G04 #@! TO.N,Net-(J_BRD_P3-Pad8)*
X226314000Y-133350000D03*
G04 #@! TO.P,PLAYER3,7*
G04 #@! TO.N,Net-(J_BRD_P3-Pad7)*
X223774000Y-132080000D03*
G04 #@! TO.P,PLAYER3,6*
G04 #@! TO.N,Net-(J_BRD_P3-Pad6)*
X226314000Y-130810000D03*
G04 #@! TO.P,PLAYER3,5*
G04 #@! TO.N,+12V*
X223774000Y-129540000D03*
G04 #@! TO.P,PLAYER3,4*
G04 #@! TO.N,+3V3*
X226314000Y-128270000D03*
G04 #@! TO.P,PLAYER3,3*
G04 #@! TO.N,N/C*
X223774000Y-127000000D03*
G04 #@! TO.P,PLAYER3,2*
X226314000Y-125730000D03*
D11*
G04 #@! TO.P,PLAYER3,1*
G04 #@! TO.N,GND*
X223774000Y-124460000D03*
D12*
G04 #@! TO.P,PLAYER3,Hole*
G04 #@! TO.N,*
X217424000Y-122970000D03*
X217424000Y-134840000D03*
G04 #@! TD*
G04 #@! TO.P,PLAYER4,Hole*
G04 #@! TO.N,*
X178308000Y-122462000D03*
X178308000Y-134332000D03*
D11*
G04 #@! TO.P,PLAYER4,1*
G04 #@! TO.N,GND*
X171958000Y-132842000D03*
D10*
G04 #@! TO.P,PLAYER4,2*
G04 #@! TO.N,N/C*
X169418000Y-131572000D03*
G04 #@! TO.P,PLAYER4,3*
X171958000Y-130302000D03*
G04 #@! TO.P,PLAYER4,4*
G04 #@! TO.N,+3V3*
X169418000Y-129032000D03*
G04 #@! TO.P,PLAYER4,5*
G04 #@! TO.N,+12V*
X171958000Y-127762000D03*
G04 #@! TO.P,PLAYER4,6*
G04 #@! TO.N,Net-(J_BRD_P4-Pad6)*
X169418000Y-126492000D03*
G04 #@! TO.P,PLAYER4,7*
G04 #@! TO.N,Net-(J_BRD_P4-Pad7)*
X171958000Y-125222000D03*
G04 #@! TO.P,PLAYER4,8*
G04 #@! TO.N,Net-(J_BRD_P4-Pad8)*
X169418000Y-123952000D03*
G04 #@! TD*
D13*
G04 #@! TO.P,12V,3*
G04 #@! TO.N,N/C*
X173276000Y-117222000D03*
G04 #@! TO.P,12V,2*
G04 #@! TO.N,GND*
X170276000Y-112522000D03*
G04 #@! TO.P,12V,1*
G04 #@! TO.N,+12V*
X176276000Y-112522000D03*
G04 #@! TD*
D14*
G04 #@! TO.P,SHIELD0,AD5*
G04 #@! TO.N,N/C*
X228854000Y-157226000D03*
G04 #@! TO.P,SHIELD0,AD4*
X226314000Y-157226000D03*
G04 #@! TO.P,SHIELD0,AD3*
X223774000Y-157226000D03*
G04 #@! TO.P,SHIELD0,AD0*
X216154000Y-157226000D03*
G04 #@! TO.P,SHIELD0,AD1*
X218694000Y-157226000D03*
G04 #@! TO.P,SHIELD0,AD2*
X221234000Y-157226000D03*
G04 #@! TO.P,SHIELD0,V_IN*
G04 #@! TO.N,+12V*
X211074000Y-157226000D03*
G04 #@! TO.P,SHIELD0,GND2*
G04 #@! TO.N,GND*
X208534000Y-157226000D03*
G04 #@! TO.P,SHIELD0,GND1*
X205994000Y-157226000D03*
G04 #@! TO.P,SHIELD0,3V3*
G04 #@! TO.N,+3V3*
X200914000Y-157226000D03*
G04 #@! TO.P,SHIELD0,RST*
G04 #@! TO.N,Net-(SHIELD0-PadRST)*
X198374000Y-157226000D03*
G04 #@! TO.P,SHIELD0,0*
G04 #@! TO.N,N/C*
X228854000Y-108966000D03*
G04 #@! TO.P,SHIELD0,1*
X226314000Y-108966000D03*
G04 #@! TO.P,SHIELD0,2*
G04 #@! TO.N,Net-(J_BRD_P1-Pad7)*
X223774000Y-108966000D03*
G04 #@! TO.P,SHIELD0,3*
G04 #@! TO.N,Net-(J_BRD_P1-Pad6)*
X221234000Y-108966000D03*
G04 #@! TO.P,SHIELD0,4*
G04 #@! TO.N,Net-(J_BRD_P2-Pad7)*
X218694000Y-108966000D03*
G04 #@! TO.P,SHIELD0,5*
G04 #@! TO.N,Net-(J_BRD_P2-Pad6)*
X216154000Y-108966000D03*
G04 #@! TO.P,SHIELD0,6*
G04 #@! TO.N,Net-(J_BRD_P3-Pad7)*
X213614000Y-108966000D03*
G04 #@! TO.P,SHIELD0,7*
G04 #@! TO.N,Net-(J_BRD_P3-Pad6)*
X211074000Y-108966000D03*
G04 #@! TO.P,SHIELD0,8*
G04 #@! TO.N,Net-(J_BRD_P4-Pad7)*
X207010000Y-108966000D03*
G04 #@! TO.P,SHIELD0,9*
G04 #@! TO.N,Net-(J_BRD_P4-Pad6)*
X204470000Y-108966000D03*
G04 #@! TO.P,SHIELD0,10*
G04 #@! TO.N,Net-(SHIELD0-Pad10)*
X201930000Y-108966000D03*
G04 #@! TO.P,SHIELD0,11*
G04 #@! TO.N,Net-(SHIELD0-Pad11)*
X199390000Y-108966000D03*
G04 #@! TO.P,SHIELD0,12*
G04 #@! TO.N,Net-(SHIELD0-Pad12)*
X196850000Y-108966000D03*
G04 #@! TO.P,SHIELD0,13*
G04 #@! TO.N,Net-(SHIELD0-Pad13)*
X194310000Y-108966000D03*
G04 #@! TO.P,SHIELD0,GND3*
G04 #@! TO.N,GND*
X191770000Y-108966000D03*
G04 #@! TO.P,SHIELD0,AREF*
G04 #@! TO.N,N/C*
X189230000Y-108966000D03*
G04 #@! TO.P,SHIELD0,5V*
X203454000Y-157226000D03*
D15*
G04 #@! TO.P,SHIELD0,*
G04 #@! TO.N,*
X231394000Y-152146000D03*
X231394000Y-124206000D03*
X180594000Y-108966000D03*
X179324000Y-157226000D03*
G04 #@! TD*
D16*
G04 #@! TO.P,ULQ2003A,16*
G04 #@! TO.N,N/C*
X201930000Y-127254000D03*
G04 #@! TO.P,ULQ2003A,8*
G04 #@! TO.N,GND*
X194310000Y-145034000D03*
G04 #@! TO.P,ULQ2003A,15*
G04 #@! TO.N,N/C*
X201930000Y-129794000D03*
G04 #@! TO.P,ULQ2003A,7*
G04 #@! TO.N,Net-(SHIELD0-Pad10)*
X194310000Y-142494000D03*
G04 #@! TO.P,ULQ2003A,14*
G04 #@! TO.N,N/C*
X201930000Y-132334000D03*
G04 #@! TO.P,ULQ2003A,6*
G04 #@! TO.N,Net-(SHIELD0-Pad11)*
X194310000Y-139954000D03*
G04 #@! TO.P,ULQ2003A,13*
G04 #@! TO.N,Net-(J_BRD_P4-Pad8)*
X201930000Y-134874000D03*
G04 #@! TO.P,ULQ2003A,5*
G04 #@! TO.N,Net-(SHIELD0-Pad12)*
X194310000Y-137414000D03*
G04 #@! TO.P,ULQ2003A,12*
G04 #@! TO.N,Net-(J_BRD_P3-Pad8)*
X201930000Y-137414000D03*
G04 #@! TO.P,ULQ2003A,4*
G04 #@! TO.N,Net-(SHIELD0-Pad13)*
X194310000Y-134874000D03*
G04 #@! TO.P,ULQ2003A,11*
G04 #@! TO.N,Net-(J_BRD_P2-Pad8)*
X201930000Y-139954000D03*
G04 #@! TO.P,ULQ2003A,3*
G04 #@! TO.N,N/C*
X194310000Y-132334000D03*
G04 #@! TO.P,ULQ2003A,10*
G04 #@! TO.N,Net-(J_BRD_P1-Pad8)*
X201930000Y-142494000D03*
G04 #@! TO.P,ULQ2003A,2*
G04 #@! TO.N,N/C*
X194310000Y-129794000D03*
G04 #@! TO.P,ULQ2003A,9*
G04 #@! TO.N,+12V*
X201930000Y-145034000D03*
D17*
G04 #@! TO.P,ULQ2003A,1*
G04 #@! TO.N,N/C*
X194310000Y-127254000D03*
G04 #@! TD*
D18*
G04 #@! TO.P,SW_RST_1,4*
G04 #@! TO.N,+3V3*
X183642000Y-114554000D03*
G04 #@! TO.P,SW_RST_1,3*
G04 #@! TO.N,Net-(R5-Pad2)*
X186182000Y-114554000D03*
G04 #@! TO.P,SW_RST_1,2*
G04 #@! TO.N,Net-(SHIELD0-PadRST)*
X188722000Y-114554000D03*
D19*
G04 #@! TO.P,SW_RST_1,1*
G04 #@! TO.N,GND*
X191262000Y-114554000D03*
G04 #@! TD*
D20*
G04 #@! TO.N,+3V3*
X229362000Y-127762000D03*
X228346000Y-154432000D03*
X166624000Y-154432000D03*
X166624000Y-129286000D03*
X166624000Y-146050000D03*
X228346000Y-144526000D03*
X200914000Y-154432000D03*
X183642000Y-128778000D03*
X174498000Y-128778000D03*
G04 #@! TO.N,Net-(J_BRD_P1-Pad8)*
X176624999Y-143669001D03*
X176530000Y-141224000D03*
G04 #@! TO.N,Net-(J_BRD_P2-Pad8)*
X213868000Y-139954000D03*
X213868000Y-149098000D03*
G04 #@! TO.N,Net-(J_BRD_P3-Pad8)*
X226060000Y-137414000D03*
G04 #@! TO.N,Net-(J_BRD_P4-Pad8)*
X190754000Y-133604000D03*
X190500000Y-124714000D03*
G04 #@! TO.N,Net-(J_BRD_P1-Pad7)*
X191516000Y-142240000D03*
X191770000Y-117602000D03*
X223266000Y-117348000D03*
G04 #@! TO.N,Net-(J_BRD_P1-Pad6)*
X174244000Y-143256000D03*
X174244000Y-147828000D03*
X211582000Y-147574000D03*
X212344000Y-112522000D03*
X220980000Y-112268000D03*
G04 #@! TO.N,Net-(J_BRD_P2-Pad6)*
X216408000Y-119634000D03*
X220472000Y-119888000D03*
X220472000Y-147320000D03*
G04 #@! TO.N,Net-(J_BRD_P3-Pad7)*
X214376000Y-132080000D03*
G04 #@! TO.N,Net-(J_BRD_P3-Pad6)*
X211074000Y-130302000D03*
G04 #@! TO.N,Net-(J_BRD_P4-Pad6)*
X167132000Y-125730000D03*
X167132000Y-119888000D03*
X167132000Y-119888000D03*
X204470000Y-119888000D03*
G04 #@! TO.N,Net-(J_BRD_P4-Pad7)*
X205486000Y-125730000D03*
G04 #@! TO.N,Net-(SHIELD0-PadRST)*
X188722000Y-156464000D03*
G04 #@! TD*
D21*
G04 #@! TO.N,+3V3*
X226314000Y-128270000D02*
X228854000Y-128270000D01*
X228854000Y-128270000D02*
X229362000Y-127762000D01*
X169164000Y-129286000D02*
X169418000Y-129032000D01*
X166624000Y-129286000D02*
X169164000Y-129286000D01*
X169418000Y-145796000D02*
X166878000Y-145796000D01*
X166878000Y-145796000D02*
X166624000Y-146050000D01*
X226314000Y-145034000D02*
X227838000Y-145034000D01*
X227838000Y-145034000D02*
X228346000Y-144526000D01*
X228346000Y-154432000D02*
X200914000Y-154432000D01*
X200914000Y-154432000D02*
X166624000Y-154432000D01*
X183642000Y-128778000D02*
X174498000Y-128778000D01*
X174244000Y-129032000D02*
X174498000Y-128778000D01*
X169418000Y-129032000D02*
X174244000Y-129032000D01*
D22*
G04 #@! TO.N,Net-(J_BRD_P1-Pad8)*
X201130001Y-143293999D02*
X201930000Y-142494000D01*
X200754999Y-143669001D02*
X201130001Y-143293999D01*
X176624999Y-143669001D02*
X200754999Y-143669001D01*
X176022000Y-140716000D02*
X169418000Y-140716000D01*
X176530000Y-141224000D02*
X176022000Y-140716000D01*
G04 #@! TO.N,Net-(J_BRD_P2-Pad8)*
X201930000Y-139954000D02*
X213614000Y-139954000D01*
X213614000Y-139954000D02*
X213868000Y-139954000D01*
X223378998Y-150114000D02*
X225253340Y-150114000D01*
X225253340Y-150114000D02*
X226314000Y-150114000D01*
X222362998Y-149098000D02*
X223378998Y-150114000D01*
X213868000Y-149098000D02*
X222362998Y-149098000D01*
G04 #@! TO.N,Net-(J_BRD_P3-Pad8)*
X201930000Y-137414000D02*
X226060000Y-137414000D01*
G04 #@! TO.N,Net-(J_BRD_P4-Pad8)*
X200565001Y-133509001D02*
X190848999Y-133509001D01*
X201930000Y-134874000D02*
X200565001Y-133509001D01*
X190848999Y-133509001D02*
X190754000Y-133604000D01*
X172321001Y-123952000D02*
X170478660Y-123952000D01*
X170478660Y-123952000D02*
X169418000Y-123952000D01*
X173083001Y-124714000D02*
X172321001Y-123952000D01*
X190500000Y-124714000D02*
X173083001Y-124714000D01*
G04 #@! TO.N,Net-(J_BRD_P1-Pad7)*
X176398998Y-142240000D02*
X191516000Y-142240000D01*
X171958000Y-141986000D02*
X176144998Y-141986000D01*
X176144998Y-141986000D02*
X176398998Y-142240000D01*
X191770000Y-117602000D02*
X223012000Y-117602000D01*
X223012000Y-117602000D02*
X223266000Y-117348000D01*
G04 #@! TO.N,Net-(J_BRD_P1-Pad6)*
X169418000Y-143256000D02*
X172353002Y-143256000D01*
X172353002Y-143256000D02*
X174244000Y-143256000D01*
X174244000Y-147828000D02*
X211328000Y-147828000D01*
X211328000Y-147828000D02*
X211582000Y-147574000D01*
X212344000Y-112522000D02*
X220726000Y-112522000D01*
X220726000Y-112522000D02*
X220980000Y-112268000D01*
G04 #@! TO.N,Net-(J_BRD_P2-Pad6)*
X216408000Y-119634000D02*
X220218000Y-119634000D01*
X220218000Y-119634000D02*
X220472000Y-119888000D01*
X223124998Y-147320000D02*
X223378998Y-147574000D01*
X225253340Y-147574000D02*
X226314000Y-147574000D01*
X223378998Y-147574000D02*
X225253340Y-147574000D01*
X220472000Y-147320000D02*
X223124998Y-147320000D01*
G04 #@! TO.N,Net-(J_BRD_P3-Pad7)*
X223774000Y-132080000D02*
X214376000Y-132080000D01*
G04 #@! TO.N,Net-(J_BRD_P3-Pad6)*
X225253340Y-130810000D02*
X226314000Y-130810000D01*
X223378998Y-130810000D02*
X225253340Y-130810000D01*
X222870998Y-130302000D02*
X223378998Y-130810000D01*
X211074000Y-130302000D02*
X222870998Y-130302000D01*
G04 #@! TO.N,Net-(J_BRD_P4-Pad6)*
X169418000Y-126492000D02*
X167894000Y-126492000D01*
X167894000Y-126492000D02*
X167132000Y-125730000D01*
X167132000Y-119888000D02*
X204470000Y-119888000D01*
G04 #@! TO.N,Net-(J_BRD_P4-Pad7)*
X190368998Y-125730000D02*
X205486000Y-125730000D01*
X171958000Y-125222000D02*
X189860998Y-125222000D01*
X189860998Y-125222000D02*
X190368998Y-125730000D01*
G04 #@! TO.N,Net-(SHIELD0-PadRST)*
X197612000Y-156464000D02*
X198374000Y-157226000D01*
X188722000Y-156464000D02*
X197612000Y-156464000D01*
G04 #@! TD*
D23*
G04 #@! TO.N,GND*
G36*
X188684918Y-107142056D02*
X188222820Y-107450821D01*
X187914056Y-107912919D01*
X187833000Y-108320413D01*
X187833000Y-109611588D01*
X187914056Y-110019082D01*
X188222821Y-110481180D01*
X188684919Y-110789944D01*
X189230000Y-110898368D01*
X189775082Y-110789944D01*
X190237180Y-110481180D01*
X190511580Y-110070511D01*
X190527941Y-110125941D01*
X190871974Y-110551630D01*
X191352723Y-110813260D01*
X191426930Y-110828220D01*
X191643000Y-110705720D01*
X191643000Y-109093000D01*
X191623000Y-109093000D01*
X191623000Y-108839000D01*
X191643000Y-108839000D01*
X191643000Y-108819000D01*
X191897000Y-108819000D01*
X191897000Y-108839000D01*
X191917000Y-108839000D01*
X191917000Y-109093000D01*
X191897000Y-109093000D01*
X191897000Y-110705720D01*
X192113070Y-110828220D01*
X192187277Y-110813260D01*
X192668026Y-110551630D01*
X193012059Y-110125941D01*
X193028420Y-110070511D01*
X193302821Y-110481180D01*
X193764919Y-110789944D01*
X194310000Y-110898368D01*
X194855082Y-110789944D01*
X195317180Y-110481180D01*
X195580000Y-110087842D01*
X195842821Y-110481180D01*
X196304919Y-110789944D01*
X196850000Y-110898368D01*
X197395082Y-110789944D01*
X197857180Y-110481180D01*
X198120000Y-110087842D01*
X198382821Y-110481180D01*
X198844919Y-110789944D01*
X199390000Y-110898368D01*
X199935082Y-110789944D01*
X200397180Y-110481180D01*
X200660000Y-110087842D01*
X200922821Y-110481180D01*
X201384919Y-110789944D01*
X201930000Y-110898368D01*
X202475082Y-110789944D01*
X202937180Y-110481180D01*
X203200000Y-110087842D01*
X203462821Y-110481180D01*
X203924919Y-110789944D01*
X204470000Y-110898368D01*
X205015082Y-110789944D01*
X205477180Y-110481180D01*
X205740000Y-110087842D01*
X206002821Y-110481180D01*
X206464919Y-110789944D01*
X207010000Y-110898368D01*
X207555082Y-110789944D01*
X208017180Y-110481180D01*
X208325944Y-110019082D01*
X208407000Y-109611588D01*
X208407000Y-108320412D01*
X208325944Y-107912918D01*
X208017179Y-107450820D01*
X207555081Y-107142056D01*
X207524636Y-107136000D01*
X210559363Y-107136000D01*
X210528918Y-107142056D01*
X210066820Y-107450821D01*
X209758056Y-107912919D01*
X209677000Y-108320413D01*
X209677000Y-109611588D01*
X209758056Y-110019082D01*
X210066821Y-110481180D01*
X210528919Y-110789944D01*
X211074000Y-110898368D01*
X211619082Y-110789944D01*
X212081180Y-110481180D01*
X212344000Y-110087842D01*
X212606821Y-110481180D01*
X213068919Y-110789944D01*
X213614000Y-110898368D01*
X214159082Y-110789944D01*
X214621180Y-110481180D01*
X214884000Y-110087842D01*
X215146821Y-110481180D01*
X215608919Y-110789944D01*
X216154000Y-110898368D01*
X216699082Y-110789944D01*
X217161180Y-110481180D01*
X217424000Y-110087842D01*
X217686821Y-110481180D01*
X218148919Y-110789944D01*
X218694000Y-110898368D01*
X219239082Y-110789944D01*
X219701180Y-110481180D01*
X219964000Y-110087842D01*
X220226821Y-110481180D01*
X220688919Y-110789944D01*
X221234000Y-110898368D01*
X221779082Y-110789944D01*
X222241180Y-110481180D01*
X222504000Y-110087842D01*
X222766821Y-110481180D01*
X223228919Y-110789944D01*
X223774000Y-110898368D01*
X224319082Y-110789944D01*
X224781180Y-110481180D01*
X225044000Y-110087842D01*
X225306821Y-110481180D01*
X225768919Y-110789944D01*
X226314000Y-110898368D01*
X226859082Y-110789944D01*
X227321180Y-110481180D01*
X227584000Y-110087842D01*
X227846821Y-110481180D01*
X228308919Y-110789944D01*
X228854000Y-110898368D01*
X229399082Y-110789944D01*
X229861180Y-110481180D01*
X230169944Y-110019082D01*
X230251000Y-109611588D01*
X230251000Y-108320412D01*
X230169944Y-107912918D01*
X229861179Y-107450820D01*
X229399081Y-107142056D01*
X229368636Y-107136000D01*
X229829910Y-107136000D01*
X230684000Y-107990091D01*
X230684001Y-119056071D01*
X230670091Y-119126000D01*
X230712154Y-119337463D01*
X230725196Y-119403028D01*
X230882120Y-119637881D01*
X230941402Y-119677492D01*
X233224000Y-121960091D01*
X233224000Y-122354094D01*
X232868765Y-121998859D01*
X231911868Y-121602500D01*
X230876132Y-121602500D01*
X229919235Y-121998859D01*
X229186859Y-122731235D01*
X228790500Y-123688132D01*
X228790500Y-124723868D01*
X229186859Y-125680765D01*
X229919235Y-126413141D01*
X230876132Y-126809500D01*
X231911868Y-126809500D01*
X232868765Y-126413141D01*
X233224000Y-126057906D01*
X233224001Y-150294095D01*
X232868765Y-149938859D01*
X231911868Y-149542500D01*
X230876132Y-149542500D01*
X229919235Y-149938859D01*
X229186859Y-150671235D01*
X228790500Y-151628132D01*
X228790500Y-152663868D01*
X229186859Y-153620765D01*
X229919235Y-154353141D01*
X230876132Y-154749500D01*
X231911868Y-154749500D01*
X232868765Y-154353141D01*
X233224001Y-153997905D01*
X233224001Y-154391908D01*
X230941402Y-156674508D01*
X230882119Y-156714120D01*
X230725195Y-156948973D01*
X230705044Y-157050280D01*
X230670091Y-157226000D01*
X230684000Y-157295925D01*
X230684001Y-159056000D01*
X229368637Y-159056000D01*
X229399082Y-159049944D01*
X229861180Y-158741180D01*
X230169944Y-158279082D01*
X230251000Y-157871588D01*
X230251000Y-156580412D01*
X230169944Y-156172918D01*
X229861179Y-155710820D01*
X229399081Y-155402056D01*
X228932470Y-155309241D01*
X229223431Y-155018280D01*
X229381000Y-154637874D01*
X229381000Y-154226126D01*
X229223431Y-153845720D01*
X228932280Y-153554569D01*
X228551874Y-153397000D01*
X228140126Y-153397000D01*
X227777993Y-153547000D01*
X218959965Y-153547000D01*
X219509487Y-152997478D01*
X219884000Y-152093324D01*
X219884000Y-151114676D01*
X219509487Y-150210522D01*
X219156965Y-149858000D01*
X222048197Y-149858000D01*
X222788669Y-150598473D01*
X222831069Y-150661929D01*
X223082461Y-150829904D01*
X223304146Y-150874000D01*
X223304151Y-150874000D01*
X223378998Y-150888888D01*
X223453845Y-150874000D01*
X225129688Y-150874000D01*
X225139853Y-150898540D01*
X225529460Y-151288147D01*
X226038506Y-151499000D01*
X226589494Y-151499000D01*
X227098540Y-151288147D01*
X227488147Y-150898540D01*
X227699000Y-150389494D01*
X227699000Y-149838506D01*
X227488147Y-149329460D01*
X227098540Y-148939853D01*
X226867130Y-148844000D01*
X227098540Y-148748147D01*
X227488147Y-148358540D01*
X227699000Y-147849494D01*
X227699000Y-147298506D01*
X227488147Y-146789460D01*
X227098540Y-146399853D01*
X226867130Y-146304000D01*
X227098540Y-146208147D01*
X227387687Y-145919000D01*
X227750839Y-145919000D01*
X227838000Y-145936337D01*
X227925161Y-145919000D01*
X227925165Y-145919000D01*
X228183310Y-145867652D01*
X228476049Y-145672049D01*
X228525425Y-145598153D01*
X228570147Y-145553431D01*
X228932280Y-145403431D01*
X229223431Y-145112280D01*
X229381000Y-144731874D01*
X229381000Y-144320126D01*
X229223431Y-143939720D01*
X228932280Y-143648569D01*
X228551874Y-143491000D01*
X228140126Y-143491000D01*
X227759720Y-143648569D01*
X227468569Y-143939720D01*
X227383583Y-144144896D01*
X227098540Y-143859853D01*
X226867130Y-143764000D01*
X227098540Y-143668147D01*
X227488147Y-143278540D01*
X227699000Y-142769494D01*
X227699000Y-142218506D01*
X227488147Y-141709460D01*
X227098540Y-141319853D01*
X226589494Y-141109000D01*
X226038506Y-141109000D01*
X225529460Y-141319853D01*
X225159000Y-141690313D01*
X225159000Y-141509750D01*
X225000250Y-141351000D01*
X223901000Y-141351000D01*
X223901000Y-141371000D01*
X223647000Y-141371000D01*
X223647000Y-141351000D01*
X222547750Y-141351000D01*
X222389000Y-141509750D01*
X222389000Y-142100309D01*
X222485673Y-142333698D01*
X222664301Y-142512327D01*
X222897690Y-142609000D01*
X222970313Y-142609000D01*
X222599853Y-142979460D01*
X222389000Y-143488506D01*
X222389000Y-144039494D01*
X222599853Y-144548540D01*
X222989460Y-144938147D01*
X223220870Y-145034000D01*
X222989460Y-145129853D01*
X222599853Y-145519460D01*
X222389000Y-146028506D01*
X222389000Y-146560000D01*
X221175711Y-146560000D01*
X221058280Y-146442569D01*
X220677874Y-146285000D01*
X220266126Y-146285000D01*
X219885720Y-146442569D01*
X219594569Y-146733720D01*
X219437000Y-147114126D01*
X219437000Y-147525874D01*
X219594569Y-147906280D01*
X219885720Y-148197431D01*
X220225084Y-148338000D01*
X214571711Y-148338000D01*
X214454280Y-148220569D01*
X214073874Y-148063000D01*
X213662126Y-148063000D01*
X213281720Y-148220569D01*
X212990569Y-148511720D01*
X212833000Y-148892126D01*
X212833000Y-149303874D01*
X212990569Y-149684280D01*
X213281720Y-149975431D01*
X213662126Y-150133000D01*
X214073874Y-150133000D01*
X214454280Y-149975431D01*
X214571711Y-149858000D01*
X215691035Y-149858000D01*
X215338513Y-150210522D01*
X214964000Y-151114676D01*
X214964000Y-152093324D01*
X215338513Y-152997478D01*
X215888035Y-153547000D01*
X201482007Y-153547000D01*
X201119874Y-153397000D01*
X200708126Y-153397000D01*
X200345993Y-153547000D01*
X178819052Y-153547000D01*
X179701478Y-153181487D01*
X180393487Y-152489478D01*
X180768000Y-151585324D01*
X180768000Y-150606676D01*
X180393487Y-149702522D01*
X179701478Y-149010513D01*
X178797324Y-148636000D01*
X177818676Y-148636000D01*
X176914522Y-149010513D01*
X176222513Y-149702522D01*
X175848000Y-150606676D01*
X175848000Y-151585324D01*
X176222513Y-152489478D01*
X176914522Y-153181487D01*
X177796948Y-153547000D01*
X167192007Y-153547000D01*
X166829874Y-153397000D01*
X166418126Y-153397000D01*
X166064000Y-153543683D01*
X166064000Y-149891750D01*
X170573000Y-149891750D01*
X170573000Y-150482309D01*
X170669673Y-150715698D01*
X170848301Y-150894327D01*
X171081690Y-150991000D01*
X171672250Y-150991000D01*
X171831000Y-150832250D01*
X171831000Y-149733000D01*
X172085000Y-149733000D01*
X172085000Y-150832250D01*
X172243750Y-150991000D01*
X172834310Y-150991000D01*
X173067699Y-150894327D01*
X173246327Y-150715698D01*
X173343000Y-150482309D01*
X173343000Y-149891750D01*
X173184250Y-149733000D01*
X172085000Y-149733000D01*
X171831000Y-149733000D01*
X170731750Y-149733000D01*
X170573000Y-149891750D01*
X166064000Y-149891750D01*
X166064000Y-146938317D01*
X166418126Y-147085000D01*
X166829874Y-147085000D01*
X167210280Y-146927431D01*
X167456711Y-146681000D01*
X168344313Y-146681000D01*
X168633460Y-146970147D01*
X168864870Y-147066000D01*
X168633460Y-147161853D01*
X168243853Y-147551460D01*
X168033000Y-148060506D01*
X168033000Y-148611494D01*
X168243853Y-149120540D01*
X168633460Y-149510147D01*
X169142506Y-149721000D01*
X169693494Y-149721000D01*
X170202540Y-149510147D01*
X170573000Y-149139687D01*
X170573000Y-149320250D01*
X170731750Y-149479000D01*
X171831000Y-149479000D01*
X171831000Y-149459000D01*
X172085000Y-149459000D01*
X172085000Y-149479000D01*
X173184250Y-149479000D01*
X173343000Y-149320250D01*
X173343000Y-148729691D01*
X173246327Y-148496302D01*
X173067699Y-148317673D01*
X172834310Y-148221000D01*
X172761687Y-148221000D01*
X173132147Y-147850540D01*
X173209000Y-147665000D01*
X173209000Y-148033874D01*
X173366569Y-148414280D01*
X173657720Y-148705431D01*
X174038126Y-148863000D01*
X174449874Y-148863000D01*
X174830280Y-148705431D01*
X174947711Y-148588000D01*
X211253153Y-148588000D01*
X211328000Y-148602888D01*
X211350544Y-148598404D01*
X211376126Y-148609000D01*
X211787874Y-148609000D01*
X212168280Y-148451431D01*
X212459431Y-148160280D01*
X212617000Y-147779874D01*
X212617000Y-147368126D01*
X212459431Y-146987720D01*
X212168280Y-146696569D01*
X211787874Y-146539000D01*
X211376126Y-146539000D01*
X210995720Y-146696569D01*
X210704569Y-146987720D01*
X210671316Y-147068000D01*
X174947711Y-147068000D01*
X174830280Y-146950569D01*
X174449874Y-146793000D01*
X174038126Y-146793000D01*
X173657720Y-146950569D01*
X173366569Y-147241720D01*
X173343000Y-147298621D01*
X173343000Y-146790506D01*
X173132147Y-146281460D01*
X172742540Y-145891853D01*
X172511130Y-145796000D01*
X172742540Y-145700147D01*
X173059648Y-145383039D01*
X192918096Y-145383039D01*
X193078959Y-145771423D01*
X193454866Y-146186389D01*
X193960959Y-146425914D01*
X194183000Y-146304629D01*
X194183000Y-145161000D01*
X194437000Y-145161000D01*
X194437000Y-146304629D01*
X194659041Y-146425914D01*
X195165134Y-146186389D01*
X195541041Y-145771423D01*
X195701904Y-145383039D01*
X195579915Y-145161000D01*
X194437000Y-145161000D01*
X194183000Y-145161000D01*
X193040085Y-145161000D01*
X192918096Y-145383039D01*
X173059648Y-145383039D01*
X173132147Y-145310540D01*
X173343000Y-144801494D01*
X173343000Y-144250506D01*
X173245865Y-144016000D01*
X173540289Y-144016000D01*
X173657720Y-144133431D01*
X174038126Y-144291000D01*
X174449874Y-144291000D01*
X174830280Y-144133431D01*
X175121431Y-143842280D01*
X175279000Y-143461874D01*
X175279000Y-143050126D01*
X175153027Y-142746000D01*
X175823053Y-142746000D01*
X175851069Y-142787929D01*
X175965740Y-142864549D01*
X175747568Y-143082721D01*
X175589999Y-143463127D01*
X175589999Y-143874875D01*
X175747568Y-144255281D01*
X176038719Y-144546432D01*
X176419125Y-144704001D01*
X176830873Y-144704001D01*
X177211279Y-144546432D01*
X177328710Y-144429001D01*
X193024111Y-144429001D01*
X192918096Y-144684961D01*
X193040085Y-144907000D01*
X194183000Y-144907000D01*
X194183000Y-144887000D01*
X194437000Y-144887000D01*
X194437000Y-144907000D01*
X195579915Y-144907000D01*
X195701904Y-144684961D01*
X195595889Y-144429001D01*
X200608388Y-144429001D01*
X200578260Y-144474091D01*
X200466887Y-145034000D01*
X200578260Y-145593909D01*
X200895423Y-146068577D01*
X201370091Y-146385740D01*
X201788667Y-146469000D01*
X202071333Y-146469000D01*
X202489909Y-146385740D01*
X202964577Y-146068577D01*
X203281740Y-145593909D01*
X203393113Y-145034000D01*
X203281740Y-144474091D01*
X202964577Y-143999423D01*
X202612242Y-143764000D01*
X202964577Y-143528577D01*
X203281740Y-143053909D01*
X203393113Y-142494000D01*
X203281740Y-141934091D01*
X202964577Y-141459423D01*
X202612242Y-141224000D01*
X202964577Y-140988577D01*
X203148043Y-140714000D01*
X213164289Y-140714000D01*
X213281720Y-140831431D01*
X213662126Y-140989000D01*
X214073874Y-140989000D01*
X214454280Y-140831431D01*
X214745431Y-140540280D01*
X214903000Y-140159874D01*
X214903000Y-139748126D01*
X214745431Y-139367720D01*
X214454280Y-139076569D01*
X214073874Y-138919000D01*
X213662126Y-138919000D01*
X213281720Y-139076569D01*
X213164289Y-139194000D01*
X203148043Y-139194000D01*
X202964577Y-138919423D01*
X202612242Y-138684000D01*
X202964577Y-138448577D01*
X203148043Y-138174000D01*
X215505035Y-138174000D01*
X215338513Y-138340522D01*
X214964000Y-139244676D01*
X214964000Y-140223324D01*
X215338513Y-141127478D01*
X216030522Y-141819487D01*
X216934676Y-142194000D01*
X217913324Y-142194000D01*
X218817478Y-141819487D01*
X219509487Y-141127478D01*
X219832485Y-140347691D01*
X222389000Y-140347691D01*
X222389000Y-140938250D01*
X222547750Y-141097000D01*
X223647000Y-141097000D01*
X223647000Y-139997750D01*
X223901000Y-139997750D01*
X223901000Y-141097000D01*
X225000250Y-141097000D01*
X225159000Y-140938250D01*
X225159000Y-140347691D01*
X225062327Y-140114302D01*
X224883699Y-139935673D01*
X224650310Y-139839000D01*
X224059750Y-139839000D01*
X223901000Y-139997750D01*
X223647000Y-139997750D01*
X223488250Y-139839000D01*
X222897690Y-139839000D01*
X222664301Y-139935673D01*
X222485673Y-140114302D01*
X222389000Y-140347691D01*
X219832485Y-140347691D01*
X219884000Y-140223324D01*
X219884000Y-139244676D01*
X219509487Y-138340522D01*
X219342965Y-138174000D01*
X225356289Y-138174000D01*
X225473720Y-138291431D01*
X225854126Y-138449000D01*
X226265874Y-138449000D01*
X226646280Y-138291431D01*
X226937431Y-138000280D01*
X227095000Y-137619874D01*
X227095000Y-137208126D01*
X226937431Y-136827720D01*
X226646280Y-136536569D01*
X226265874Y-136379000D01*
X225854126Y-136379000D01*
X225473720Y-136536569D01*
X225356289Y-136654000D01*
X219088965Y-136654000D01*
X219509487Y-136233478D01*
X219884000Y-135329324D01*
X219884000Y-134350676D01*
X219509487Y-133446522D01*
X218902965Y-132840000D01*
X222589688Y-132840000D01*
X222599853Y-132864540D01*
X222989460Y-133254147D01*
X223498506Y-133465000D01*
X224049494Y-133465000D01*
X224558540Y-133254147D01*
X224948147Y-132864540D01*
X225159000Y-132355494D01*
X225159000Y-131804506D01*
X225061865Y-131570000D01*
X225129688Y-131570000D01*
X225139853Y-131594540D01*
X225529460Y-131984147D01*
X225760870Y-132080000D01*
X225529460Y-132175853D01*
X225139853Y-132565460D01*
X224929000Y-133074506D01*
X224929000Y-133625494D01*
X225139853Y-134134540D01*
X225529460Y-134524147D01*
X226038506Y-134735000D01*
X226589494Y-134735000D01*
X227098540Y-134524147D01*
X227488147Y-134134540D01*
X227699000Y-133625494D01*
X227699000Y-133074506D01*
X227488147Y-132565460D01*
X227098540Y-132175853D01*
X226867130Y-132080000D01*
X227098540Y-131984147D01*
X227488147Y-131594540D01*
X227699000Y-131085494D01*
X227699000Y-130534506D01*
X227488147Y-130025460D01*
X227098540Y-129635853D01*
X226867130Y-129540000D01*
X227098540Y-129444147D01*
X227387687Y-129155000D01*
X228766839Y-129155000D01*
X228854000Y-129172337D01*
X228941161Y-129155000D01*
X228941165Y-129155000D01*
X229199310Y-129103652D01*
X229492049Y-128908049D01*
X229541425Y-128834153D01*
X229586147Y-128789431D01*
X229948280Y-128639431D01*
X230239431Y-128348280D01*
X230397000Y-127967874D01*
X230397000Y-127556126D01*
X230239431Y-127175720D01*
X229948280Y-126884569D01*
X229567874Y-126727000D01*
X229156126Y-126727000D01*
X228775720Y-126884569D01*
X228484569Y-127175720D01*
X228397883Y-127385000D01*
X227387687Y-127385000D01*
X227098540Y-127095853D01*
X226867130Y-127000000D01*
X227098540Y-126904147D01*
X227488147Y-126514540D01*
X227699000Y-126005494D01*
X227699000Y-125454506D01*
X227488147Y-124945460D01*
X227098540Y-124555853D01*
X226589494Y-124345000D01*
X226038506Y-124345000D01*
X225529460Y-124555853D01*
X225159000Y-124926313D01*
X225159000Y-124745750D01*
X225000250Y-124587000D01*
X223901000Y-124587000D01*
X223901000Y-124607000D01*
X223647000Y-124607000D01*
X223647000Y-124587000D01*
X222547750Y-124587000D01*
X222389000Y-124745750D01*
X222389000Y-125336309D01*
X222485673Y-125569698D01*
X222664301Y-125748327D01*
X222897690Y-125845000D01*
X222970313Y-125845000D01*
X222599853Y-126215460D01*
X222389000Y-126724506D01*
X222389000Y-127275494D01*
X222599853Y-127784540D01*
X222989460Y-128174147D01*
X223220870Y-128270000D01*
X222989460Y-128365853D01*
X222599853Y-128755460D01*
X222389000Y-129264506D01*
X222389000Y-129542000D01*
X211777711Y-129542000D01*
X211660280Y-129424569D01*
X211279874Y-129267000D01*
X210868126Y-129267000D01*
X210487720Y-129424569D01*
X210196569Y-129715720D01*
X210039000Y-130096126D01*
X210039000Y-130507874D01*
X210196569Y-130888280D01*
X210487720Y-131179431D01*
X210868126Y-131337000D01*
X211279874Y-131337000D01*
X211660280Y-131179431D01*
X211777711Y-131062000D01*
X214129084Y-131062000D01*
X213789720Y-131202569D01*
X213498569Y-131493720D01*
X213341000Y-131874126D01*
X213341000Y-132285874D01*
X213498569Y-132666280D01*
X213789720Y-132957431D01*
X214170126Y-133115000D01*
X214581874Y-133115000D01*
X214962280Y-132957431D01*
X215079711Y-132840000D01*
X215945035Y-132840000D01*
X215338513Y-133446522D01*
X214964000Y-134350676D01*
X214964000Y-135329324D01*
X215338513Y-136233478D01*
X215759035Y-136654000D01*
X203148043Y-136654000D01*
X202964577Y-136379423D01*
X202612242Y-136144000D01*
X202964577Y-135908577D01*
X203281740Y-135433909D01*
X203393113Y-134874000D01*
X203281740Y-134314091D01*
X202964577Y-133839423D01*
X202612242Y-133604000D01*
X202964577Y-133368577D01*
X203281740Y-132893909D01*
X203393113Y-132334000D01*
X203281740Y-131774091D01*
X202964577Y-131299423D01*
X202612242Y-131064000D01*
X202964577Y-130828577D01*
X203281740Y-130353909D01*
X203393113Y-129794000D01*
X203281740Y-129234091D01*
X202964577Y-128759423D01*
X202612242Y-128524000D01*
X202964577Y-128288577D01*
X203281740Y-127813909D01*
X203393113Y-127254000D01*
X203281740Y-126694091D01*
X203145371Y-126490000D01*
X204782289Y-126490000D01*
X204899720Y-126607431D01*
X205280126Y-126765000D01*
X205691874Y-126765000D01*
X206072280Y-126607431D01*
X206363431Y-126316280D01*
X206521000Y-125935874D01*
X206521000Y-125524126D01*
X206363431Y-125143720D01*
X206072280Y-124852569D01*
X205691874Y-124695000D01*
X205280126Y-124695000D01*
X204899720Y-124852569D01*
X204782289Y-124970000D01*
X191514237Y-124970000D01*
X191535000Y-124919874D01*
X191535000Y-124508126D01*
X191377431Y-124127720D01*
X191086280Y-123836569D01*
X190705874Y-123679000D01*
X190294126Y-123679000D01*
X189913720Y-123836569D01*
X189796289Y-123954000D01*
X180294965Y-123954000D01*
X180393487Y-123855478D01*
X180768000Y-122951324D01*
X180768000Y-122480676D01*
X214964000Y-122480676D01*
X214964000Y-123459324D01*
X215338513Y-124363478D01*
X216030522Y-125055487D01*
X216934676Y-125430000D01*
X217913324Y-125430000D01*
X218817478Y-125055487D01*
X219509487Y-124363478D01*
X219832485Y-123583691D01*
X222389000Y-123583691D01*
X222389000Y-124174250D01*
X222547750Y-124333000D01*
X223647000Y-124333000D01*
X223647000Y-123233750D01*
X223901000Y-123233750D01*
X223901000Y-124333000D01*
X225000250Y-124333000D01*
X225159000Y-124174250D01*
X225159000Y-123583691D01*
X225062327Y-123350302D01*
X224883699Y-123171673D01*
X224650310Y-123075000D01*
X224059750Y-123075000D01*
X223901000Y-123233750D01*
X223647000Y-123233750D01*
X223488250Y-123075000D01*
X222897690Y-123075000D01*
X222664301Y-123171673D01*
X222485673Y-123350302D01*
X222389000Y-123583691D01*
X219832485Y-123583691D01*
X219884000Y-123459324D01*
X219884000Y-122480676D01*
X219509487Y-121576522D01*
X218817478Y-120884513D01*
X217913324Y-120510000D01*
X216995711Y-120510000D01*
X217111711Y-120394000D01*
X219561316Y-120394000D01*
X219594569Y-120474280D01*
X219885720Y-120765431D01*
X220266126Y-120923000D01*
X220677874Y-120923000D01*
X221058280Y-120765431D01*
X221349431Y-120474280D01*
X221507000Y-120093874D01*
X221507000Y-119682126D01*
X221349431Y-119301720D01*
X221058280Y-119010569D01*
X220677874Y-118853000D01*
X220266126Y-118853000D01*
X220240544Y-118863596D01*
X220218000Y-118859112D01*
X220143153Y-118874000D01*
X217111711Y-118874000D01*
X216994280Y-118756569D01*
X216613874Y-118599000D01*
X216202126Y-118599000D01*
X215821720Y-118756569D01*
X215530569Y-119047720D01*
X215373000Y-119428126D01*
X215373000Y-119839874D01*
X215530569Y-120220280D01*
X215821720Y-120511431D01*
X216202126Y-120669000D01*
X216550816Y-120669000D01*
X216030522Y-120884513D01*
X215338513Y-121576522D01*
X214964000Y-122480676D01*
X180768000Y-122480676D01*
X180768000Y-121972676D01*
X180393487Y-121068522D01*
X179972965Y-120648000D01*
X203766289Y-120648000D01*
X203883720Y-120765431D01*
X204264126Y-120923000D01*
X204675874Y-120923000D01*
X205056280Y-120765431D01*
X205347431Y-120474280D01*
X205505000Y-120093874D01*
X205505000Y-119682126D01*
X205347431Y-119301720D01*
X205056280Y-119010569D01*
X204675874Y-118853000D01*
X204264126Y-118853000D01*
X203883720Y-119010569D01*
X203766289Y-119128000D01*
X175642410Y-119128000D01*
X175673440Y-118972000D01*
X175673440Y-117396126D01*
X190735000Y-117396126D01*
X190735000Y-117807874D01*
X190892569Y-118188280D01*
X191183720Y-118479431D01*
X191564126Y-118637000D01*
X191975874Y-118637000D01*
X192356280Y-118479431D01*
X192473711Y-118362000D01*
X222937153Y-118362000D01*
X223012000Y-118376888D01*
X223034544Y-118372404D01*
X223060126Y-118383000D01*
X223471874Y-118383000D01*
X223852280Y-118225431D01*
X224143431Y-117934280D01*
X224301000Y-117553874D01*
X224301000Y-117142126D01*
X224143431Y-116761720D01*
X223852280Y-116470569D01*
X223471874Y-116313000D01*
X223060126Y-116313000D01*
X222679720Y-116470569D01*
X222388569Y-116761720D01*
X222355316Y-116842000D01*
X192473711Y-116842000D01*
X192356280Y-116724569D01*
X191975874Y-116567000D01*
X191564126Y-116567000D01*
X191183720Y-116724569D01*
X190892569Y-117015720D01*
X190735000Y-117396126D01*
X175673440Y-117396126D01*
X175673440Y-115472000D01*
X175624157Y-115224235D01*
X175483809Y-115014191D01*
X175342005Y-114919440D01*
X178026000Y-114919440D01*
X178273765Y-114870157D01*
X178483809Y-114729809D01*
X178601281Y-114554000D01*
X182127908Y-114554000D01*
X182243161Y-115133418D01*
X182571375Y-115624625D01*
X183062582Y-115952839D01*
X183495744Y-116039000D01*
X183788256Y-116039000D01*
X184221418Y-115952839D01*
X184712625Y-115624625D01*
X184912000Y-115326239D01*
X185111375Y-115624625D01*
X185602582Y-115952839D01*
X186035744Y-116039000D01*
X186328256Y-116039000D01*
X186761418Y-115952839D01*
X187252625Y-115624625D01*
X187452000Y-115326239D01*
X187651375Y-115624625D01*
X188142582Y-115952839D01*
X188575744Y-116039000D01*
X188868256Y-116039000D01*
X189301418Y-115952839D01*
X189792625Y-115624625D01*
X189807096Y-115602967D01*
X189873673Y-115763698D01*
X190052301Y-115942327D01*
X190285690Y-116039000D01*
X190976250Y-116039000D01*
X191135000Y-115880250D01*
X191135000Y-114681000D01*
X191389000Y-114681000D01*
X191389000Y-115880250D01*
X191547750Y-116039000D01*
X192238310Y-116039000D01*
X192471699Y-115942327D01*
X192650327Y-115763698D01*
X192747000Y-115530309D01*
X192747000Y-114839750D01*
X192588250Y-114681000D01*
X191389000Y-114681000D01*
X191135000Y-114681000D01*
X191115000Y-114681000D01*
X191115000Y-114427000D01*
X191135000Y-114427000D01*
X191135000Y-113227750D01*
X191389000Y-113227750D01*
X191389000Y-114427000D01*
X192588250Y-114427000D01*
X192747000Y-114268250D01*
X192747000Y-113577691D01*
X192650327Y-113344302D01*
X192471699Y-113165673D01*
X192238310Y-113069000D01*
X191547750Y-113069000D01*
X191389000Y-113227750D01*
X191135000Y-113227750D01*
X190976250Y-113069000D01*
X190285690Y-113069000D01*
X190052301Y-113165673D01*
X189873673Y-113344302D01*
X189807096Y-113505033D01*
X189792625Y-113483375D01*
X189301418Y-113155161D01*
X188868256Y-113069000D01*
X188575744Y-113069000D01*
X188142582Y-113155161D01*
X187651375Y-113483375D01*
X187452000Y-113781761D01*
X187252625Y-113483375D01*
X186761418Y-113155161D01*
X186328256Y-113069000D01*
X186035744Y-113069000D01*
X185602582Y-113155161D01*
X185111375Y-113483375D01*
X184912000Y-113781761D01*
X184712625Y-113483375D01*
X184221418Y-113155161D01*
X183788256Y-113069000D01*
X183495744Y-113069000D01*
X183062582Y-113155161D01*
X182571375Y-113483375D01*
X182243161Y-113974582D01*
X182127908Y-114554000D01*
X178601281Y-114554000D01*
X178624157Y-114519765D01*
X178673440Y-114272000D01*
X178673440Y-112316126D01*
X211309000Y-112316126D01*
X211309000Y-112727874D01*
X211466569Y-113108280D01*
X211757720Y-113399431D01*
X212138126Y-113557000D01*
X212549874Y-113557000D01*
X212930280Y-113399431D01*
X213047711Y-113282000D01*
X220651153Y-113282000D01*
X220726000Y-113296888D01*
X220748544Y-113292404D01*
X220774126Y-113303000D01*
X221185874Y-113303000D01*
X221566280Y-113145431D01*
X221857431Y-112854280D01*
X222015000Y-112473874D01*
X222015000Y-112062126D01*
X221857431Y-111681720D01*
X221566280Y-111390569D01*
X221185874Y-111233000D01*
X220774126Y-111233000D01*
X220393720Y-111390569D01*
X220102569Y-111681720D01*
X220069316Y-111762000D01*
X213047711Y-111762000D01*
X212930280Y-111644569D01*
X212549874Y-111487000D01*
X212138126Y-111487000D01*
X211757720Y-111644569D01*
X211466569Y-111935720D01*
X211309000Y-112316126D01*
X178673440Y-112316126D01*
X178673440Y-110772000D01*
X178662352Y-110716258D01*
X179119235Y-111173141D01*
X180076132Y-111569500D01*
X181111868Y-111569500D01*
X182068765Y-111173141D01*
X182801141Y-110440765D01*
X183197500Y-109483868D01*
X183197500Y-108448132D01*
X182801141Y-107491235D01*
X182445906Y-107136000D01*
X188715363Y-107136000D01*
X188684918Y-107142056D01*
X188684918Y-107142056D01*
G37*
X188684918Y-107142056D02*
X188222820Y-107450821D01*
X187914056Y-107912919D01*
X187833000Y-108320413D01*
X187833000Y-109611588D01*
X187914056Y-110019082D01*
X188222821Y-110481180D01*
X188684919Y-110789944D01*
X189230000Y-110898368D01*
X189775082Y-110789944D01*
X190237180Y-110481180D01*
X190511580Y-110070511D01*
X190527941Y-110125941D01*
X190871974Y-110551630D01*
X191352723Y-110813260D01*
X191426930Y-110828220D01*
X191643000Y-110705720D01*
X191643000Y-109093000D01*
X191623000Y-109093000D01*
X191623000Y-108839000D01*
X191643000Y-108839000D01*
X191643000Y-108819000D01*
X191897000Y-108819000D01*
X191897000Y-108839000D01*
X191917000Y-108839000D01*
X191917000Y-109093000D01*
X191897000Y-109093000D01*
X191897000Y-110705720D01*
X192113070Y-110828220D01*
X192187277Y-110813260D01*
X192668026Y-110551630D01*
X193012059Y-110125941D01*
X193028420Y-110070511D01*
X193302821Y-110481180D01*
X193764919Y-110789944D01*
X194310000Y-110898368D01*
X194855082Y-110789944D01*
X195317180Y-110481180D01*
X195580000Y-110087842D01*
X195842821Y-110481180D01*
X196304919Y-110789944D01*
X196850000Y-110898368D01*
X197395082Y-110789944D01*
X197857180Y-110481180D01*
X198120000Y-110087842D01*
X198382821Y-110481180D01*
X198844919Y-110789944D01*
X199390000Y-110898368D01*
X199935082Y-110789944D01*
X200397180Y-110481180D01*
X200660000Y-110087842D01*
X200922821Y-110481180D01*
X201384919Y-110789944D01*
X201930000Y-110898368D01*
X202475082Y-110789944D01*
X202937180Y-110481180D01*
X203200000Y-110087842D01*
X203462821Y-110481180D01*
X203924919Y-110789944D01*
X204470000Y-110898368D01*
X205015082Y-110789944D01*
X205477180Y-110481180D01*
X205740000Y-110087842D01*
X206002821Y-110481180D01*
X206464919Y-110789944D01*
X207010000Y-110898368D01*
X207555082Y-110789944D01*
X208017180Y-110481180D01*
X208325944Y-110019082D01*
X208407000Y-109611588D01*
X208407000Y-108320412D01*
X208325944Y-107912918D01*
X208017179Y-107450820D01*
X207555081Y-107142056D01*
X207524636Y-107136000D01*
X210559363Y-107136000D01*
X210528918Y-107142056D01*
X210066820Y-107450821D01*
X209758056Y-107912919D01*
X209677000Y-108320413D01*
X209677000Y-109611588D01*
X209758056Y-110019082D01*
X210066821Y-110481180D01*
X210528919Y-110789944D01*
X211074000Y-110898368D01*
X211619082Y-110789944D01*
X212081180Y-110481180D01*
X212344000Y-110087842D01*
X212606821Y-110481180D01*
X213068919Y-110789944D01*
X213614000Y-110898368D01*
X214159082Y-110789944D01*
X214621180Y-110481180D01*
X214884000Y-110087842D01*
X215146821Y-110481180D01*
X215608919Y-110789944D01*
X216154000Y-110898368D01*
X216699082Y-110789944D01*
X217161180Y-110481180D01*
X217424000Y-110087842D01*
X217686821Y-110481180D01*
X218148919Y-110789944D01*
X218694000Y-110898368D01*
X219239082Y-110789944D01*
X219701180Y-110481180D01*
X219964000Y-110087842D01*
X220226821Y-110481180D01*
X220688919Y-110789944D01*
X221234000Y-110898368D01*
X221779082Y-110789944D01*
X222241180Y-110481180D01*
X222504000Y-110087842D01*
X222766821Y-110481180D01*
X223228919Y-110789944D01*
X223774000Y-110898368D01*
X224319082Y-110789944D01*
X224781180Y-110481180D01*
X225044000Y-110087842D01*
X225306821Y-110481180D01*
X225768919Y-110789944D01*
X226314000Y-110898368D01*
X226859082Y-110789944D01*
X227321180Y-110481180D01*
X227584000Y-110087842D01*
X227846821Y-110481180D01*
X228308919Y-110789944D01*
X228854000Y-110898368D01*
X229399082Y-110789944D01*
X229861180Y-110481180D01*
X230169944Y-110019082D01*
X230251000Y-109611588D01*
X230251000Y-108320412D01*
X230169944Y-107912918D01*
X229861179Y-107450820D01*
X229399081Y-107142056D01*
X229368636Y-107136000D01*
X229829910Y-107136000D01*
X230684000Y-107990091D01*
X230684001Y-119056071D01*
X230670091Y-119126000D01*
X230712154Y-119337463D01*
X230725196Y-119403028D01*
X230882120Y-119637881D01*
X230941402Y-119677492D01*
X233224000Y-121960091D01*
X233224000Y-122354094D01*
X232868765Y-121998859D01*
X231911868Y-121602500D01*
X230876132Y-121602500D01*
X229919235Y-121998859D01*
X229186859Y-122731235D01*
X228790500Y-123688132D01*
X228790500Y-124723868D01*
X229186859Y-125680765D01*
X229919235Y-126413141D01*
X230876132Y-126809500D01*
X231911868Y-126809500D01*
X232868765Y-126413141D01*
X233224000Y-126057906D01*
X233224001Y-150294095D01*
X232868765Y-149938859D01*
X231911868Y-149542500D01*
X230876132Y-149542500D01*
X229919235Y-149938859D01*
X229186859Y-150671235D01*
X228790500Y-151628132D01*
X228790500Y-152663868D01*
X229186859Y-153620765D01*
X229919235Y-154353141D01*
X230876132Y-154749500D01*
X231911868Y-154749500D01*
X232868765Y-154353141D01*
X233224001Y-153997905D01*
X233224001Y-154391908D01*
X230941402Y-156674508D01*
X230882119Y-156714120D01*
X230725195Y-156948973D01*
X230705044Y-157050280D01*
X230670091Y-157226000D01*
X230684000Y-157295925D01*
X230684001Y-159056000D01*
X229368637Y-159056000D01*
X229399082Y-159049944D01*
X229861180Y-158741180D01*
X230169944Y-158279082D01*
X230251000Y-157871588D01*
X230251000Y-156580412D01*
X230169944Y-156172918D01*
X229861179Y-155710820D01*
X229399081Y-155402056D01*
X228932470Y-155309241D01*
X229223431Y-155018280D01*
X229381000Y-154637874D01*
X229381000Y-154226126D01*
X229223431Y-153845720D01*
X228932280Y-153554569D01*
X228551874Y-153397000D01*
X228140126Y-153397000D01*
X227777993Y-153547000D01*
X218959965Y-153547000D01*
X219509487Y-152997478D01*
X219884000Y-152093324D01*
X219884000Y-151114676D01*
X219509487Y-150210522D01*
X219156965Y-149858000D01*
X222048197Y-149858000D01*
X222788669Y-150598473D01*
X222831069Y-150661929D01*
X223082461Y-150829904D01*
X223304146Y-150874000D01*
X223304151Y-150874000D01*
X223378998Y-150888888D01*
X223453845Y-150874000D01*
X225129688Y-150874000D01*
X225139853Y-150898540D01*
X225529460Y-151288147D01*
X226038506Y-151499000D01*
X226589494Y-151499000D01*
X227098540Y-151288147D01*
X227488147Y-150898540D01*
X227699000Y-150389494D01*
X227699000Y-149838506D01*
X227488147Y-149329460D01*
X227098540Y-148939853D01*
X226867130Y-148844000D01*
X227098540Y-148748147D01*
X227488147Y-148358540D01*
X227699000Y-147849494D01*
X227699000Y-147298506D01*
X227488147Y-146789460D01*
X227098540Y-146399853D01*
X226867130Y-146304000D01*
X227098540Y-146208147D01*
X227387687Y-145919000D01*
X227750839Y-145919000D01*
X227838000Y-145936337D01*
X227925161Y-145919000D01*
X227925165Y-145919000D01*
X228183310Y-145867652D01*
X228476049Y-145672049D01*
X228525425Y-145598153D01*
X228570147Y-145553431D01*
X228932280Y-145403431D01*
X229223431Y-145112280D01*
X229381000Y-144731874D01*
X229381000Y-144320126D01*
X229223431Y-143939720D01*
X228932280Y-143648569D01*
X228551874Y-143491000D01*
X228140126Y-143491000D01*
X227759720Y-143648569D01*
X227468569Y-143939720D01*
X227383583Y-144144896D01*
X227098540Y-143859853D01*
X226867130Y-143764000D01*
X227098540Y-143668147D01*
X227488147Y-143278540D01*
X227699000Y-142769494D01*
X227699000Y-142218506D01*
X227488147Y-141709460D01*
X227098540Y-141319853D01*
X226589494Y-141109000D01*
X226038506Y-141109000D01*
X225529460Y-141319853D01*
X225159000Y-141690313D01*
X225159000Y-141509750D01*
X225000250Y-141351000D01*
X223901000Y-141351000D01*
X223901000Y-141371000D01*
X223647000Y-141371000D01*
X223647000Y-141351000D01*
X222547750Y-141351000D01*
X222389000Y-141509750D01*
X222389000Y-142100309D01*
X222485673Y-142333698D01*
X222664301Y-142512327D01*
X222897690Y-142609000D01*
X222970313Y-142609000D01*
X222599853Y-142979460D01*
X222389000Y-143488506D01*
X222389000Y-144039494D01*
X222599853Y-144548540D01*
X222989460Y-144938147D01*
X223220870Y-145034000D01*
X222989460Y-145129853D01*
X222599853Y-145519460D01*
X222389000Y-146028506D01*
X222389000Y-146560000D01*
X221175711Y-146560000D01*
X221058280Y-146442569D01*
X220677874Y-146285000D01*
X220266126Y-146285000D01*
X219885720Y-146442569D01*
X219594569Y-146733720D01*
X219437000Y-147114126D01*
X219437000Y-147525874D01*
X219594569Y-147906280D01*
X219885720Y-148197431D01*
X220225084Y-148338000D01*
X214571711Y-148338000D01*
X214454280Y-148220569D01*
X214073874Y-148063000D01*
X213662126Y-148063000D01*
X213281720Y-148220569D01*
X212990569Y-148511720D01*
X212833000Y-148892126D01*
X212833000Y-149303874D01*
X212990569Y-149684280D01*
X213281720Y-149975431D01*
X213662126Y-150133000D01*
X214073874Y-150133000D01*
X214454280Y-149975431D01*
X214571711Y-149858000D01*
X215691035Y-149858000D01*
X215338513Y-150210522D01*
X214964000Y-151114676D01*
X214964000Y-152093324D01*
X215338513Y-152997478D01*
X215888035Y-153547000D01*
X201482007Y-153547000D01*
X201119874Y-153397000D01*
X200708126Y-153397000D01*
X200345993Y-153547000D01*
X178819052Y-153547000D01*
X179701478Y-153181487D01*
X180393487Y-152489478D01*
X180768000Y-151585324D01*
X180768000Y-150606676D01*
X180393487Y-149702522D01*
X179701478Y-149010513D01*
X178797324Y-148636000D01*
X177818676Y-148636000D01*
X176914522Y-149010513D01*
X176222513Y-149702522D01*
X175848000Y-150606676D01*
X175848000Y-151585324D01*
X176222513Y-152489478D01*
X176914522Y-153181487D01*
X177796948Y-153547000D01*
X167192007Y-153547000D01*
X166829874Y-153397000D01*
X166418126Y-153397000D01*
X166064000Y-153543683D01*
X166064000Y-149891750D01*
X170573000Y-149891750D01*
X170573000Y-150482309D01*
X170669673Y-150715698D01*
X170848301Y-150894327D01*
X171081690Y-150991000D01*
X171672250Y-150991000D01*
X171831000Y-150832250D01*
X171831000Y-149733000D01*
X172085000Y-149733000D01*
X172085000Y-150832250D01*
X172243750Y-150991000D01*
X172834310Y-150991000D01*
X173067699Y-150894327D01*
X173246327Y-150715698D01*
X173343000Y-150482309D01*
X173343000Y-149891750D01*
X173184250Y-149733000D01*
X172085000Y-149733000D01*
X171831000Y-149733000D01*
X170731750Y-149733000D01*
X170573000Y-149891750D01*
X166064000Y-149891750D01*
X166064000Y-146938317D01*
X166418126Y-147085000D01*
X166829874Y-147085000D01*
X167210280Y-146927431D01*
X167456711Y-146681000D01*
X168344313Y-146681000D01*
X168633460Y-146970147D01*
X168864870Y-147066000D01*
X168633460Y-147161853D01*
X168243853Y-147551460D01*
X168033000Y-148060506D01*
X168033000Y-148611494D01*
X168243853Y-149120540D01*
X168633460Y-149510147D01*
X169142506Y-149721000D01*
X169693494Y-149721000D01*
X170202540Y-149510147D01*
X170573000Y-149139687D01*
X170573000Y-149320250D01*
X170731750Y-149479000D01*
X171831000Y-149479000D01*
X171831000Y-149459000D01*
X172085000Y-149459000D01*
X172085000Y-149479000D01*
X173184250Y-149479000D01*
X173343000Y-149320250D01*
X173343000Y-148729691D01*
X173246327Y-148496302D01*
X173067699Y-148317673D01*
X172834310Y-148221000D01*
X172761687Y-148221000D01*
X173132147Y-147850540D01*
X173209000Y-147665000D01*
X173209000Y-148033874D01*
X173366569Y-148414280D01*
X173657720Y-148705431D01*
X174038126Y-148863000D01*
X174449874Y-148863000D01*
X174830280Y-148705431D01*
X174947711Y-148588000D01*
X211253153Y-148588000D01*
X211328000Y-148602888D01*
X211350544Y-148598404D01*
X211376126Y-148609000D01*
X211787874Y-148609000D01*
X212168280Y-148451431D01*
X212459431Y-148160280D01*
X212617000Y-147779874D01*
X212617000Y-147368126D01*
X212459431Y-146987720D01*
X212168280Y-146696569D01*
X211787874Y-146539000D01*
X211376126Y-146539000D01*
X210995720Y-146696569D01*
X210704569Y-146987720D01*
X210671316Y-147068000D01*
X174947711Y-147068000D01*
X174830280Y-146950569D01*
X174449874Y-146793000D01*
X174038126Y-146793000D01*
X173657720Y-146950569D01*
X173366569Y-147241720D01*
X173343000Y-147298621D01*
X173343000Y-146790506D01*
X173132147Y-146281460D01*
X172742540Y-145891853D01*
X172511130Y-145796000D01*
X172742540Y-145700147D01*
X173059648Y-145383039D01*
X192918096Y-145383039D01*
X193078959Y-145771423D01*
X193454866Y-146186389D01*
X193960959Y-146425914D01*
X194183000Y-146304629D01*
X194183000Y-145161000D01*
X194437000Y-145161000D01*
X194437000Y-146304629D01*
X194659041Y-146425914D01*
X195165134Y-146186389D01*
X195541041Y-145771423D01*
X195701904Y-145383039D01*
X195579915Y-145161000D01*
X194437000Y-145161000D01*
X194183000Y-145161000D01*
X193040085Y-145161000D01*
X192918096Y-145383039D01*
X173059648Y-145383039D01*
X173132147Y-145310540D01*
X173343000Y-144801494D01*
X173343000Y-144250506D01*
X173245865Y-144016000D01*
X173540289Y-144016000D01*
X173657720Y-144133431D01*
X174038126Y-144291000D01*
X174449874Y-144291000D01*
X174830280Y-144133431D01*
X175121431Y-143842280D01*
X175279000Y-143461874D01*
X175279000Y-143050126D01*
X175153027Y-142746000D01*
X175823053Y-142746000D01*
X175851069Y-142787929D01*
X175965740Y-142864549D01*
X175747568Y-143082721D01*
X175589999Y-143463127D01*
X175589999Y-143874875D01*
X175747568Y-144255281D01*
X176038719Y-144546432D01*
X176419125Y-144704001D01*
X176830873Y-144704001D01*
X177211279Y-144546432D01*
X177328710Y-144429001D01*
X193024111Y-144429001D01*
X192918096Y-144684961D01*
X193040085Y-144907000D01*
X194183000Y-144907000D01*
X194183000Y-144887000D01*
X194437000Y-144887000D01*
X194437000Y-144907000D01*
X195579915Y-144907000D01*
X195701904Y-144684961D01*
X195595889Y-144429001D01*
X200608388Y-144429001D01*
X200578260Y-144474091D01*
X200466887Y-145034000D01*
X200578260Y-145593909D01*
X200895423Y-146068577D01*
X201370091Y-146385740D01*
X201788667Y-146469000D01*
X202071333Y-146469000D01*
X202489909Y-146385740D01*
X202964577Y-146068577D01*
X203281740Y-145593909D01*
X203393113Y-145034000D01*
X203281740Y-144474091D01*
X202964577Y-143999423D01*
X202612242Y-143764000D01*
X202964577Y-143528577D01*
X203281740Y-143053909D01*
X203393113Y-142494000D01*
X203281740Y-141934091D01*
X202964577Y-141459423D01*
X202612242Y-141224000D01*
X202964577Y-140988577D01*
X203148043Y-140714000D01*
X213164289Y-140714000D01*
X213281720Y-140831431D01*
X213662126Y-140989000D01*
X214073874Y-140989000D01*
X214454280Y-140831431D01*
X214745431Y-140540280D01*
X214903000Y-140159874D01*
X214903000Y-139748126D01*
X214745431Y-139367720D01*
X214454280Y-139076569D01*
X214073874Y-138919000D01*
X213662126Y-138919000D01*
X213281720Y-139076569D01*
X213164289Y-139194000D01*
X203148043Y-139194000D01*
X202964577Y-138919423D01*
X202612242Y-138684000D01*
X202964577Y-138448577D01*
X203148043Y-138174000D01*
X215505035Y-138174000D01*
X215338513Y-138340522D01*
X214964000Y-139244676D01*
X214964000Y-140223324D01*
X215338513Y-141127478D01*
X216030522Y-141819487D01*
X216934676Y-142194000D01*
X217913324Y-142194000D01*
X218817478Y-141819487D01*
X219509487Y-141127478D01*
X219832485Y-140347691D01*
X222389000Y-140347691D01*
X222389000Y-140938250D01*
X222547750Y-141097000D01*
X223647000Y-141097000D01*
X223647000Y-139997750D01*
X223901000Y-139997750D01*
X223901000Y-141097000D01*
X225000250Y-141097000D01*
X225159000Y-140938250D01*
X225159000Y-140347691D01*
X225062327Y-140114302D01*
X224883699Y-139935673D01*
X224650310Y-139839000D01*
X224059750Y-139839000D01*
X223901000Y-139997750D01*
X223647000Y-139997750D01*
X223488250Y-139839000D01*
X222897690Y-139839000D01*
X222664301Y-139935673D01*
X222485673Y-140114302D01*
X222389000Y-140347691D01*
X219832485Y-140347691D01*
X219884000Y-140223324D01*
X219884000Y-139244676D01*
X219509487Y-138340522D01*
X219342965Y-138174000D01*
X225356289Y-138174000D01*
X225473720Y-138291431D01*
X225854126Y-138449000D01*
X226265874Y-138449000D01*
X226646280Y-138291431D01*
X226937431Y-138000280D01*
X227095000Y-137619874D01*
X227095000Y-137208126D01*
X226937431Y-136827720D01*
X226646280Y-136536569D01*
X226265874Y-136379000D01*
X225854126Y-136379000D01*
X225473720Y-136536569D01*
X225356289Y-136654000D01*
X219088965Y-136654000D01*
X219509487Y-136233478D01*
X219884000Y-135329324D01*
X219884000Y-134350676D01*
X219509487Y-133446522D01*
X218902965Y-132840000D01*
X222589688Y-132840000D01*
X222599853Y-132864540D01*
X222989460Y-133254147D01*
X223498506Y-133465000D01*
X224049494Y-133465000D01*
X224558540Y-133254147D01*
X224948147Y-132864540D01*
X225159000Y-132355494D01*
X225159000Y-131804506D01*
X225061865Y-131570000D01*
X225129688Y-131570000D01*
X225139853Y-131594540D01*
X225529460Y-131984147D01*
X225760870Y-132080000D01*
X225529460Y-132175853D01*
X225139853Y-132565460D01*
X224929000Y-133074506D01*
X224929000Y-133625494D01*
X225139853Y-134134540D01*
X225529460Y-134524147D01*
X226038506Y-134735000D01*
X226589494Y-134735000D01*
X227098540Y-134524147D01*
X227488147Y-134134540D01*
X227699000Y-133625494D01*
X227699000Y-133074506D01*
X227488147Y-132565460D01*
X227098540Y-132175853D01*
X226867130Y-132080000D01*
X227098540Y-131984147D01*
X227488147Y-131594540D01*
X227699000Y-131085494D01*
X227699000Y-130534506D01*
X227488147Y-130025460D01*
X227098540Y-129635853D01*
X226867130Y-129540000D01*
X227098540Y-129444147D01*
X227387687Y-129155000D01*
X228766839Y-129155000D01*
X228854000Y-129172337D01*
X228941161Y-129155000D01*
X228941165Y-129155000D01*
X229199310Y-129103652D01*
X229492049Y-128908049D01*
X229541425Y-128834153D01*
X229586147Y-128789431D01*
X229948280Y-128639431D01*
X230239431Y-128348280D01*
X230397000Y-127967874D01*
X230397000Y-127556126D01*
X230239431Y-127175720D01*
X229948280Y-126884569D01*
X229567874Y-126727000D01*
X229156126Y-126727000D01*
X228775720Y-126884569D01*
X228484569Y-127175720D01*
X228397883Y-127385000D01*
X227387687Y-127385000D01*
X227098540Y-127095853D01*
X226867130Y-127000000D01*
X227098540Y-126904147D01*
X227488147Y-126514540D01*
X227699000Y-126005494D01*
X227699000Y-125454506D01*
X227488147Y-124945460D01*
X227098540Y-124555853D01*
X226589494Y-124345000D01*
X226038506Y-124345000D01*
X225529460Y-124555853D01*
X225159000Y-124926313D01*
X225159000Y-124745750D01*
X225000250Y-124587000D01*
X223901000Y-124587000D01*
X223901000Y-124607000D01*
X223647000Y-124607000D01*
X223647000Y-124587000D01*
X222547750Y-124587000D01*
X222389000Y-124745750D01*
X222389000Y-125336309D01*
X222485673Y-125569698D01*
X222664301Y-125748327D01*
X222897690Y-125845000D01*
X222970313Y-125845000D01*
X222599853Y-126215460D01*
X222389000Y-126724506D01*
X222389000Y-127275494D01*
X222599853Y-127784540D01*
X222989460Y-128174147D01*
X223220870Y-128270000D01*
X222989460Y-128365853D01*
X222599853Y-128755460D01*
X222389000Y-129264506D01*
X222389000Y-129542000D01*
X211777711Y-129542000D01*
X211660280Y-129424569D01*
X211279874Y-129267000D01*
X210868126Y-129267000D01*
X210487720Y-129424569D01*
X210196569Y-129715720D01*
X210039000Y-130096126D01*
X210039000Y-130507874D01*
X210196569Y-130888280D01*
X210487720Y-131179431D01*
X210868126Y-131337000D01*
X211279874Y-131337000D01*
X211660280Y-131179431D01*
X211777711Y-131062000D01*
X214129084Y-131062000D01*
X213789720Y-131202569D01*
X213498569Y-131493720D01*
X213341000Y-131874126D01*
X213341000Y-132285874D01*
X213498569Y-132666280D01*
X213789720Y-132957431D01*
X214170126Y-133115000D01*
X214581874Y-133115000D01*
X214962280Y-132957431D01*
X215079711Y-132840000D01*
X215945035Y-132840000D01*
X215338513Y-133446522D01*
X214964000Y-134350676D01*
X214964000Y-135329324D01*
X215338513Y-136233478D01*
X215759035Y-136654000D01*
X203148043Y-136654000D01*
X202964577Y-136379423D01*
X202612242Y-136144000D01*
X202964577Y-135908577D01*
X203281740Y-135433909D01*
X203393113Y-134874000D01*
X203281740Y-134314091D01*
X202964577Y-133839423D01*
X202612242Y-133604000D01*
X202964577Y-133368577D01*
X203281740Y-132893909D01*
X203393113Y-132334000D01*
X203281740Y-131774091D01*
X202964577Y-131299423D01*
X202612242Y-131064000D01*
X202964577Y-130828577D01*
X203281740Y-130353909D01*
X203393113Y-129794000D01*
X203281740Y-129234091D01*
X202964577Y-128759423D01*
X202612242Y-128524000D01*
X202964577Y-128288577D01*
X203281740Y-127813909D01*
X203393113Y-127254000D01*
X203281740Y-126694091D01*
X203145371Y-126490000D01*
X204782289Y-126490000D01*
X204899720Y-126607431D01*
X205280126Y-126765000D01*
X205691874Y-126765000D01*
X206072280Y-126607431D01*
X206363431Y-126316280D01*
X206521000Y-125935874D01*
X206521000Y-125524126D01*
X206363431Y-125143720D01*
X206072280Y-124852569D01*
X205691874Y-124695000D01*
X205280126Y-124695000D01*
X204899720Y-124852569D01*
X204782289Y-124970000D01*
X191514237Y-124970000D01*
X191535000Y-124919874D01*
X191535000Y-124508126D01*
X191377431Y-124127720D01*
X191086280Y-123836569D01*
X190705874Y-123679000D01*
X190294126Y-123679000D01*
X189913720Y-123836569D01*
X189796289Y-123954000D01*
X180294965Y-123954000D01*
X180393487Y-123855478D01*
X180768000Y-122951324D01*
X180768000Y-122480676D01*
X214964000Y-122480676D01*
X214964000Y-123459324D01*
X215338513Y-124363478D01*
X216030522Y-125055487D01*
X216934676Y-125430000D01*
X217913324Y-125430000D01*
X218817478Y-125055487D01*
X219509487Y-124363478D01*
X219832485Y-123583691D01*
X222389000Y-123583691D01*
X222389000Y-124174250D01*
X222547750Y-124333000D01*
X223647000Y-124333000D01*
X223647000Y-123233750D01*
X223901000Y-123233750D01*
X223901000Y-124333000D01*
X225000250Y-124333000D01*
X225159000Y-124174250D01*
X225159000Y-123583691D01*
X225062327Y-123350302D01*
X224883699Y-123171673D01*
X224650310Y-123075000D01*
X224059750Y-123075000D01*
X223901000Y-123233750D01*
X223647000Y-123233750D01*
X223488250Y-123075000D01*
X222897690Y-123075000D01*
X222664301Y-123171673D01*
X222485673Y-123350302D01*
X222389000Y-123583691D01*
X219832485Y-123583691D01*
X219884000Y-123459324D01*
X219884000Y-122480676D01*
X219509487Y-121576522D01*
X218817478Y-120884513D01*
X217913324Y-120510000D01*
X216995711Y-120510000D01*
X217111711Y-120394000D01*
X219561316Y-120394000D01*
X219594569Y-120474280D01*
X219885720Y-120765431D01*
X220266126Y-120923000D01*
X220677874Y-120923000D01*
X221058280Y-120765431D01*
X221349431Y-120474280D01*
X221507000Y-120093874D01*
X221507000Y-119682126D01*
X221349431Y-119301720D01*
X221058280Y-119010569D01*
X220677874Y-118853000D01*
X220266126Y-118853000D01*
X220240544Y-118863596D01*
X220218000Y-118859112D01*
X220143153Y-118874000D01*
X217111711Y-118874000D01*
X216994280Y-118756569D01*
X216613874Y-118599000D01*
X216202126Y-118599000D01*
X215821720Y-118756569D01*
X215530569Y-119047720D01*
X215373000Y-119428126D01*
X215373000Y-119839874D01*
X215530569Y-120220280D01*
X215821720Y-120511431D01*
X216202126Y-120669000D01*
X216550816Y-120669000D01*
X216030522Y-120884513D01*
X215338513Y-121576522D01*
X214964000Y-122480676D01*
X180768000Y-122480676D01*
X180768000Y-121972676D01*
X180393487Y-121068522D01*
X179972965Y-120648000D01*
X203766289Y-120648000D01*
X203883720Y-120765431D01*
X204264126Y-120923000D01*
X204675874Y-120923000D01*
X205056280Y-120765431D01*
X205347431Y-120474280D01*
X205505000Y-120093874D01*
X205505000Y-119682126D01*
X205347431Y-119301720D01*
X205056280Y-119010569D01*
X204675874Y-118853000D01*
X204264126Y-118853000D01*
X203883720Y-119010569D01*
X203766289Y-119128000D01*
X175642410Y-119128000D01*
X175673440Y-118972000D01*
X175673440Y-117396126D01*
X190735000Y-117396126D01*
X190735000Y-117807874D01*
X190892569Y-118188280D01*
X191183720Y-118479431D01*
X191564126Y-118637000D01*
X191975874Y-118637000D01*
X192356280Y-118479431D01*
X192473711Y-118362000D01*
X222937153Y-118362000D01*
X223012000Y-118376888D01*
X223034544Y-118372404D01*
X223060126Y-118383000D01*
X223471874Y-118383000D01*
X223852280Y-118225431D01*
X224143431Y-117934280D01*
X224301000Y-117553874D01*
X224301000Y-117142126D01*
X224143431Y-116761720D01*
X223852280Y-116470569D01*
X223471874Y-116313000D01*
X223060126Y-116313000D01*
X222679720Y-116470569D01*
X222388569Y-116761720D01*
X222355316Y-116842000D01*
X192473711Y-116842000D01*
X192356280Y-116724569D01*
X191975874Y-116567000D01*
X191564126Y-116567000D01*
X191183720Y-116724569D01*
X190892569Y-117015720D01*
X190735000Y-117396126D01*
X175673440Y-117396126D01*
X175673440Y-115472000D01*
X175624157Y-115224235D01*
X175483809Y-115014191D01*
X175342005Y-114919440D01*
X178026000Y-114919440D01*
X178273765Y-114870157D01*
X178483809Y-114729809D01*
X178601281Y-114554000D01*
X182127908Y-114554000D01*
X182243161Y-115133418D01*
X182571375Y-115624625D01*
X183062582Y-115952839D01*
X183495744Y-116039000D01*
X183788256Y-116039000D01*
X184221418Y-115952839D01*
X184712625Y-115624625D01*
X184912000Y-115326239D01*
X185111375Y-115624625D01*
X185602582Y-115952839D01*
X186035744Y-116039000D01*
X186328256Y-116039000D01*
X186761418Y-115952839D01*
X187252625Y-115624625D01*
X187452000Y-115326239D01*
X187651375Y-115624625D01*
X188142582Y-115952839D01*
X188575744Y-116039000D01*
X188868256Y-116039000D01*
X189301418Y-115952839D01*
X189792625Y-115624625D01*
X189807096Y-115602967D01*
X189873673Y-115763698D01*
X190052301Y-115942327D01*
X190285690Y-116039000D01*
X190976250Y-116039000D01*
X191135000Y-115880250D01*
X191135000Y-114681000D01*
X191389000Y-114681000D01*
X191389000Y-115880250D01*
X191547750Y-116039000D01*
X192238310Y-116039000D01*
X192471699Y-115942327D01*
X192650327Y-115763698D01*
X192747000Y-115530309D01*
X192747000Y-114839750D01*
X192588250Y-114681000D01*
X191389000Y-114681000D01*
X191135000Y-114681000D01*
X191115000Y-114681000D01*
X191115000Y-114427000D01*
X191135000Y-114427000D01*
X191135000Y-113227750D01*
X191389000Y-113227750D01*
X191389000Y-114427000D01*
X192588250Y-114427000D01*
X192747000Y-114268250D01*
X192747000Y-113577691D01*
X192650327Y-113344302D01*
X192471699Y-113165673D01*
X192238310Y-113069000D01*
X191547750Y-113069000D01*
X191389000Y-113227750D01*
X191135000Y-113227750D01*
X190976250Y-113069000D01*
X190285690Y-113069000D01*
X190052301Y-113165673D01*
X189873673Y-113344302D01*
X189807096Y-113505033D01*
X189792625Y-113483375D01*
X189301418Y-113155161D01*
X188868256Y-113069000D01*
X188575744Y-113069000D01*
X188142582Y-113155161D01*
X187651375Y-113483375D01*
X187452000Y-113781761D01*
X187252625Y-113483375D01*
X186761418Y-113155161D01*
X186328256Y-113069000D01*
X186035744Y-113069000D01*
X185602582Y-113155161D01*
X185111375Y-113483375D01*
X184912000Y-113781761D01*
X184712625Y-113483375D01*
X184221418Y-113155161D01*
X183788256Y-113069000D01*
X183495744Y-113069000D01*
X183062582Y-113155161D01*
X182571375Y-113483375D01*
X182243161Y-113974582D01*
X182127908Y-114554000D01*
X178601281Y-114554000D01*
X178624157Y-114519765D01*
X178673440Y-114272000D01*
X178673440Y-112316126D01*
X211309000Y-112316126D01*
X211309000Y-112727874D01*
X211466569Y-113108280D01*
X211757720Y-113399431D01*
X212138126Y-113557000D01*
X212549874Y-113557000D01*
X212930280Y-113399431D01*
X213047711Y-113282000D01*
X220651153Y-113282000D01*
X220726000Y-113296888D01*
X220748544Y-113292404D01*
X220774126Y-113303000D01*
X221185874Y-113303000D01*
X221566280Y-113145431D01*
X221857431Y-112854280D01*
X222015000Y-112473874D01*
X222015000Y-112062126D01*
X221857431Y-111681720D01*
X221566280Y-111390569D01*
X221185874Y-111233000D01*
X220774126Y-111233000D01*
X220393720Y-111390569D01*
X220102569Y-111681720D01*
X220069316Y-111762000D01*
X213047711Y-111762000D01*
X212930280Y-111644569D01*
X212549874Y-111487000D01*
X212138126Y-111487000D01*
X211757720Y-111644569D01*
X211466569Y-111935720D01*
X211309000Y-112316126D01*
X178673440Y-112316126D01*
X178673440Y-110772000D01*
X178662352Y-110716258D01*
X179119235Y-111173141D01*
X180076132Y-111569500D01*
X181111868Y-111569500D01*
X182068765Y-111173141D01*
X182801141Y-110440765D01*
X183197500Y-109483868D01*
X183197500Y-108448132D01*
X182801141Y-107491235D01*
X182445906Y-107136000D01*
X188715363Y-107136000D01*
X188684918Y-107142056D01*
G36*
X210528918Y-155402056D02*
X210066820Y-155710821D01*
X209792420Y-156121490D01*
X209776059Y-156066059D01*
X209432026Y-155640370D01*
X208951277Y-155378740D01*
X208877070Y-155363780D01*
X208661000Y-155486280D01*
X208661000Y-157099000D01*
X208681000Y-157099000D01*
X208681000Y-157353000D01*
X208661000Y-157353000D01*
X208661000Y-157373000D01*
X208407000Y-157373000D01*
X208407000Y-157353000D01*
X206121000Y-157353000D01*
X206121000Y-157373000D01*
X205867000Y-157373000D01*
X205867000Y-157353000D01*
X205847000Y-157353000D01*
X205847000Y-157099000D01*
X205867000Y-157099000D01*
X205867000Y-155486280D01*
X206121000Y-155486280D01*
X206121000Y-157099000D01*
X208407000Y-157099000D01*
X208407000Y-155486280D01*
X208190930Y-155363780D01*
X208116723Y-155378740D01*
X207635974Y-155640370D01*
X207291941Y-156066059D01*
X207264000Y-156160723D01*
X207236059Y-156066059D01*
X206892026Y-155640370D01*
X206411277Y-155378740D01*
X206337070Y-155363780D01*
X206121000Y-155486280D01*
X205867000Y-155486280D01*
X205650930Y-155363780D01*
X205576723Y-155378740D01*
X205095974Y-155640370D01*
X204751941Y-156066059D01*
X204735580Y-156121489D01*
X204461179Y-155710820D01*
X203999081Y-155402056D01*
X203571478Y-155317000D01*
X210956522Y-155317000D01*
X210528918Y-155402056D01*
X210528918Y-155402056D01*
G37*
X210528918Y-155402056D02*
X210066820Y-155710821D01*
X209792420Y-156121490D01*
X209776059Y-156066059D01*
X209432026Y-155640370D01*
X208951277Y-155378740D01*
X208877070Y-155363780D01*
X208661000Y-155486280D01*
X208661000Y-157099000D01*
X208681000Y-157099000D01*
X208681000Y-157353000D01*
X208661000Y-157353000D01*
X208661000Y-157373000D01*
X208407000Y-157373000D01*
X208407000Y-157353000D01*
X206121000Y-157353000D01*
X206121000Y-157373000D01*
X205867000Y-157373000D01*
X205867000Y-157353000D01*
X205847000Y-157353000D01*
X205847000Y-157099000D01*
X205867000Y-157099000D01*
X205867000Y-155486280D01*
X206121000Y-155486280D01*
X206121000Y-157099000D01*
X208407000Y-157099000D01*
X208407000Y-155486280D01*
X208190930Y-155363780D01*
X208116723Y-155378740D01*
X207635974Y-155640370D01*
X207291941Y-156066059D01*
X207264000Y-156160723D01*
X207236059Y-156066059D01*
X206892026Y-155640370D01*
X206411277Y-155378740D01*
X206337070Y-155363780D01*
X206121000Y-155486280D01*
X205867000Y-155486280D01*
X205650930Y-155363780D01*
X205576723Y-155378740D01*
X205095974Y-155640370D01*
X204751941Y-156066059D01*
X204735580Y-156121489D01*
X204461179Y-155710820D01*
X203999081Y-155402056D01*
X203571478Y-155317000D01*
X210956522Y-155317000D01*
X210528918Y-155402056D01*
G36*
X189778670Y-126214475D02*
X189821069Y-126277929D01*
X189884522Y-126320327D01*
X189884524Y-126320329D01*
X189969339Y-126377000D01*
X190072461Y-126445904D01*
X190294146Y-126490000D01*
X190294150Y-126490000D01*
X190368997Y-126504888D01*
X190443844Y-126490000D01*
X192862560Y-126490000D01*
X192862560Y-128054000D01*
X192911843Y-128301765D01*
X193052191Y-128511809D01*
X193262235Y-128652157D01*
X193396106Y-128678785D01*
X193275423Y-128759423D01*
X192958260Y-129234091D01*
X192846887Y-129794000D01*
X192958260Y-130353909D01*
X193275423Y-130828577D01*
X193627758Y-131064000D01*
X193275423Y-131299423D01*
X192958260Y-131774091D01*
X192846887Y-132334000D01*
X192929436Y-132749001D01*
X191362712Y-132749001D01*
X191340280Y-132726569D01*
X190959874Y-132569000D01*
X190548126Y-132569000D01*
X190167720Y-132726569D01*
X189876569Y-133017720D01*
X189719000Y-133398126D01*
X189719000Y-133809874D01*
X189876569Y-134190280D01*
X190167720Y-134481431D01*
X190548126Y-134639000D01*
X190959874Y-134639000D01*
X191340280Y-134481431D01*
X191552710Y-134269001D01*
X192988388Y-134269001D01*
X192958260Y-134314091D01*
X192846887Y-134874000D01*
X192958260Y-135433909D01*
X193275423Y-135908577D01*
X193627758Y-136144000D01*
X193275423Y-136379423D01*
X192958260Y-136854091D01*
X192846887Y-137414000D01*
X192958260Y-137973909D01*
X193275423Y-138448577D01*
X193627758Y-138684000D01*
X193275423Y-138919423D01*
X192958260Y-139394091D01*
X192846887Y-139954000D01*
X192958260Y-140513909D01*
X193275423Y-140988577D01*
X193627758Y-141224000D01*
X193275423Y-141459423D01*
X192958260Y-141934091D01*
X192846887Y-142494000D01*
X192929436Y-142909001D01*
X192310710Y-142909001D01*
X192393431Y-142826280D01*
X192551000Y-142445874D01*
X192551000Y-142034126D01*
X192393431Y-141653720D01*
X192102280Y-141362569D01*
X191721874Y-141205000D01*
X191310126Y-141205000D01*
X190929720Y-141362569D01*
X190812289Y-141480000D01*
X179294652Y-141480000D01*
X179701478Y-141311487D01*
X180393487Y-140619478D01*
X180768000Y-139715324D01*
X180768000Y-138736676D01*
X180393487Y-137832522D01*
X179701478Y-137140513D01*
X178828709Y-136779000D01*
X179701478Y-136417487D01*
X180393487Y-135725478D01*
X180768000Y-134821324D01*
X180768000Y-133842676D01*
X180393487Y-132938522D01*
X179701478Y-132246513D01*
X178797324Y-131872000D01*
X177818676Y-131872000D01*
X176914522Y-132246513D01*
X176222513Y-132938522D01*
X175848000Y-133842676D01*
X175848000Y-134821324D01*
X176222513Y-135725478D01*
X176914522Y-136417487D01*
X177787291Y-136779000D01*
X176914522Y-137140513D01*
X176222513Y-137832522D01*
X175848000Y-138736676D01*
X175848000Y-139715324D01*
X175947650Y-139955901D01*
X175947153Y-139956000D01*
X170602312Y-139956000D01*
X170592147Y-139931460D01*
X170202540Y-139541853D01*
X169693494Y-139331000D01*
X169142506Y-139331000D01*
X168633460Y-139541853D01*
X168243853Y-139931460D01*
X168033000Y-140440506D01*
X168033000Y-140991494D01*
X168243853Y-141500540D01*
X168633460Y-141890147D01*
X168864870Y-141986000D01*
X168633460Y-142081853D01*
X168243853Y-142471460D01*
X168033000Y-142980506D01*
X168033000Y-143531494D01*
X168243853Y-144040540D01*
X168633460Y-144430147D01*
X168864870Y-144526000D01*
X168633460Y-144621853D01*
X168344313Y-144911000D01*
X166965159Y-144911000D01*
X166877999Y-144893663D01*
X166790840Y-144911000D01*
X166790835Y-144911000D01*
X166532690Y-144962348D01*
X166453891Y-145015000D01*
X166418126Y-145015000D01*
X166064000Y-145161683D01*
X166064000Y-133127750D01*
X170573000Y-133127750D01*
X170573000Y-133718309D01*
X170669673Y-133951698D01*
X170848301Y-134130327D01*
X171081690Y-134227000D01*
X171672250Y-134227000D01*
X171831000Y-134068250D01*
X171831000Y-132969000D01*
X172085000Y-132969000D01*
X172085000Y-134068250D01*
X172243750Y-134227000D01*
X172834310Y-134227000D01*
X173067699Y-134130327D01*
X173246327Y-133951698D01*
X173343000Y-133718309D01*
X173343000Y-133127750D01*
X173184250Y-132969000D01*
X172085000Y-132969000D01*
X171831000Y-132969000D01*
X170731750Y-132969000D01*
X170573000Y-133127750D01*
X166064000Y-133127750D01*
X166064000Y-130174317D01*
X166418126Y-130321000D01*
X166829874Y-130321000D01*
X167192007Y-130171000D01*
X168598313Y-130171000D01*
X168633460Y-130206147D01*
X168864870Y-130302000D01*
X168633460Y-130397853D01*
X168243853Y-130787460D01*
X168033000Y-131296506D01*
X168033000Y-131847494D01*
X168243853Y-132356540D01*
X168633460Y-132746147D01*
X169142506Y-132957000D01*
X169693494Y-132957000D01*
X170202540Y-132746147D01*
X170573000Y-132375687D01*
X170573000Y-132556250D01*
X170731750Y-132715000D01*
X171831000Y-132715000D01*
X171831000Y-132695000D01*
X172085000Y-132695000D01*
X172085000Y-132715000D01*
X173184250Y-132715000D01*
X173343000Y-132556250D01*
X173343000Y-131965691D01*
X173246327Y-131732302D01*
X173067699Y-131553673D01*
X172834310Y-131457000D01*
X172761687Y-131457000D01*
X173132147Y-131086540D01*
X173343000Y-130577494D01*
X173343000Y-130026506D01*
X173297641Y-129917000D01*
X174156839Y-129917000D01*
X174244000Y-129934337D01*
X174331161Y-129917000D01*
X174331165Y-129917000D01*
X174589310Y-129865652D01*
X174668109Y-129813000D01*
X174703874Y-129813000D01*
X175066007Y-129663000D01*
X183073993Y-129663000D01*
X183436126Y-129813000D01*
X183847874Y-129813000D01*
X184228280Y-129655431D01*
X184519431Y-129364280D01*
X184677000Y-128983874D01*
X184677000Y-128572126D01*
X184519431Y-128191720D01*
X184228280Y-127900569D01*
X183847874Y-127743000D01*
X183436126Y-127743000D01*
X183073993Y-127893000D01*
X175066007Y-127893000D01*
X174703874Y-127743000D01*
X174292126Y-127743000D01*
X173911720Y-127900569D01*
X173665289Y-128147000D01*
X173297641Y-128147000D01*
X173343000Y-128037494D01*
X173343000Y-127486506D01*
X173132147Y-126977460D01*
X172742540Y-126587853D01*
X172511130Y-126492000D01*
X172742540Y-126396147D01*
X173132147Y-126006540D01*
X173142312Y-125982000D01*
X189546196Y-125982000D01*
X189778670Y-126214475D01*
X189778670Y-126214475D01*
G37*
X189778670Y-126214475D02*
X189821069Y-126277929D01*
X189884522Y-126320327D01*
X189884524Y-126320329D01*
X189969339Y-126377000D01*
X190072461Y-126445904D01*
X190294146Y-126490000D01*
X190294150Y-126490000D01*
X190368997Y-126504888D01*
X190443844Y-126490000D01*
X192862560Y-126490000D01*
X192862560Y-128054000D01*
X192911843Y-128301765D01*
X193052191Y-128511809D01*
X193262235Y-128652157D01*
X193396106Y-128678785D01*
X193275423Y-128759423D01*
X192958260Y-129234091D01*
X192846887Y-129794000D01*
X192958260Y-130353909D01*
X193275423Y-130828577D01*
X193627758Y-131064000D01*
X193275423Y-131299423D01*
X192958260Y-131774091D01*
X192846887Y-132334000D01*
X192929436Y-132749001D01*
X191362712Y-132749001D01*
X191340280Y-132726569D01*
X190959874Y-132569000D01*
X190548126Y-132569000D01*
X190167720Y-132726569D01*
X189876569Y-133017720D01*
X189719000Y-133398126D01*
X189719000Y-133809874D01*
X189876569Y-134190280D01*
X190167720Y-134481431D01*
X190548126Y-134639000D01*
X190959874Y-134639000D01*
X191340280Y-134481431D01*
X191552710Y-134269001D01*
X192988388Y-134269001D01*
X192958260Y-134314091D01*
X192846887Y-134874000D01*
X192958260Y-135433909D01*
X193275423Y-135908577D01*
X193627758Y-136144000D01*
X193275423Y-136379423D01*
X192958260Y-136854091D01*
X192846887Y-137414000D01*
X192958260Y-137973909D01*
X193275423Y-138448577D01*
X193627758Y-138684000D01*
X193275423Y-138919423D01*
X192958260Y-139394091D01*
X192846887Y-139954000D01*
X192958260Y-140513909D01*
X193275423Y-140988577D01*
X193627758Y-141224000D01*
X193275423Y-141459423D01*
X192958260Y-141934091D01*
X192846887Y-142494000D01*
X192929436Y-142909001D01*
X192310710Y-142909001D01*
X192393431Y-142826280D01*
X192551000Y-142445874D01*
X192551000Y-142034126D01*
X192393431Y-141653720D01*
X192102280Y-141362569D01*
X191721874Y-141205000D01*
X191310126Y-141205000D01*
X190929720Y-141362569D01*
X190812289Y-141480000D01*
X179294652Y-141480000D01*
X179701478Y-141311487D01*
X180393487Y-140619478D01*
X180768000Y-139715324D01*
X180768000Y-138736676D01*
X180393487Y-137832522D01*
X179701478Y-137140513D01*
X178828709Y-136779000D01*
X179701478Y-136417487D01*
X180393487Y-135725478D01*
X180768000Y-134821324D01*
X180768000Y-133842676D01*
X180393487Y-132938522D01*
X179701478Y-132246513D01*
X178797324Y-131872000D01*
X177818676Y-131872000D01*
X176914522Y-132246513D01*
X176222513Y-132938522D01*
X175848000Y-133842676D01*
X175848000Y-134821324D01*
X176222513Y-135725478D01*
X176914522Y-136417487D01*
X177787291Y-136779000D01*
X176914522Y-137140513D01*
X176222513Y-137832522D01*
X175848000Y-138736676D01*
X175848000Y-139715324D01*
X175947650Y-139955901D01*
X175947153Y-139956000D01*
X170602312Y-139956000D01*
X170592147Y-139931460D01*
X170202540Y-139541853D01*
X169693494Y-139331000D01*
X169142506Y-139331000D01*
X168633460Y-139541853D01*
X168243853Y-139931460D01*
X168033000Y-140440506D01*
X168033000Y-140991494D01*
X168243853Y-141500540D01*
X168633460Y-141890147D01*
X168864870Y-141986000D01*
X168633460Y-142081853D01*
X168243853Y-142471460D01*
X168033000Y-142980506D01*
X168033000Y-143531494D01*
X168243853Y-144040540D01*
X168633460Y-144430147D01*
X168864870Y-144526000D01*
X168633460Y-144621853D01*
X168344313Y-144911000D01*
X166965159Y-144911000D01*
X166877999Y-144893663D01*
X166790840Y-144911000D01*
X166790835Y-144911000D01*
X166532690Y-144962348D01*
X166453891Y-145015000D01*
X166418126Y-145015000D01*
X166064000Y-145161683D01*
X166064000Y-133127750D01*
X170573000Y-133127750D01*
X170573000Y-133718309D01*
X170669673Y-133951698D01*
X170848301Y-134130327D01*
X171081690Y-134227000D01*
X171672250Y-134227000D01*
X171831000Y-134068250D01*
X171831000Y-132969000D01*
X172085000Y-132969000D01*
X172085000Y-134068250D01*
X172243750Y-134227000D01*
X172834310Y-134227000D01*
X173067699Y-134130327D01*
X173246327Y-133951698D01*
X173343000Y-133718309D01*
X173343000Y-133127750D01*
X173184250Y-132969000D01*
X172085000Y-132969000D01*
X171831000Y-132969000D01*
X170731750Y-132969000D01*
X170573000Y-133127750D01*
X166064000Y-133127750D01*
X166064000Y-130174317D01*
X166418126Y-130321000D01*
X166829874Y-130321000D01*
X167192007Y-130171000D01*
X168598313Y-130171000D01*
X168633460Y-130206147D01*
X168864870Y-130302000D01*
X168633460Y-130397853D01*
X168243853Y-130787460D01*
X168033000Y-131296506D01*
X168033000Y-131847494D01*
X168243853Y-132356540D01*
X168633460Y-132746147D01*
X169142506Y-132957000D01*
X169693494Y-132957000D01*
X170202540Y-132746147D01*
X170573000Y-132375687D01*
X170573000Y-132556250D01*
X170731750Y-132715000D01*
X171831000Y-132715000D01*
X171831000Y-132695000D01*
X172085000Y-132695000D01*
X172085000Y-132715000D01*
X173184250Y-132715000D01*
X173343000Y-132556250D01*
X173343000Y-131965691D01*
X173246327Y-131732302D01*
X173067699Y-131553673D01*
X172834310Y-131457000D01*
X172761687Y-131457000D01*
X173132147Y-131086540D01*
X173343000Y-130577494D01*
X173343000Y-130026506D01*
X173297641Y-129917000D01*
X174156839Y-129917000D01*
X174244000Y-129934337D01*
X174331161Y-129917000D01*
X174331165Y-129917000D01*
X174589310Y-129865652D01*
X174668109Y-129813000D01*
X174703874Y-129813000D01*
X175066007Y-129663000D01*
X183073993Y-129663000D01*
X183436126Y-129813000D01*
X183847874Y-129813000D01*
X184228280Y-129655431D01*
X184519431Y-129364280D01*
X184677000Y-128983874D01*
X184677000Y-128572126D01*
X184519431Y-128191720D01*
X184228280Y-127900569D01*
X183847874Y-127743000D01*
X183436126Y-127743000D01*
X183073993Y-127893000D01*
X175066007Y-127893000D01*
X174703874Y-127743000D01*
X174292126Y-127743000D01*
X173911720Y-127900569D01*
X173665289Y-128147000D01*
X173297641Y-128147000D01*
X173343000Y-128037494D01*
X173343000Y-127486506D01*
X173132147Y-126977460D01*
X172742540Y-126587853D01*
X172511130Y-126492000D01*
X172742540Y-126396147D01*
X173132147Y-126006540D01*
X173142312Y-125982000D01*
X189546196Y-125982000D01*
X189778670Y-126214475D01*
G36*
X178386859Y-107491235D02*
X177990500Y-108448132D01*
X177990500Y-109483868D01*
X178277265Y-110176182D01*
X178273765Y-110173843D01*
X178026000Y-110124560D01*
X174526000Y-110124560D01*
X174278235Y-110173843D01*
X174068191Y-110314191D01*
X173927843Y-110524235D01*
X173878560Y-110772000D01*
X173878560Y-114272000D01*
X173927843Y-114519765D01*
X174068191Y-114729809D01*
X174209995Y-114824560D01*
X172351337Y-114824560D01*
X172385698Y-114810327D01*
X172564327Y-114631699D01*
X172661000Y-114398310D01*
X172661000Y-112807750D01*
X172502250Y-112649000D01*
X170403000Y-112649000D01*
X170403000Y-114748250D01*
X170561750Y-114907000D01*
X171228612Y-114907000D01*
X171068191Y-115014191D01*
X170927843Y-115224235D01*
X170878560Y-115472000D01*
X170878560Y-118972000D01*
X170909590Y-119128000D01*
X167835711Y-119128000D01*
X167718280Y-119010569D01*
X167337874Y-118853000D01*
X166926126Y-118853000D01*
X166545720Y-119010569D01*
X166254569Y-119301720D01*
X166097000Y-119682126D01*
X166097000Y-120093874D01*
X166254569Y-120474280D01*
X166545720Y-120765431D01*
X166926126Y-120923000D01*
X167337874Y-120923000D01*
X167718280Y-120765431D01*
X167835711Y-120648000D01*
X176643035Y-120648000D01*
X176222513Y-121068522D01*
X175848000Y-121972676D01*
X175848000Y-122951324D01*
X176222513Y-123855478D01*
X176321035Y-123954000D01*
X173397803Y-123954000D01*
X172911332Y-123467530D01*
X172868930Y-123404071D01*
X172617538Y-123236096D01*
X172395853Y-123192000D01*
X172395848Y-123192000D01*
X172321001Y-123177112D01*
X172246154Y-123192000D01*
X170602312Y-123192000D01*
X170592147Y-123167460D01*
X170202540Y-122777853D01*
X169693494Y-122567000D01*
X169142506Y-122567000D01*
X168633460Y-122777853D01*
X168243853Y-123167460D01*
X168033000Y-123676506D01*
X168033000Y-124227494D01*
X168243853Y-124736540D01*
X168633460Y-125126147D01*
X168864870Y-125222000D01*
X168633460Y-125317853D01*
X168243853Y-125707460D01*
X168233688Y-125732000D01*
X168208802Y-125732000D01*
X168167000Y-125690198D01*
X168167000Y-125524126D01*
X168009431Y-125143720D01*
X167718280Y-124852569D01*
X167337874Y-124695000D01*
X166926126Y-124695000D01*
X166545720Y-124852569D01*
X166254569Y-125143720D01*
X166097000Y-125524126D01*
X166097000Y-125935874D01*
X166254569Y-126316280D01*
X166545720Y-126607431D01*
X166926126Y-126765000D01*
X167092198Y-126765000D01*
X167303671Y-126976473D01*
X167346071Y-127039929D01*
X167409527Y-127082329D01*
X167597462Y-127207904D01*
X167645605Y-127217480D01*
X167819148Y-127252000D01*
X167819152Y-127252000D01*
X167894000Y-127266888D01*
X167968848Y-127252000D01*
X168233688Y-127252000D01*
X168243853Y-127276540D01*
X168633460Y-127666147D01*
X168864870Y-127762000D01*
X168633460Y-127857853D01*
X168243853Y-128247460D01*
X168180255Y-128401000D01*
X167192007Y-128401000D01*
X166829874Y-128251000D01*
X166418126Y-128251000D01*
X166064000Y-128397683D01*
X166064000Y-112807750D01*
X167891000Y-112807750D01*
X167891000Y-114398310D01*
X167987673Y-114631699D01*
X168166302Y-114810327D01*
X168399691Y-114907000D01*
X169990250Y-114907000D01*
X170149000Y-114748250D01*
X170149000Y-112649000D01*
X168049750Y-112649000D01*
X167891000Y-112807750D01*
X166064000Y-112807750D01*
X166064000Y-110645690D01*
X167891000Y-110645690D01*
X167891000Y-112236250D01*
X168049750Y-112395000D01*
X170149000Y-112395000D01*
X170149000Y-110295750D01*
X170403000Y-110295750D01*
X170403000Y-112395000D01*
X172502250Y-112395000D01*
X172661000Y-112236250D01*
X172661000Y-110645690D01*
X172564327Y-110412301D01*
X172385698Y-110233673D01*
X172152309Y-110137000D01*
X170561750Y-110137000D01*
X170403000Y-110295750D01*
X170149000Y-110295750D01*
X169990250Y-110137000D01*
X168399691Y-110137000D01*
X168166302Y-110233673D01*
X167987673Y-110412301D01*
X167891000Y-110645690D01*
X166064000Y-110645690D01*
X166064000Y-107136000D01*
X178742094Y-107136000D01*
X178386859Y-107491235D01*
X178386859Y-107491235D01*
G37*
X178386859Y-107491235D02*
X177990500Y-108448132D01*
X177990500Y-109483868D01*
X178277265Y-110176182D01*
X178273765Y-110173843D01*
X178026000Y-110124560D01*
X174526000Y-110124560D01*
X174278235Y-110173843D01*
X174068191Y-110314191D01*
X173927843Y-110524235D01*
X173878560Y-110772000D01*
X173878560Y-114272000D01*
X173927843Y-114519765D01*
X174068191Y-114729809D01*
X174209995Y-114824560D01*
X172351337Y-114824560D01*
X172385698Y-114810327D01*
X172564327Y-114631699D01*
X172661000Y-114398310D01*
X172661000Y-112807750D01*
X172502250Y-112649000D01*
X170403000Y-112649000D01*
X170403000Y-114748250D01*
X170561750Y-114907000D01*
X171228612Y-114907000D01*
X171068191Y-115014191D01*
X170927843Y-115224235D01*
X170878560Y-115472000D01*
X170878560Y-118972000D01*
X170909590Y-119128000D01*
X167835711Y-119128000D01*
X167718280Y-119010569D01*
X167337874Y-118853000D01*
X166926126Y-118853000D01*
X166545720Y-119010569D01*
X166254569Y-119301720D01*
X166097000Y-119682126D01*
X166097000Y-120093874D01*
X166254569Y-120474280D01*
X166545720Y-120765431D01*
X166926126Y-120923000D01*
X167337874Y-120923000D01*
X167718280Y-120765431D01*
X167835711Y-120648000D01*
X176643035Y-120648000D01*
X176222513Y-121068522D01*
X175848000Y-121972676D01*
X175848000Y-122951324D01*
X176222513Y-123855478D01*
X176321035Y-123954000D01*
X173397803Y-123954000D01*
X172911332Y-123467530D01*
X172868930Y-123404071D01*
X172617538Y-123236096D01*
X172395853Y-123192000D01*
X172395848Y-123192000D01*
X172321001Y-123177112D01*
X172246154Y-123192000D01*
X170602312Y-123192000D01*
X170592147Y-123167460D01*
X170202540Y-122777853D01*
X169693494Y-122567000D01*
X169142506Y-122567000D01*
X168633460Y-122777853D01*
X168243853Y-123167460D01*
X168033000Y-123676506D01*
X168033000Y-124227494D01*
X168243853Y-124736540D01*
X168633460Y-125126147D01*
X168864870Y-125222000D01*
X168633460Y-125317853D01*
X168243853Y-125707460D01*
X168233688Y-125732000D01*
X168208802Y-125732000D01*
X168167000Y-125690198D01*
X168167000Y-125524126D01*
X168009431Y-125143720D01*
X167718280Y-124852569D01*
X167337874Y-124695000D01*
X166926126Y-124695000D01*
X166545720Y-124852569D01*
X166254569Y-125143720D01*
X166097000Y-125524126D01*
X166097000Y-125935874D01*
X166254569Y-126316280D01*
X166545720Y-126607431D01*
X166926126Y-126765000D01*
X167092198Y-126765000D01*
X167303671Y-126976473D01*
X167346071Y-127039929D01*
X167409527Y-127082329D01*
X167597462Y-127207904D01*
X167645605Y-127217480D01*
X167819148Y-127252000D01*
X167819152Y-127252000D01*
X167894000Y-127266888D01*
X167968848Y-127252000D01*
X168233688Y-127252000D01*
X168243853Y-127276540D01*
X168633460Y-127666147D01*
X168864870Y-127762000D01*
X168633460Y-127857853D01*
X168243853Y-128247460D01*
X168180255Y-128401000D01*
X167192007Y-128401000D01*
X166829874Y-128251000D01*
X166418126Y-128251000D01*
X166064000Y-128397683D01*
X166064000Y-112807750D01*
X167891000Y-112807750D01*
X167891000Y-114398310D01*
X167987673Y-114631699D01*
X168166302Y-114810327D01*
X168399691Y-114907000D01*
X169990250Y-114907000D01*
X170149000Y-114748250D01*
X170149000Y-112649000D01*
X168049750Y-112649000D01*
X167891000Y-112807750D01*
X166064000Y-112807750D01*
X166064000Y-110645690D01*
X167891000Y-110645690D01*
X167891000Y-112236250D01*
X168049750Y-112395000D01*
X170149000Y-112395000D01*
X170149000Y-110295750D01*
X170403000Y-110295750D01*
X170403000Y-112395000D01*
X172502250Y-112395000D01*
X172661000Y-112236250D01*
X172661000Y-110645690D01*
X172564327Y-110412301D01*
X172385698Y-110233673D01*
X172152309Y-110137000D01*
X170561750Y-110137000D01*
X170403000Y-110295750D01*
X170149000Y-110295750D01*
X169990250Y-110137000D01*
X168399691Y-110137000D01*
X168166302Y-110233673D01*
X167987673Y-110412301D01*
X167891000Y-110645690D01*
X166064000Y-110645690D01*
X166064000Y-107136000D01*
X178742094Y-107136000D01*
X178386859Y-107491235D01*
G04 #@! TD*
M02*
