G04 #@! TF.GenerationSoftware,KiCad,Pcbnew,5.0.1*
G04 #@! TF.CreationDate,2018-10-24T01:14:12+02:00*
G04 #@! TF.ProjectId,jeopardy-hw,6A656F70617264792D68772E6B696361,rev?*
G04 #@! TF.SameCoordinates,Original*
G04 #@! TF.FileFunction,Copper,L1,Top,Signal*
G04 #@! TF.FilePolarity,Positive*
%FSLAX46Y46*%
G04 Gerber Fmt 4.6, Leading zero omitted, Abs format (unit mm)*
G04 Created by KiCad (PCBNEW 5.0.1) date Wed 24 Oct 2018 01:14:12 AM CEST*
%MOMM*%
%LPD*%
G01*
G04 APERTURE LIST*
G04 #@! TA.AperFunction,ComponentPad*
%ADD10C,1.500000*%
G04 #@! TD*
G04 #@! TA.AperFunction,ComponentPad*
%ADD11R,1.500000X1.500000*%
G04 #@! TD*
G04 #@! TA.AperFunction,WasherPad*
%ADD12C,3.650000*%
G04 #@! TD*
G04 #@! TA.AperFunction,ComponentPad*
%ADD13R,3.500000X3.500000*%
G04 #@! TD*
G04 #@! TA.AperFunction,ComponentPad*
%ADD14O,1.524000X2.540000*%
G04 #@! TD*
G04 #@! TA.AperFunction,ComponentPad*
%ADD15C,3.937000*%
G04 #@! TD*
G04 #@! TA.AperFunction,ComponentPad*
%ADD16O,1.600000X1.600000*%
G04 #@! TD*
G04 #@! TA.AperFunction,ComponentPad*
%ADD17R,1.600000X1.600000*%
G04 #@! TD*
G04 #@! TA.AperFunction,ComponentPad*
%ADD18O,1.700000X1.700000*%
G04 #@! TD*
G04 #@! TA.AperFunction,ComponentPad*
%ADD19R,1.700000X1.700000*%
G04 #@! TD*
G04 #@! TA.AperFunction,ViaPad*
%ADD20C,0.800000*%
G04 #@! TD*
G04 #@! TA.AperFunction,Conductor*
%ADD21C,0.500000*%
G04 #@! TD*
G04 #@! TA.AperFunction,Conductor*
%ADD22C,0.250000*%
G04 #@! TD*
G04 #@! TA.AperFunction,Conductor*
%ADD23C,0.254000*%
G04 #@! TD*
G04 APERTURE END LIST*
D10*
G04 #@! TO.P,PLAYER1,8*
G04 #@! TO.N,Net-(J_BRD_P1-Pad8)*
X169418000Y-140716000D03*
G04 #@! TO.P,PLAYER1,7*
G04 #@! TO.N,Net-(J_BRD_P1-Pad7)*
X171958000Y-141986000D03*
G04 #@! TO.P,PLAYER1,6*
G04 #@! TO.N,Net-(J_BRD_P1-Pad6)*
X169418000Y-143256000D03*
G04 #@! TO.P,PLAYER1,5*
G04 #@! TO.N,+12V*
X171958000Y-144526000D03*
G04 #@! TO.P,PLAYER1,4*
G04 #@! TO.N,+3V3*
X169418000Y-145796000D03*
G04 #@! TO.P,PLAYER1,3*
G04 #@! TO.N,N/C*
X171958000Y-147066000D03*
G04 #@! TO.P,PLAYER1,2*
X169418000Y-148336000D03*
D11*
G04 #@! TO.P,PLAYER1,1*
G04 #@! TO.N,GND*
X171958000Y-149606000D03*
D12*
G04 #@! TO.P,PLAYER1,Hole*
G04 #@! TO.N,*
X178308000Y-151096000D03*
X178308000Y-139226000D03*
G04 #@! TD*
G04 #@! TO.P,PLAYER2,Hole*
G04 #@! TO.N,*
X217424000Y-151604000D03*
X217424000Y-139734000D03*
D11*
G04 #@! TO.P,PLAYER2,1*
G04 #@! TO.N,GND*
X223774000Y-141224000D03*
D10*
G04 #@! TO.P,PLAYER2,2*
G04 #@! TO.N,N/C*
X226314000Y-142494000D03*
G04 #@! TO.P,PLAYER2,3*
X223774000Y-143764000D03*
G04 #@! TO.P,PLAYER2,4*
G04 #@! TO.N,+3V3*
X226314000Y-145034000D03*
G04 #@! TO.P,PLAYER2,5*
G04 #@! TO.N,+12V*
X223774000Y-146304000D03*
G04 #@! TO.P,PLAYER2,6*
G04 #@! TO.N,Net-(J_BRD_P2-Pad6)*
X226314000Y-147574000D03*
G04 #@! TO.P,PLAYER2,7*
G04 #@! TO.N,Net-(J_BRD_P2-Pad7)*
X223774000Y-148844000D03*
G04 #@! TO.P,PLAYER2,8*
G04 #@! TO.N,Net-(J_BRD_P2-Pad8)*
X226314000Y-150114000D03*
G04 #@! TD*
G04 #@! TO.P,PLAYER3,8*
G04 #@! TO.N,Net-(J_BRD_P3-Pad8)*
X226314000Y-133350000D03*
G04 #@! TO.P,PLAYER3,7*
G04 #@! TO.N,Net-(J_BRD_P3-Pad7)*
X223774000Y-132080000D03*
G04 #@! TO.P,PLAYER3,6*
G04 #@! TO.N,Net-(J_BRD_P3-Pad6)*
X226314000Y-130810000D03*
G04 #@! TO.P,PLAYER3,5*
G04 #@! TO.N,+12V*
X223774000Y-129540000D03*
G04 #@! TO.P,PLAYER3,4*
G04 #@! TO.N,+3V3*
X226314000Y-128270000D03*
G04 #@! TO.P,PLAYER3,3*
G04 #@! TO.N,N/C*
X223774000Y-127000000D03*
G04 #@! TO.P,PLAYER3,2*
X226314000Y-125730000D03*
D11*
G04 #@! TO.P,PLAYER3,1*
G04 #@! TO.N,GND*
X223774000Y-124460000D03*
D12*
G04 #@! TO.P,PLAYER3,Hole*
G04 #@! TO.N,*
X217424000Y-122970000D03*
X217424000Y-134840000D03*
G04 #@! TD*
G04 #@! TO.P,PLAYER4,Hole*
G04 #@! TO.N,*
X178308000Y-122462000D03*
X178308000Y-134332000D03*
D11*
G04 #@! TO.P,PLAYER4,1*
G04 #@! TO.N,GND*
X171958000Y-132842000D03*
D10*
G04 #@! TO.P,PLAYER4,2*
G04 #@! TO.N,N/C*
X169418000Y-131572000D03*
G04 #@! TO.P,PLAYER4,3*
X171958000Y-130302000D03*
G04 #@! TO.P,PLAYER4,4*
G04 #@! TO.N,+3V3*
X169418000Y-129032000D03*
G04 #@! TO.P,PLAYER4,5*
G04 #@! TO.N,+12V*
X171958000Y-127762000D03*
G04 #@! TO.P,PLAYER4,6*
G04 #@! TO.N,Net-(J_BRD_P4-Pad6)*
X169418000Y-126492000D03*
G04 #@! TO.P,PLAYER4,7*
G04 #@! TO.N,Net-(J_BRD_P4-Pad7)*
X171958000Y-125222000D03*
G04 #@! TO.P,PLAYER4,8*
G04 #@! TO.N,Net-(J_BRD_P4-Pad8)*
X169418000Y-123952000D03*
G04 #@! TD*
D13*
G04 #@! TO.P,12V,3*
G04 #@! TO.N,N/C*
X173276000Y-117222000D03*
G04 #@! TO.P,12V,2*
G04 #@! TO.N,GND*
X170276000Y-112522000D03*
G04 #@! TO.P,12V,1*
G04 #@! TO.N,+12V*
X176276000Y-112522000D03*
G04 #@! TD*
D14*
G04 #@! TO.P,SHIELD0,AD5*
G04 #@! TO.N,N/C*
X228854000Y-157226000D03*
G04 #@! TO.P,SHIELD0,AD4*
X226314000Y-157226000D03*
G04 #@! TO.P,SHIELD0,AD3*
X223774000Y-157226000D03*
G04 #@! TO.P,SHIELD0,AD0*
X216154000Y-157226000D03*
G04 #@! TO.P,SHIELD0,AD1*
X218694000Y-157226000D03*
G04 #@! TO.P,SHIELD0,AD2*
X221234000Y-157226000D03*
G04 #@! TO.P,SHIELD0,V_IN*
G04 #@! TO.N,+12V*
X211074000Y-157226000D03*
G04 #@! TO.P,SHIELD0,GND2*
G04 #@! TO.N,GND*
X208534000Y-157226000D03*
G04 #@! TO.P,SHIELD0,GND1*
X205994000Y-157226000D03*
G04 #@! TO.P,SHIELD0,3V3*
G04 #@! TO.N,+3V3*
X200914000Y-157226000D03*
G04 #@! TO.P,SHIELD0,RST*
G04 #@! TO.N,Net-(SHIELD0-PadRST)*
X198374000Y-157226000D03*
G04 #@! TO.P,SHIELD0,0*
G04 #@! TO.N,N/C*
X228854000Y-108966000D03*
G04 #@! TO.P,SHIELD0,1*
X226314000Y-108966000D03*
G04 #@! TO.P,SHIELD0,2*
G04 #@! TO.N,Net-(J_BRD_P1-Pad7)*
X223774000Y-108966000D03*
G04 #@! TO.P,SHIELD0,3*
G04 #@! TO.N,Net-(J_BRD_P1-Pad6)*
X221234000Y-108966000D03*
G04 #@! TO.P,SHIELD0,4*
G04 #@! TO.N,Net-(J_BRD_P2-Pad7)*
X218694000Y-108966000D03*
G04 #@! TO.P,SHIELD0,5*
G04 #@! TO.N,Net-(J_BRD_P2-Pad6)*
X216154000Y-108966000D03*
G04 #@! TO.P,SHIELD0,6*
G04 #@! TO.N,Net-(J_BRD_P3-Pad7)*
X213614000Y-108966000D03*
G04 #@! TO.P,SHIELD0,7*
G04 #@! TO.N,Net-(J_BRD_P3-Pad6)*
X211074000Y-108966000D03*
G04 #@! TO.P,SHIELD0,8*
G04 #@! TO.N,Net-(J_BRD_P4-Pad7)*
X207010000Y-108966000D03*
G04 #@! TO.P,SHIELD0,9*
G04 #@! TO.N,Net-(J_BRD_P4-Pad6)*
X204470000Y-108966000D03*
G04 #@! TO.P,SHIELD0,10*
G04 #@! TO.N,Net-(SHIELD0-Pad10)*
X201930000Y-108966000D03*
G04 #@! TO.P,SHIELD0,11*
G04 #@! TO.N,Net-(SHIELD0-Pad11)*
X199390000Y-108966000D03*
G04 #@! TO.P,SHIELD0,12*
G04 #@! TO.N,Net-(SHIELD0-Pad12)*
X196850000Y-108966000D03*
G04 #@! TO.P,SHIELD0,13*
G04 #@! TO.N,Net-(SHIELD0-Pad13)*
X194310000Y-108966000D03*
G04 #@! TO.P,SHIELD0,GND3*
G04 #@! TO.N,GND*
X191770000Y-108966000D03*
G04 #@! TO.P,SHIELD0,AREF*
G04 #@! TO.N,N/C*
X189230000Y-108966000D03*
G04 #@! TO.P,SHIELD0,5V*
X203454000Y-157226000D03*
D15*
G04 #@! TO.P,SHIELD0,*
G04 #@! TO.N,*
X231394000Y-152146000D03*
X231394000Y-124206000D03*
X180594000Y-108966000D03*
X179324000Y-157226000D03*
G04 #@! TD*
D16*
G04 #@! TO.P,ULQ2003A,16*
G04 #@! TO.N,N/C*
X201930000Y-127254000D03*
G04 #@! TO.P,ULQ2003A,8*
G04 #@! TO.N,GND*
X194310000Y-145034000D03*
G04 #@! TO.P,ULQ2003A,15*
G04 #@! TO.N,N/C*
X201930000Y-129794000D03*
G04 #@! TO.P,ULQ2003A,7*
G04 #@! TO.N,Net-(SHIELD0-Pad10)*
X194310000Y-142494000D03*
G04 #@! TO.P,ULQ2003A,14*
G04 #@! TO.N,N/C*
X201930000Y-132334000D03*
G04 #@! TO.P,ULQ2003A,6*
G04 #@! TO.N,Net-(SHIELD0-Pad11)*
X194310000Y-139954000D03*
G04 #@! TO.P,ULQ2003A,13*
G04 #@! TO.N,Net-(J_BRD_P4-Pad8)*
X201930000Y-134874000D03*
G04 #@! TO.P,ULQ2003A,5*
G04 #@! TO.N,Net-(SHIELD0-Pad12)*
X194310000Y-137414000D03*
G04 #@! TO.P,ULQ2003A,12*
G04 #@! TO.N,Net-(J_BRD_P3-Pad8)*
X201930000Y-137414000D03*
G04 #@! TO.P,ULQ2003A,4*
G04 #@! TO.N,Net-(SHIELD0-Pad13)*
X194310000Y-134874000D03*
G04 #@! TO.P,ULQ2003A,11*
G04 #@! TO.N,Net-(J_BRD_P2-Pad8)*
X201930000Y-139954000D03*
G04 #@! TO.P,ULQ2003A,3*
G04 #@! TO.N,N/C*
X194310000Y-132334000D03*
G04 #@! TO.P,ULQ2003A,10*
G04 #@! TO.N,Net-(J_BRD_P1-Pad8)*
X201930000Y-142494000D03*
G04 #@! TO.P,ULQ2003A,2*
G04 #@! TO.N,N/C*
X194310000Y-129794000D03*
G04 #@! TO.P,ULQ2003A,9*
G04 #@! TO.N,+12V*
X201930000Y-145034000D03*
D17*
G04 #@! TO.P,ULQ2003A,1*
G04 #@! TO.N,N/C*
X194310000Y-127254000D03*
G04 #@! TD*
D18*
G04 #@! TO.P,SW_RST_1,4*
G04 #@! TO.N,+3V3*
X183642000Y-114554000D03*
G04 #@! TO.P,SW_RST_1,3*
G04 #@! TO.N,Net-(R5-Pad2)*
X186182000Y-114554000D03*
G04 #@! TO.P,SW_RST_1,2*
G04 #@! TO.N,Net-(SHIELD0-PadRST)*
X188722000Y-114554000D03*
D19*
G04 #@! TO.P,SW_RST_1,1*
G04 #@! TO.N,GND*
X191262000Y-114554000D03*
G04 #@! TD*
D20*
G04 #@! TO.N,+3V3*
X229362000Y-127762000D03*
X228346000Y-154432000D03*
X166624000Y-154432000D03*
X166624000Y-129286000D03*
X166624000Y-146050000D03*
X228346000Y-144526000D03*
X200914000Y-154432000D03*
X183642000Y-128778000D03*
X174498000Y-128778000D03*
G04 #@! TO.N,Net-(J_BRD_P1-Pad8)*
X176624999Y-143669001D03*
X176530000Y-141224000D03*
G04 #@! TO.N,Net-(J_BRD_P2-Pad8)*
X213868000Y-139954000D03*
X213868000Y-149098000D03*
G04 #@! TO.N,Net-(J_BRD_P3-Pad8)*
X226060000Y-137414000D03*
G04 #@! TO.N,Net-(J_BRD_P4-Pad8)*
X190754000Y-133604000D03*
X190500000Y-124714000D03*
G04 #@! TO.N,Net-(J_BRD_P1-Pad7)*
X191516000Y-142240000D03*
X191770000Y-117602000D03*
X223266000Y-117348000D03*
G04 #@! TO.N,Net-(J_BRD_P1-Pad6)*
X174244000Y-143256000D03*
X174244000Y-147828000D03*
X211582000Y-147574000D03*
X212344000Y-112522000D03*
X220980000Y-112268000D03*
G04 #@! TO.N,Net-(J_BRD_P2-Pad6)*
X216408000Y-119634000D03*
X220472000Y-119888000D03*
X220472000Y-147320000D03*
G04 #@! TO.N,Net-(J_BRD_P3-Pad7)*
X214376000Y-132080000D03*
G04 #@! TO.N,Net-(J_BRD_P3-Pad6)*
X211074000Y-130302000D03*
G04 #@! TO.N,Net-(J_BRD_P4-Pad6)*
X167132000Y-125730000D03*
X167132000Y-119888000D03*
X167132000Y-119888000D03*
X204470000Y-119888000D03*
G04 #@! TO.N,Net-(J_BRD_P4-Pad7)*
X205486000Y-125730000D03*
G04 #@! TO.N,Net-(SHIELD0-PadRST)*
X188722000Y-156464000D03*
G04 #@! TD*
D21*
G04 #@! TO.N,+3V3*
X229362000Y-127762000D02*
X228346000Y-128778000D01*
X166624000Y-154432000D02*
X166624000Y-146050000D01*
X166624000Y-146050000D02*
X166624000Y-129286000D01*
X228346000Y-128778000D02*
X228346000Y-144526000D01*
X228346000Y-144526000D02*
X228346000Y-154432000D01*
X200914000Y-157226000D02*
X200914000Y-154432000D01*
X183642000Y-114554000D02*
X183642000Y-128778000D01*
D22*
G04 #@! TO.N,Net-(J_BRD_P1-Pad8)*
X176624999Y-143669001D02*
X176624999Y-141318999D01*
X176624999Y-141318999D02*
X176530000Y-141224000D01*
G04 #@! TO.N,Net-(J_BRD_P2-Pad8)*
X213868000Y-139954000D02*
X213868000Y-149098000D01*
G04 #@! TO.N,Net-(J_BRD_P3-Pad8)*
X226060000Y-133604000D02*
X226314000Y-133350000D01*
X226060000Y-137414000D02*
X226060000Y-133604000D01*
G04 #@! TO.N,Net-(J_BRD_P4-Pad8)*
X190754000Y-133038315D02*
X190500000Y-132784315D01*
X190754000Y-133604000D02*
X190754000Y-133038315D01*
X190500000Y-132784315D02*
X190500000Y-124714000D01*
G04 #@! TO.N,Net-(J_BRD_P1-Pad7)*
X191770000Y-133735002D02*
X191770000Y-117602000D01*
X191516000Y-142240000D02*
X191516000Y-133989002D01*
X191516000Y-133989002D02*
X191770000Y-133735002D01*
X223774000Y-116840000D02*
X223774000Y-108966000D01*
X223266000Y-117348000D02*
X223774000Y-116840000D01*
G04 #@! TO.N,Net-(J_BRD_P1-Pad6)*
X174244000Y-143256000D02*
X174244000Y-147828000D01*
X211582000Y-147574000D02*
X212344000Y-146812000D01*
X212344000Y-146812000D02*
X212344000Y-112522000D01*
X220980000Y-109220000D02*
X221234000Y-108966000D01*
X220980000Y-112268000D02*
X220980000Y-109220000D01*
G04 #@! TO.N,Net-(J_BRD_P2-Pad6)*
X216154000Y-110486000D02*
X216408000Y-110740000D01*
X216154000Y-108966000D02*
X216154000Y-110486000D01*
X216408000Y-110740000D02*
X216408000Y-119634000D01*
X220472000Y-119888000D02*
X220472000Y-147320000D01*
G04 #@! TO.N,Net-(J_BRD_P3-Pad7)*
X214376000Y-109728000D02*
X213614000Y-108966000D01*
X214376000Y-132080000D02*
X214376000Y-109728000D01*
G04 #@! TO.N,Net-(J_BRD_P3-Pad6)*
X211074000Y-108966000D02*
X211074000Y-130302000D01*
G04 #@! TO.N,Net-(J_BRD_P4-Pad6)*
X167132000Y-125730000D02*
X167132000Y-119888000D01*
X204470000Y-119888000D02*
X204470000Y-108966000D01*
G04 #@! TO.N,Net-(J_BRD_P4-Pad7)*
X207010000Y-124206000D02*
X207010000Y-108966000D01*
X205486000Y-125730000D02*
X207010000Y-124206000D01*
G04 #@! TO.N,Net-(SHIELD0-PadRST)*
X188722000Y-118514000D02*
X188722000Y-156464000D01*
X188722000Y-114554000D02*
X188722000Y-118514000D01*
G04 #@! TO.N,Net-(SHIELD0-Pad10)*
X197358000Y-113538000D02*
X201930000Y-108966000D01*
X197358000Y-141986000D02*
X197358000Y-113538000D01*
X194310000Y-142494000D02*
X196850000Y-142494000D01*
X196850000Y-142494000D02*
X197358000Y-141986000D01*
G04 #@! TO.N,Net-(SHIELD0-Pad11)*
X196850000Y-137414000D02*
X194310000Y-139954000D01*
X199390000Y-108966000D02*
X196850000Y-111506000D01*
X196850000Y-111506000D02*
X196850000Y-137414000D01*
G04 #@! TO.N,Net-(SHIELD0-Pad12)*
X196342000Y-135382000D02*
X194310000Y-137414000D01*
X196342000Y-109982000D02*
X196342000Y-135382000D01*
X196850000Y-108966000D02*
X196850000Y-109474000D01*
X196850000Y-109474000D02*
X196342000Y-109982000D01*
G04 #@! TO.N,Net-(SHIELD0-Pad13)*
X194310000Y-134874000D02*
X195841989Y-133342011D01*
X195841989Y-133342011D02*
X195841989Y-111005989D01*
X194310000Y-109474000D02*
X194310000Y-108966000D01*
X195841989Y-111005989D02*
X194310000Y-109474000D01*
G04 #@! TD*
D23*
G04 #@! TO.N,+12V*
G36*
X178386859Y-107491235D02*
X177990500Y-108448132D01*
X177990500Y-109483868D01*
X178283554Y-110191363D01*
X178152309Y-110137000D01*
X176561750Y-110137000D01*
X176403000Y-110295750D01*
X176403000Y-112395000D01*
X178502250Y-112395000D01*
X178661000Y-112236250D01*
X178661000Y-110714906D01*
X179119235Y-111173141D01*
X180076132Y-111569500D01*
X181111868Y-111569500D01*
X182068765Y-111173141D01*
X182801141Y-110440765D01*
X183197500Y-109483868D01*
X183197500Y-108448132D01*
X182801141Y-107491235D01*
X182445906Y-107136000D01*
X188715363Y-107136000D01*
X188684918Y-107142056D01*
X188222820Y-107450821D01*
X187914056Y-107912919D01*
X187833000Y-108320413D01*
X187833000Y-109611588D01*
X187914056Y-110019082D01*
X188222821Y-110481180D01*
X188684919Y-110789944D01*
X189230000Y-110898368D01*
X189775082Y-110789944D01*
X190237180Y-110481180D01*
X190500000Y-110087842D01*
X190762821Y-110481180D01*
X191224919Y-110789944D01*
X191770000Y-110898368D01*
X192315082Y-110789944D01*
X192777180Y-110481180D01*
X193040000Y-110087842D01*
X193302821Y-110481180D01*
X193764919Y-110789944D01*
X194310000Y-110898368D01*
X194601569Y-110840371D01*
X195081990Y-111320792D01*
X195081989Y-125806560D01*
X193510000Y-125806560D01*
X193262235Y-125855843D01*
X193052191Y-125996191D01*
X192911843Y-126206235D01*
X192862560Y-126454000D01*
X192862560Y-128054000D01*
X192911843Y-128301765D01*
X193052191Y-128511809D01*
X193262235Y-128652157D01*
X193396106Y-128678785D01*
X193275423Y-128759423D01*
X192958260Y-129234091D01*
X192846887Y-129794000D01*
X192958260Y-130353909D01*
X193275423Y-130828577D01*
X193627758Y-131064000D01*
X193275423Y-131299423D01*
X192958260Y-131774091D01*
X192846887Y-132334000D01*
X192958260Y-132893909D01*
X193275423Y-133368577D01*
X193627758Y-133604000D01*
X193275423Y-133839423D01*
X192958260Y-134314091D01*
X192846887Y-134874000D01*
X192958260Y-135433909D01*
X193275423Y-135908577D01*
X193627758Y-136144000D01*
X193275423Y-136379423D01*
X192958260Y-136854091D01*
X192846887Y-137414000D01*
X192958260Y-137973909D01*
X193275423Y-138448577D01*
X193627758Y-138684000D01*
X193275423Y-138919423D01*
X192958260Y-139394091D01*
X192846887Y-139954000D01*
X192958260Y-140513909D01*
X193275423Y-140988577D01*
X193627758Y-141224000D01*
X193275423Y-141459423D01*
X192958260Y-141934091D01*
X192846887Y-142494000D01*
X192958260Y-143053909D01*
X193275423Y-143528577D01*
X193627758Y-143764000D01*
X193275423Y-143999423D01*
X192958260Y-144474091D01*
X192846887Y-145034000D01*
X192958260Y-145593909D01*
X193275423Y-146068577D01*
X193750091Y-146385740D01*
X194168667Y-146469000D01*
X194451333Y-146469000D01*
X194869909Y-146385740D01*
X195344577Y-146068577D01*
X195661740Y-145593909D01*
X195703684Y-145383039D01*
X200538096Y-145383039D01*
X200698959Y-145771423D01*
X201074866Y-146186389D01*
X201580959Y-146425914D01*
X201803000Y-146304629D01*
X201803000Y-145161000D01*
X202057000Y-145161000D01*
X202057000Y-146304629D01*
X202279041Y-146425914D01*
X202785134Y-146186389D01*
X203161041Y-145771423D01*
X203321904Y-145383039D01*
X203199915Y-145161000D01*
X202057000Y-145161000D01*
X201803000Y-145161000D01*
X200660085Y-145161000D01*
X200538096Y-145383039D01*
X195703684Y-145383039D01*
X195773113Y-145034000D01*
X195661740Y-144474091D01*
X195344577Y-143999423D01*
X194992242Y-143764000D01*
X195344577Y-143528577D01*
X195528043Y-143254000D01*
X196775153Y-143254000D01*
X196850000Y-143268888D01*
X196924847Y-143254000D01*
X196924852Y-143254000D01*
X197146537Y-143209904D01*
X197397929Y-143041929D01*
X197440330Y-142978471D01*
X197842475Y-142576327D01*
X197905929Y-142533929D01*
X197948327Y-142470476D01*
X197948329Y-142470474D01*
X198073903Y-142282538D01*
X198073904Y-142282537D01*
X198118000Y-142060852D01*
X198118000Y-142060848D01*
X198132888Y-141986001D01*
X198118000Y-141911154D01*
X198118000Y-127254000D01*
X200466887Y-127254000D01*
X200578260Y-127813909D01*
X200895423Y-128288577D01*
X201247758Y-128524000D01*
X200895423Y-128759423D01*
X200578260Y-129234091D01*
X200466887Y-129794000D01*
X200578260Y-130353909D01*
X200895423Y-130828577D01*
X201247758Y-131064000D01*
X200895423Y-131299423D01*
X200578260Y-131774091D01*
X200466887Y-132334000D01*
X200578260Y-132893909D01*
X200895423Y-133368577D01*
X201247758Y-133604000D01*
X200895423Y-133839423D01*
X200578260Y-134314091D01*
X200466887Y-134874000D01*
X200578260Y-135433909D01*
X200895423Y-135908577D01*
X201247758Y-136144000D01*
X200895423Y-136379423D01*
X200578260Y-136854091D01*
X200466887Y-137414000D01*
X200578260Y-137973909D01*
X200895423Y-138448577D01*
X201247758Y-138684000D01*
X200895423Y-138919423D01*
X200578260Y-139394091D01*
X200466887Y-139954000D01*
X200578260Y-140513909D01*
X200895423Y-140988577D01*
X201247758Y-141224000D01*
X200895423Y-141459423D01*
X200578260Y-141934091D01*
X200466887Y-142494000D01*
X200578260Y-143053909D01*
X200895423Y-143528577D01*
X201279108Y-143784947D01*
X201074866Y-143881611D01*
X200698959Y-144296577D01*
X200538096Y-144684961D01*
X200660085Y-144907000D01*
X201803000Y-144907000D01*
X201803000Y-144887000D01*
X202057000Y-144887000D01*
X202057000Y-144907000D01*
X203199915Y-144907000D01*
X203321904Y-144684961D01*
X203161041Y-144296577D01*
X202785134Y-143881611D01*
X202580892Y-143784947D01*
X202964577Y-143528577D01*
X203281740Y-143053909D01*
X203393113Y-142494000D01*
X203281740Y-141934091D01*
X202964577Y-141459423D01*
X202612242Y-141224000D01*
X202964577Y-140988577D01*
X203281740Y-140513909D01*
X203393113Y-139954000D01*
X203281740Y-139394091D01*
X202964577Y-138919423D01*
X202612242Y-138684000D01*
X202964577Y-138448577D01*
X203281740Y-137973909D01*
X203393113Y-137414000D01*
X203281740Y-136854091D01*
X202964577Y-136379423D01*
X202612242Y-136144000D01*
X202964577Y-135908577D01*
X203281740Y-135433909D01*
X203393113Y-134874000D01*
X203281740Y-134314091D01*
X202964577Y-133839423D01*
X202612242Y-133604000D01*
X202964577Y-133368577D01*
X203281740Y-132893909D01*
X203393113Y-132334000D01*
X203281740Y-131774091D01*
X202964577Y-131299423D01*
X202612242Y-131064000D01*
X202964577Y-130828577D01*
X203281740Y-130353909D01*
X203393113Y-129794000D01*
X203281740Y-129234091D01*
X202964577Y-128759423D01*
X202612242Y-128524000D01*
X202964577Y-128288577D01*
X203281740Y-127813909D01*
X203393113Y-127254000D01*
X203281740Y-126694091D01*
X202964577Y-126219423D01*
X202489909Y-125902260D01*
X202071333Y-125819000D01*
X201788667Y-125819000D01*
X201370091Y-125902260D01*
X200895423Y-126219423D01*
X200578260Y-126694091D01*
X200466887Y-127254000D01*
X198118000Y-127254000D01*
X198118000Y-113852801D01*
X201262594Y-110708209D01*
X201384919Y-110789944D01*
X201930000Y-110898368D01*
X202475082Y-110789944D01*
X202937180Y-110481180D01*
X203200000Y-110087842D01*
X203462821Y-110481180D01*
X203710001Y-110646340D01*
X203710000Y-119184289D01*
X203592569Y-119301720D01*
X203435000Y-119682126D01*
X203435000Y-120093874D01*
X203592569Y-120474280D01*
X203883720Y-120765431D01*
X204264126Y-120923000D01*
X204675874Y-120923000D01*
X205056280Y-120765431D01*
X205347431Y-120474280D01*
X205505000Y-120093874D01*
X205505000Y-119682126D01*
X205347431Y-119301720D01*
X205230000Y-119184289D01*
X205230000Y-110646340D01*
X205477180Y-110481180D01*
X205740000Y-110087842D01*
X206002821Y-110481180D01*
X206250001Y-110646340D01*
X206250000Y-123891197D01*
X205446198Y-124695000D01*
X205280126Y-124695000D01*
X204899720Y-124852569D01*
X204608569Y-125143720D01*
X204451000Y-125524126D01*
X204451000Y-125935874D01*
X204608569Y-126316280D01*
X204899720Y-126607431D01*
X205280126Y-126765000D01*
X205691874Y-126765000D01*
X206072280Y-126607431D01*
X206363431Y-126316280D01*
X206521000Y-125935874D01*
X206521000Y-125769802D01*
X207494476Y-124796327D01*
X207557929Y-124753929D01*
X207600327Y-124690476D01*
X207600329Y-124690474D01*
X207695869Y-124547487D01*
X207725904Y-124502537D01*
X207770000Y-124280852D01*
X207770000Y-124280848D01*
X207784888Y-124206001D01*
X207770000Y-124131154D01*
X207770000Y-110646340D01*
X208017180Y-110481180D01*
X208325944Y-110019082D01*
X208407000Y-109611588D01*
X208407000Y-108320412D01*
X208325944Y-107912918D01*
X208017179Y-107450820D01*
X207555081Y-107142056D01*
X207524636Y-107136000D01*
X210559363Y-107136000D01*
X210528918Y-107142056D01*
X210066820Y-107450821D01*
X209758056Y-107912919D01*
X209677000Y-108320413D01*
X209677000Y-109611588D01*
X209758056Y-110019082D01*
X210066821Y-110481180D01*
X210314000Y-110646340D01*
X210314001Y-129598288D01*
X210196569Y-129715720D01*
X210039000Y-130096126D01*
X210039000Y-130507874D01*
X210196569Y-130888280D01*
X210487720Y-131179431D01*
X210868126Y-131337000D01*
X211279874Y-131337000D01*
X211584000Y-131211027D01*
X211584000Y-146497198D01*
X211542198Y-146539000D01*
X211376126Y-146539000D01*
X210995720Y-146696569D01*
X210704569Y-146987720D01*
X210547000Y-147368126D01*
X210547000Y-147779874D01*
X210704569Y-148160280D01*
X210995720Y-148451431D01*
X211376126Y-148609000D01*
X211787874Y-148609000D01*
X212168280Y-148451431D01*
X212459431Y-148160280D01*
X212617000Y-147779874D01*
X212617000Y-147613802D01*
X212828473Y-147402329D01*
X212891929Y-147359929D01*
X213011486Y-147181000D01*
X213059904Y-147108538D01*
X213083936Y-146987720D01*
X213104000Y-146886852D01*
X213104000Y-146886848D01*
X213108001Y-146866735D01*
X213108001Y-148394288D01*
X212990569Y-148511720D01*
X212833000Y-148892126D01*
X212833000Y-149303874D01*
X212990569Y-149684280D01*
X213281720Y-149975431D01*
X213662126Y-150133000D01*
X214073874Y-150133000D01*
X214454280Y-149975431D01*
X214745431Y-149684280D01*
X214903000Y-149303874D01*
X214903000Y-148892126D01*
X214768953Y-148568506D01*
X222389000Y-148568506D01*
X222389000Y-149119494D01*
X222599853Y-149628540D01*
X222989460Y-150018147D01*
X223498506Y-150229000D01*
X224049494Y-150229000D01*
X224558540Y-150018147D01*
X224948147Y-149628540D01*
X225159000Y-149119494D01*
X225159000Y-148568506D01*
X224948147Y-148059460D01*
X224558540Y-147669853D01*
X224343070Y-147580603D01*
X224497923Y-147516460D01*
X224565912Y-147275517D01*
X223774000Y-146483605D01*
X222982088Y-147275517D01*
X223050077Y-147516460D01*
X223216658Y-147575745D01*
X222989460Y-147669853D01*
X222599853Y-148059460D01*
X222389000Y-148568506D01*
X214768953Y-148568506D01*
X214745431Y-148511720D01*
X214628000Y-148394289D01*
X214628000Y-140657711D01*
X214745431Y-140540280D01*
X214903000Y-140159874D01*
X214903000Y-139748126D01*
X214745431Y-139367720D01*
X214454280Y-139076569D01*
X214073874Y-138919000D01*
X213662126Y-138919000D01*
X213281720Y-139076569D01*
X213104000Y-139254289D01*
X213104000Y-113225711D01*
X213221431Y-113108280D01*
X213379000Y-112727874D01*
X213379000Y-112316126D01*
X213221431Y-111935720D01*
X212930280Y-111644569D01*
X212549874Y-111487000D01*
X212138126Y-111487000D01*
X211834000Y-111612973D01*
X211834000Y-110646340D01*
X212081180Y-110481180D01*
X212344000Y-110087842D01*
X212606821Y-110481180D01*
X213068919Y-110789944D01*
X213614000Y-110898368D01*
X213616001Y-110897970D01*
X213616000Y-131376289D01*
X213498569Y-131493720D01*
X213341000Y-131874126D01*
X213341000Y-132285874D01*
X213498569Y-132666280D01*
X213789720Y-132957431D01*
X214170126Y-133115000D01*
X214581874Y-133115000D01*
X214962280Y-132957431D01*
X215253431Y-132666280D01*
X215411000Y-132285874D01*
X215411000Y-131874126D01*
X215253431Y-131493720D01*
X215136000Y-131376289D01*
X215136000Y-123874569D01*
X215338513Y-124363478D01*
X216030522Y-125055487D01*
X216934676Y-125430000D01*
X217913324Y-125430000D01*
X218817478Y-125055487D01*
X219509487Y-124363478D01*
X219712000Y-123874569D01*
X219712001Y-133935433D01*
X219509487Y-133446522D01*
X218817478Y-132754513D01*
X217913324Y-132380000D01*
X216934676Y-132380000D01*
X216030522Y-132754513D01*
X215338513Y-133446522D01*
X214964000Y-134350676D01*
X214964000Y-135329324D01*
X215338513Y-136233478D01*
X216030522Y-136925487D01*
X216903291Y-137287000D01*
X216030522Y-137648513D01*
X215338513Y-138340522D01*
X214964000Y-139244676D01*
X214964000Y-140223324D01*
X215338513Y-141127478D01*
X216030522Y-141819487D01*
X216934676Y-142194000D01*
X217913324Y-142194000D01*
X218817478Y-141819487D01*
X219509487Y-141127478D01*
X219712001Y-140638567D01*
X219712001Y-146616288D01*
X219594569Y-146733720D01*
X219437000Y-147114126D01*
X219437000Y-147525874D01*
X219594569Y-147906280D01*
X219885720Y-148197431D01*
X220266126Y-148355000D01*
X220677874Y-148355000D01*
X221058280Y-148197431D01*
X221349431Y-147906280D01*
X221507000Y-147525874D01*
X221507000Y-147114126D01*
X221349431Y-146733720D01*
X221232000Y-146616289D01*
X221232000Y-146099171D01*
X222376799Y-146099171D01*
X222404770Y-146649448D01*
X222561540Y-147027923D01*
X222802483Y-147095912D01*
X223594395Y-146304000D01*
X223953605Y-146304000D01*
X224745517Y-147095912D01*
X224986460Y-147027923D01*
X225171201Y-146508829D01*
X225143230Y-145958552D01*
X224986460Y-145580077D01*
X224745517Y-145512088D01*
X223953605Y-146304000D01*
X223594395Y-146304000D01*
X222802483Y-145512088D01*
X222561540Y-145580077D01*
X222376799Y-146099171D01*
X221232000Y-146099171D01*
X221232000Y-131804506D01*
X222389000Y-131804506D01*
X222389000Y-132355494D01*
X222599853Y-132864540D01*
X222989460Y-133254147D01*
X223498506Y-133465000D01*
X224049494Y-133465000D01*
X224558540Y-133254147D01*
X224948147Y-132864540D01*
X225159000Y-132355494D01*
X225159000Y-131804506D01*
X224948147Y-131295460D01*
X224558540Y-130905853D01*
X224343070Y-130816603D01*
X224497923Y-130752460D01*
X224565912Y-130511517D01*
X223774000Y-129719605D01*
X222982088Y-130511517D01*
X223050077Y-130752460D01*
X223216658Y-130811745D01*
X222989460Y-130905853D01*
X222599853Y-131295460D01*
X222389000Y-131804506D01*
X221232000Y-131804506D01*
X221232000Y-129335171D01*
X222376799Y-129335171D01*
X222404770Y-129885448D01*
X222561540Y-130263923D01*
X222802483Y-130331912D01*
X223594395Y-129540000D01*
X223953605Y-129540000D01*
X224745517Y-130331912D01*
X224986460Y-130263923D01*
X225171201Y-129744829D01*
X225143230Y-129194552D01*
X224986460Y-128816077D01*
X224745517Y-128748088D01*
X223953605Y-129540000D01*
X223594395Y-129540000D01*
X222802483Y-128748088D01*
X222561540Y-128816077D01*
X222376799Y-129335171D01*
X221232000Y-129335171D01*
X221232000Y-120591711D01*
X221349431Y-120474280D01*
X221507000Y-120093874D01*
X221507000Y-119682126D01*
X221349431Y-119301720D01*
X221058280Y-119010569D01*
X220677874Y-118853000D01*
X220266126Y-118853000D01*
X219885720Y-119010569D01*
X219594569Y-119301720D01*
X219437000Y-119682126D01*
X219437000Y-120093874D01*
X219594569Y-120474280D01*
X219712000Y-120591711D01*
X219712000Y-122065431D01*
X219509487Y-121576522D01*
X218817478Y-120884513D01*
X217913324Y-120510000D01*
X216995711Y-120510000D01*
X217285431Y-120220280D01*
X217443000Y-119839874D01*
X217443000Y-119428126D01*
X217285431Y-119047720D01*
X217168000Y-118930289D01*
X217168000Y-110814846D01*
X217182888Y-110739999D01*
X217168000Y-110665152D01*
X217168000Y-110665148D01*
X217134899Y-110498740D01*
X217161180Y-110481180D01*
X217424000Y-110087842D01*
X217686821Y-110481180D01*
X218148919Y-110789944D01*
X218694000Y-110898368D01*
X219239082Y-110789944D01*
X219701180Y-110481180D01*
X219964000Y-110087842D01*
X220220001Y-110470973D01*
X220220000Y-111564289D01*
X220102569Y-111681720D01*
X219945000Y-112062126D01*
X219945000Y-112473874D01*
X220102569Y-112854280D01*
X220393720Y-113145431D01*
X220774126Y-113303000D01*
X221185874Y-113303000D01*
X221566280Y-113145431D01*
X221857431Y-112854280D01*
X222015000Y-112473874D01*
X222015000Y-112062126D01*
X221857431Y-111681720D01*
X221740000Y-111564289D01*
X221740000Y-110797718D01*
X221779082Y-110789944D01*
X222241180Y-110481180D01*
X222504000Y-110087842D01*
X222766821Y-110481180D01*
X223014001Y-110646340D01*
X223014000Y-116332106D01*
X222679720Y-116470569D01*
X222388569Y-116761720D01*
X222231000Y-117142126D01*
X222231000Y-117553874D01*
X222388569Y-117934280D01*
X222679720Y-118225431D01*
X223060126Y-118383000D01*
X223471874Y-118383000D01*
X223852280Y-118225431D01*
X224143431Y-117934280D01*
X224301000Y-117553874D01*
X224301000Y-117401913D01*
X224321929Y-117387929D01*
X224364327Y-117324476D01*
X224364329Y-117324474D01*
X224448102Y-117199098D01*
X224489904Y-117136537D01*
X224534000Y-116914852D01*
X224534000Y-116914848D01*
X224548888Y-116840001D01*
X224534000Y-116765154D01*
X224534000Y-110646340D01*
X224781180Y-110481180D01*
X225044000Y-110087842D01*
X225306821Y-110481180D01*
X225768919Y-110789944D01*
X226314000Y-110898368D01*
X226859082Y-110789944D01*
X227321180Y-110481180D01*
X227584000Y-110087842D01*
X227846821Y-110481180D01*
X228308919Y-110789944D01*
X228854000Y-110898368D01*
X229399082Y-110789944D01*
X229861180Y-110481180D01*
X230169944Y-110019082D01*
X230251000Y-109611588D01*
X230251000Y-108320412D01*
X230169944Y-107912918D01*
X229861179Y-107450820D01*
X229399081Y-107142056D01*
X229368636Y-107136000D01*
X229829910Y-107136000D01*
X230684000Y-107990091D01*
X230684001Y-119056071D01*
X230670091Y-119126000D01*
X230712673Y-119340071D01*
X230725196Y-119403028D01*
X230882120Y-119637881D01*
X230941402Y-119677492D01*
X233224000Y-121960091D01*
X233224000Y-122354094D01*
X232868765Y-121998859D01*
X231911868Y-121602500D01*
X230876132Y-121602500D01*
X229919235Y-121998859D01*
X229186859Y-122731235D01*
X228790500Y-123688132D01*
X228790500Y-124723868D01*
X229186859Y-125680765D01*
X229919235Y-126413141D01*
X230876132Y-126809500D01*
X231911868Y-126809500D01*
X232868765Y-126413141D01*
X233224000Y-126057906D01*
X233224001Y-150294095D01*
X232868765Y-149938859D01*
X231911868Y-149542500D01*
X230876132Y-149542500D01*
X229919235Y-149938859D01*
X229231000Y-150627094D01*
X229231000Y-145094007D01*
X229381000Y-144731874D01*
X229381000Y-144320126D01*
X229231000Y-143957993D01*
X229231000Y-129144578D01*
X229586148Y-128789431D01*
X229948280Y-128639431D01*
X230239431Y-128348280D01*
X230397000Y-127967874D01*
X230397000Y-127556126D01*
X230239431Y-127175720D01*
X229948280Y-126884569D01*
X229567874Y-126727000D01*
X229156126Y-126727000D01*
X228775720Y-126884569D01*
X228484569Y-127175720D01*
X228334569Y-127537852D01*
X227781847Y-128090575D01*
X227707951Y-128139951D01*
X227699000Y-128153347D01*
X227699000Y-127994506D01*
X227488147Y-127485460D01*
X227098540Y-127095853D01*
X226867130Y-127000000D01*
X227098540Y-126904147D01*
X227488147Y-126514540D01*
X227699000Y-126005494D01*
X227699000Y-125454506D01*
X227488147Y-124945460D01*
X227098540Y-124555853D01*
X226589494Y-124345000D01*
X226038506Y-124345000D01*
X225529460Y-124555853D01*
X225171440Y-124913873D01*
X225171440Y-123710000D01*
X225122157Y-123462235D01*
X224981809Y-123252191D01*
X224771765Y-123111843D01*
X224524000Y-123062560D01*
X223024000Y-123062560D01*
X222776235Y-123111843D01*
X222566191Y-123252191D01*
X222425843Y-123462235D01*
X222376560Y-123710000D01*
X222376560Y-125210000D01*
X222425843Y-125457765D01*
X222566191Y-125667809D01*
X222776235Y-125808157D01*
X222968844Y-125846469D01*
X222599853Y-126215460D01*
X222389000Y-126724506D01*
X222389000Y-127275494D01*
X222599853Y-127784540D01*
X222989460Y-128174147D01*
X223204930Y-128263397D01*
X223050077Y-128327540D01*
X222982088Y-128568483D01*
X223774000Y-129360395D01*
X224565912Y-128568483D01*
X224497923Y-128327540D01*
X224331342Y-128268255D01*
X224558540Y-128174147D01*
X224948147Y-127784540D01*
X225159000Y-127275494D01*
X225159000Y-126724506D01*
X224948147Y-126215460D01*
X224579156Y-125846469D01*
X224771765Y-125808157D01*
X224929000Y-125703095D01*
X224929000Y-126005494D01*
X225139853Y-126514540D01*
X225529460Y-126904147D01*
X225760870Y-127000000D01*
X225529460Y-127095853D01*
X225139853Y-127485460D01*
X224929000Y-127994506D01*
X224929000Y-128545494D01*
X225139853Y-129054540D01*
X225529460Y-129444147D01*
X225760870Y-129540000D01*
X225529460Y-129635853D01*
X225139853Y-130025460D01*
X224929000Y-130534506D01*
X224929000Y-131085494D01*
X225139853Y-131594540D01*
X225529460Y-131984147D01*
X225760870Y-132080000D01*
X225529460Y-132175853D01*
X225139853Y-132565460D01*
X224929000Y-133074506D01*
X224929000Y-133625494D01*
X225139853Y-134134540D01*
X225300001Y-134294688D01*
X225300000Y-136710289D01*
X225182569Y-136827720D01*
X225025000Y-137208126D01*
X225025000Y-137619874D01*
X225182569Y-138000280D01*
X225473720Y-138291431D01*
X225854126Y-138449000D01*
X226265874Y-138449000D01*
X226646280Y-138291431D01*
X226937431Y-138000280D01*
X227095000Y-137619874D01*
X227095000Y-137208126D01*
X226937431Y-136827720D01*
X226820000Y-136710289D01*
X226820000Y-134639522D01*
X227098540Y-134524147D01*
X227461000Y-134161687D01*
X227461001Y-141682314D01*
X227098540Y-141319853D01*
X226589494Y-141109000D01*
X226038506Y-141109000D01*
X225529460Y-141319853D01*
X225171440Y-141677873D01*
X225171440Y-140474000D01*
X225122157Y-140226235D01*
X224981809Y-140016191D01*
X224771765Y-139875843D01*
X224524000Y-139826560D01*
X223024000Y-139826560D01*
X222776235Y-139875843D01*
X222566191Y-140016191D01*
X222425843Y-140226235D01*
X222376560Y-140474000D01*
X222376560Y-141974000D01*
X222425843Y-142221765D01*
X222566191Y-142431809D01*
X222776235Y-142572157D01*
X222968844Y-142610469D01*
X222599853Y-142979460D01*
X222389000Y-143488506D01*
X222389000Y-144039494D01*
X222599853Y-144548540D01*
X222989460Y-144938147D01*
X223204930Y-145027397D01*
X223050077Y-145091540D01*
X222982088Y-145332483D01*
X223774000Y-146124395D01*
X224565912Y-145332483D01*
X224497923Y-145091540D01*
X224331342Y-145032255D01*
X224558540Y-144938147D01*
X224948147Y-144548540D01*
X225159000Y-144039494D01*
X225159000Y-143488506D01*
X224948147Y-142979460D01*
X224579156Y-142610469D01*
X224771765Y-142572157D01*
X224929000Y-142467095D01*
X224929000Y-142769494D01*
X225139853Y-143278540D01*
X225529460Y-143668147D01*
X225760870Y-143764000D01*
X225529460Y-143859853D01*
X225139853Y-144249460D01*
X224929000Y-144758506D01*
X224929000Y-145309494D01*
X225139853Y-145818540D01*
X225529460Y-146208147D01*
X225760870Y-146304000D01*
X225529460Y-146399853D01*
X225139853Y-146789460D01*
X224929000Y-147298506D01*
X224929000Y-147849494D01*
X225139853Y-148358540D01*
X225529460Y-148748147D01*
X225760870Y-148844000D01*
X225529460Y-148939853D01*
X225139853Y-149329460D01*
X224929000Y-149838506D01*
X224929000Y-150389494D01*
X225139853Y-150898540D01*
X225529460Y-151288147D01*
X226038506Y-151499000D01*
X226589494Y-151499000D01*
X227098540Y-151288147D01*
X227461001Y-150925686D01*
X227461001Y-153863991D01*
X227311000Y-154226126D01*
X227311000Y-154637874D01*
X227468569Y-155018280D01*
X227759720Y-155309431D01*
X228140126Y-155467000D01*
X228211723Y-155467000D01*
X227846820Y-155710821D01*
X227584000Y-156104159D01*
X227321179Y-155710820D01*
X226859081Y-155402056D01*
X226314000Y-155293632D01*
X225768918Y-155402056D01*
X225306820Y-155710821D01*
X225044000Y-156104159D01*
X224781179Y-155710820D01*
X224319081Y-155402056D01*
X223774000Y-155293632D01*
X223228918Y-155402056D01*
X222766820Y-155710821D01*
X222504000Y-156104159D01*
X222241179Y-155710820D01*
X221779081Y-155402056D01*
X221234000Y-155293632D01*
X220688918Y-155402056D01*
X220226820Y-155710821D01*
X219964000Y-156104159D01*
X219701179Y-155710820D01*
X219239081Y-155402056D01*
X218694000Y-155293632D01*
X218148918Y-155402056D01*
X217686820Y-155710821D01*
X217424000Y-156104159D01*
X217161179Y-155710820D01*
X216699081Y-155402056D01*
X216154000Y-155293632D01*
X215608918Y-155402056D01*
X215146820Y-155710821D01*
X214838056Y-156172919D01*
X214757000Y-156580413D01*
X214757000Y-157871588D01*
X214838056Y-158279082D01*
X215146821Y-158741180D01*
X215608919Y-159049944D01*
X215639364Y-159056000D01*
X211522993Y-159056000D01*
X211972026Y-158811630D01*
X212316059Y-158385941D01*
X212471000Y-157861000D01*
X212471000Y-157353000D01*
X211201000Y-157353000D01*
X211201000Y-157373000D01*
X210947000Y-157373000D01*
X210947000Y-157353000D01*
X210927000Y-157353000D01*
X210927000Y-157099000D01*
X210947000Y-157099000D01*
X210947000Y-155486280D01*
X211201000Y-155486280D01*
X211201000Y-157099000D01*
X212471000Y-157099000D01*
X212471000Y-156591000D01*
X212316059Y-156066059D01*
X211972026Y-155640370D01*
X211491277Y-155378740D01*
X211417070Y-155363780D01*
X211201000Y-155486280D01*
X210947000Y-155486280D01*
X210730930Y-155363780D01*
X210656723Y-155378740D01*
X210175974Y-155640370D01*
X209831941Y-156066059D01*
X209815580Y-156121489D01*
X209541179Y-155710820D01*
X209079081Y-155402056D01*
X208534000Y-155293632D01*
X207988918Y-155402056D01*
X207526820Y-155710821D01*
X207264000Y-156104159D01*
X207001179Y-155710820D01*
X206539081Y-155402056D01*
X205994000Y-155293632D01*
X205448918Y-155402056D01*
X204986820Y-155710821D01*
X204724000Y-156104159D01*
X204461179Y-155710820D01*
X203999081Y-155402056D01*
X203454000Y-155293632D01*
X202908918Y-155402056D01*
X202446820Y-155710821D01*
X202184000Y-156104159D01*
X201921179Y-155710820D01*
X201799000Y-155629183D01*
X201799000Y-155000007D01*
X201949000Y-154637874D01*
X201949000Y-154226126D01*
X201791431Y-153845720D01*
X201500280Y-153554569D01*
X201119874Y-153397000D01*
X200708126Y-153397000D01*
X200327720Y-153554569D01*
X200036569Y-153845720D01*
X199879000Y-154226126D01*
X199879000Y-154637874D01*
X200029001Y-155000009D01*
X200029001Y-155629182D01*
X199906820Y-155710821D01*
X199644000Y-156104159D01*
X199381179Y-155710820D01*
X198919081Y-155402056D01*
X198374000Y-155293632D01*
X197828918Y-155402056D01*
X197366820Y-155710821D01*
X197058056Y-156172919D01*
X196977000Y-156580413D01*
X196977000Y-157871588D01*
X197058056Y-158279082D01*
X197366821Y-158741180D01*
X197828919Y-159049944D01*
X197859364Y-159056000D01*
X181175906Y-159056000D01*
X181531141Y-158700765D01*
X181927500Y-157743868D01*
X181927500Y-156708132D01*
X181531141Y-155751235D01*
X180798765Y-155018859D01*
X179841868Y-154622500D01*
X178806132Y-154622500D01*
X177849235Y-155018859D01*
X177116859Y-155751235D01*
X176720500Y-156708132D01*
X176720500Y-157743868D01*
X177116859Y-158700765D01*
X177472094Y-159056000D01*
X166064000Y-159056000D01*
X166064000Y-155320317D01*
X166418126Y-155467000D01*
X166829874Y-155467000D01*
X167210280Y-155309431D01*
X167501431Y-155018280D01*
X167659000Y-154637874D01*
X167659000Y-154226126D01*
X167509000Y-153863993D01*
X167509000Y-146618007D01*
X167659000Y-146255874D01*
X167659000Y-145844126D01*
X167509000Y-145481993D01*
X167509000Y-140440506D01*
X168033000Y-140440506D01*
X168033000Y-140991494D01*
X168243853Y-141500540D01*
X168633460Y-141890147D01*
X168864870Y-141986000D01*
X168633460Y-142081853D01*
X168243853Y-142471460D01*
X168033000Y-142980506D01*
X168033000Y-143531494D01*
X168243853Y-144040540D01*
X168633460Y-144430147D01*
X168864870Y-144526000D01*
X168633460Y-144621853D01*
X168243853Y-145011460D01*
X168033000Y-145520506D01*
X168033000Y-146071494D01*
X168243853Y-146580540D01*
X168633460Y-146970147D01*
X168864870Y-147066000D01*
X168633460Y-147161853D01*
X168243853Y-147551460D01*
X168033000Y-148060506D01*
X168033000Y-148611494D01*
X168243853Y-149120540D01*
X168633460Y-149510147D01*
X169142506Y-149721000D01*
X169693494Y-149721000D01*
X170202540Y-149510147D01*
X170560560Y-149152127D01*
X170560560Y-150356000D01*
X170609843Y-150603765D01*
X170750191Y-150813809D01*
X170960235Y-150954157D01*
X171208000Y-151003440D01*
X172708000Y-151003440D01*
X172955765Y-150954157D01*
X173165809Y-150813809D01*
X173304211Y-150606676D01*
X175848000Y-150606676D01*
X175848000Y-151585324D01*
X176222513Y-152489478D01*
X176914522Y-153181487D01*
X177818676Y-153556000D01*
X178797324Y-153556000D01*
X179701478Y-153181487D01*
X180393487Y-152489478D01*
X180768000Y-151585324D01*
X180768000Y-150606676D01*
X180393487Y-149702522D01*
X179701478Y-149010513D01*
X178797324Y-148636000D01*
X177818676Y-148636000D01*
X176914522Y-149010513D01*
X176222513Y-149702522D01*
X175848000Y-150606676D01*
X173304211Y-150606676D01*
X173306157Y-150603765D01*
X173355440Y-150356000D01*
X173355440Y-148856000D01*
X173306157Y-148608235D01*
X173165809Y-148398191D01*
X172955765Y-148257843D01*
X172763156Y-148219531D01*
X173132147Y-147850540D01*
X173209000Y-147665000D01*
X173209000Y-148033874D01*
X173366569Y-148414280D01*
X173657720Y-148705431D01*
X174038126Y-148863000D01*
X174449874Y-148863000D01*
X174830280Y-148705431D01*
X175121431Y-148414280D01*
X175279000Y-148033874D01*
X175279000Y-147622126D01*
X175121431Y-147241720D01*
X175004000Y-147124289D01*
X175004000Y-143959711D01*
X175121431Y-143842280D01*
X175279000Y-143461874D01*
X175279000Y-143050126D01*
X175121431Y-142669720D01*
X174830280Y-142378569D01*
X174449874Y-142221000D01*
X174038126Y-142221000D01*
X173657720Y-142378569D01*
X173366569Y-142669720D01*
X173209000Y-143050126D01*
X173209000Y-143461874D01*
X173366569Y-143842280D01*
X173484000Y-143959711D01*
X173484001Y-147124288D01*
X173366569Y-147241720D01*
X173343000Y-147298621D01*
X173343000Y-146790506D01*
X173132147Y-146281460D01*
X172742540Y-145891853D01*
X172527070Y-145802603D01*
X172681923Y-145738460D01*
X172749912Y-145497517D01*
X171958000Y-144705605D01*
X171166088Y-145497517D01*
X171234077Y-145738460D01*
X171400658Y-145797745D01*
X171173460Y-145891853D01*
X170783853Y-146281460D01*
X170573000Y-146790506D01*
X170573000Y-147341494D01*
X170783853Y-147850540D01*
X171152844Y-148219531D01*
X170960235Y-148257843D01*
X170803000Y-148362905D01*
X170803000Y-148060506D01*
X170592147Y-147551460D01*
X170202540Y-147161853D01*
X169971130Y-147066000D01*
X170202540Y-146970147D01*
X170592147Y-146580540D01*
X170803000Y-146071494D01*
X170803000Y-145520506D01*
X170592147Y-145011460D01*
X170202540Y-144621853D01*
X169971130Y-144526000D01*
X170202540Y-144430147D01*
X170311516Y-144321171D01*
X170560799Y-144321171D01*
X170588770Y-144871448D01*
X170745540Y-145249923D01*
X170986483Y-145317912D01*
X171778395Y-144526000D01*
X172137605Y-144526000D01*
X172929517Y-145317912D01*
X173170460Y-145249923D01*
X173355201Y-144730829D01*
X173327230Y-144180552D01*
X173170460Y-143802077D01*
X172929517Y-143734088D01*
X172137605Y-144526000D01*
X171778395Y-144526000D01*
X170986483Y-143734088D01*
X170745540Y-143802077D01*
X170560799Y-144321171D01*
X170311516Y-144321171D01*
X170592147Y-144040540D01*
X170803000Y-143531494D01*
X170803000Y-142980506D01*
X170592147Y-142471460D01*
X170202540Y-142081853D01*
X169971130Y-141986000D01*
X170202540Y-141890147D01*
X170382181Y-141710506D01*
X170573000Y-141710506D01*
X170573000Y-142261494D01*
X170783853Y-142770540D01*
X171173460Y-143160147D01*
X171388930Y-143249397D01*
X171234077Y-143313540D01*
X171166088Y-143554483D01*
X171958000Y-144346395D01*
X172749912Y-143554483D01*
X172681923Y-143313540D01*
X172515342Y-143254255D01*
X172742540Y-143160147D01*
X173132147Y-142770540D01*
X173343000Y-142261494D01*
X173343000Y-141710506D01*
X173132147Y-141201460D01*
X172948813Y-141018126D01*
X175495000Y-141018126D01*
X175495000Y-141429874D01*
X175652569Y-141810280D01*
X175865000Y-142022711D01*
X175864999Y-142965290D01*
X175747568Y-143082721D01*
X175589999Y-143463127D01*
X175589999Y-143874875D01*
X175747568Y-144255281D01*
X176038719Y-144546432D01*
X176419125Y-144704001D01*
X176830873Y-144704001D01*
X177211279Y-144546432D01*
X177502430Y-144255281D01*
X177659999Y-143874875D01*
X177659999Y-143463127D01*
X177502430Y-143082721D01*
X177384999Y-142965290D01*
X177384999Y-141832712D01*
X177407431Y-141810280D01*
X177511596Y-141558803D01*
X177818676Y-141686000D01*
X178797324Y-141686000D01*
X179701478Y-141311487D01*
X180393487Y-140619478D01*
X180768000Y-139715324D01*
X180768000Y-138736676D01*
X180393487Y-137832522D01*
X179701478Y-137140513D01*
X178828709Y-136779000D01*
X179701478Y-136417487D01*
X180393487Y-135725478D01*
X180768000Y-134821324D01*
X180768000Y-133842676D01*
X180393487Y-132938522D01*
X179701478Y-132246513D01*
X178797324Y-131872000D01*
X177818676Y-131872000D01*
X176914522Y-132246513D01*
X176222513Y-132938522D01*
X175848000Y-133842676D01*
X175848000Y-134821324D01*
X176222513Y-135725478D01*
X176914522Y-136417487D01*
X177787291Y-136779000D01*
X176914522Y-137140513D01*
X176222513Y-137832522D01*
X175848000Y-138736676D01*
X175848000Y-139715324D01*
X176085197Y-140287968D01*
X175943720Y-140346569D01*
X175652569Y-140637720D01*
X175495000Y-141018126D01*
X172948813Y-141018126D01*
X172742540Y-140811853D01*
X172233494Y-140601000D01*
X171682506Y-140601000D01*
X171173460Y-140811853D01*
X170783853Y-141201460D01*
X170573000Y-141710506D01*
X170382181Y-141710506D01*
X170592147Y-141500540D01*
X170803000Y-140991494D01*
X170803000Y-140440506D01*
X170592147Y-139931460D01*
X170202540Y-139541853D01*
X169693494Y-139331000D01*
X169142506Y-139331000D01*
X168633460Y-139541853D01*
X168243853Y-139931460D01*
X168033000Y-140440506D01*
X167509000Y-140440506D01*
X167509000Y-129854007D01*
X167659000Y-129491874D01*
X167659000Y-129080126D01*
X167501431Y-128699720D01*
X167210280Y-128408569D01*
X166829874Y-128251000D01*
X166418126Y-128251000D01*
X166064000Y-128397683D01*
X166064000Y-119682126D01*
X166097000Y-119682126D01*
X166097000Y-120093874D01*
X166254569Y-120474280D01*
X166372001Y-120591712D01*
X166372000Y-125026289D01*
X166254569Y-125143720D01*
X166097000Y-125524126D01*
X166097000Y-125935874D01*
X166254569Y-126316280D01*
X166545720Y-126607431D01*
X166926126Y-126765000D01*
X167337874Y-126765000D01*
X167718280Y-126607431D01*
X168009431Y-126316280D01*
X168033000Y-126259379D01*
X168033000Y-126767494D01*
X168243853Y-127276540D01*
X168633460Y-127666147D01*
X168864870Y-127762000D01*
X168633460Y-127857853D01*
X168243853Y-128247460D01*
X168033000Y-128756506D01*
X168033000Y-129307494D01*
X168243853Y-129816540D01*
X168633460Y-130206147D01*
X168864870Y-130302000D01*
X168633460Y-130397853D01*
X168243853Y-130787460D01*
X168033000Y-131296506D01*
X168033000Y-131847494D01*
X168243853Y-132356540D01*
X168633460Y-132746147D01*
X169142506Y-132957000D01*
X169693494Y-132957000D01*
X170202540Y-132746147D01*
X170560560Y-132388127D01*
X170560560Y-133592000D01*
X170609843Y-133839765D01*
X170750191Y-134049809D01*
X170960235Y-134190157D01*
X171208000Y-134239440D01*
X172708000Y-134239440D01*
X172955765Y-134190157D01*
X173165809Y-134049809D01*
X173306157Y-133839765D01*
X173355440Y-133592000D01*
X173355440Y-132092000D01*
X173306157Y-131844235D01*
X173165809Y-131634191D01*
X172955765Y-131493843D01*
X172763156Y-131455531D01*
X173132147Y-131086540D01*
X173343000Y-130577494D01*
X173343000Y-130026506D01*
X173132147Y-129517460D01*
X172742540Y-129127853D01*
X172527070Y-129038603D01*
X172681923Y-128974460D01*
X172749912Y-128733517D01*
X172588521Y-128572126D01*
X173463000Y-128572126D01*
X173463000Y-128983874D01*
X173620569Y-129364280D01*
X173911720Y-129655431D01*
X174292126Y-129813000D01*
X174703874Y-129813000D01*
X175084280Y-129655431D01*
X175375431Y-129364280D01*
X175533000Y-128983874D01*
X175533000Y-128572126D01*
X175375431Y-128191720D01*
X175084280Y-127900569D01*
X174703874Y-127743000D01*
X174292126Y-127743000D01*
X173911720Y-127900569D01*
X173620569Y-128191720D01*
X173463000Y-128572126D01*
X172588521Y-128572126D01*
X171958000Y-127941605D01*
X171166088Y-128733517D01*
X171234077Y-128974460D01*
X171400658Y-129033745D01*
X171173460Y-129127853D01*
X170783853Y-129517460D01*
X170573000Y-130026506D01*
X170573000Y-130577494D01*
X170783853Y-131086540D01*
X171152844Y-131455531D01*
X170960235Y-131493843D01*
X170803000Y-131598905D01*
X170803000Y-131296506D01*
X170592147Y-130787460D01*
X170202540Y-130397853D01*
X169971130Y-130302000D01*
X170202540Y-130206147D01*
X170592147Y-129816540D01*
X170803000Y-129307494D01*
X170803000Y-128756506D01*
X170592147Y-128247460D01*
X170202540Y-127857853D01*
X169971130Y-127762000D01*
X170202540Y-127666147D01*
X170311516Y-127557171D01*
X170560799Y-127557171D01*
X170588770Y-128107448D01*
X170745540Y-128485923D01*
X170986483Y-128553912D01*
X171778395Y-127762000D01*
X172137605Y-127762000D01*
X172929517Y-128553912D01*
X173170460Y-128485923D01*
X173355201Y-127966829D01*
X173327230Y-127416552D01*
X173170460Y-127038077D01*
X172929517Y-126970088D01*
X172137605Y-127762000D01*
X171778395Y-127762000D01*
X170986483Y-126970088D01*
X170745540Y-127038077D01*
X170560799Y-127557171D01*
X170311516Y-127557171D01*
X170592147Y-127276540D01*
X170803000Y-126767494D01*
X170803000Y-126216506D01*
X170592147Y-125707460D01*
X170202540Y-125317853D01*
X169971130Y-125222000D01*
X170202540Y-125126147D01*
X170382181Y-124946506D01*
X170573000Y-124946506D01*
X170573000Y-125497494D01*
X170783853Y-126006540D01*
X171173460Y-126396147D01*
X171388930Y-126485397D01*
X171234077Y-126549540D01*
X171166088Y-126790483D01*
X171958000Y-127582395D01*
X172749912Y-126790483D01*
X172681923Y-126549540D01*
X172515342Y-126490255D01*
X172742540Y-126396147D01*
X173132147Y-126006540D01*
X173343000Y-125497494D01*
X173343000Y-124946506D01*
X173132147Y-124437460D01*
X172742540Y-124047853D01*
X172233494Y-123837000D01*
X171682506Y-123837000D01*
X171173460Y-124047853D01*
X170783853Y-124437460D01*
X170573000Y-124946506D01*
X170382181Y-124946506D01*
X170592147Y-124736540D01*
X170803000Y-124227494D01*
X170803000Y-123676506D01*
X170592147Y-123167460D01*
X170202540Y-122777853D01*
X169693494Y-122567000D01*
X169142506Y-122567000D01*
X168633460Y-122777853D01*
X168243853Y-123167460D01*
X168033000Y-123676506D01*
X168033000Y-124227494D01*
X168243853Y-124736540D01*
X168633460Y-125126147D01*
X168864870Y-125222000D01*
X168633460Y-125317853D01*
X168243853Y-125707460D01*
X168167000Y-125893000D01*
X168167000Y-125524126D01*
X168009431Y-125143720D01*
X167892000Y-125026289D01*
X167892000Y-121972676D01*
X175848000Y-121972676D01*
X175848000Y-122951324D01*
X176222513Y-123855478D01*
X176914522Y-124547487D01*
X177818676Y-124922000D01*
X178797324Y-124922000D01*
X179701478Y-124547487D01*
X180393487Y-123855478D01*
X180768000Y-122951324D01*
X180768000Y-121972676D01*
X180393487Y-121068522D01*
X179701478Y-120376513D01*
X178797324Y-120002000D01*
X177818676Y-120002000D01*
X176914522Y-120376513D01*
X176222513Y-121068522D01*
X175848000Y-121972676D01*
X167892000Y-121972676D01*
X167892000Y-120591711D01*
X168009431Y-120474280D01*
X168167000Y-120093874D01*
X168167000Y-119682126D01*
X168009431Y-119301720D01*
X167718280Y-119010569D01*
X167337874Y-118853000D01*
X166926126Y-118853000D01*
X166545720Y-119010569D01*
X166254569Y-119301720D01*
X166097000Y-119682126D01*
X166064000Y-119682126D01*
X166064000Y-110772000D01*
X167878560Y-110772000D01*
X167878560Y-114272000D01*
X167927843Y-114519765D01*
X168068191Y-114729809D01*
X168278235Y-114870157D01*
X168526000Y-114919440D01*
X171209995Y-114919440D01*
X171068191Y-115014191D01*
X170927843Y-115224235D01*
X170878560Y-115472000D01*
X170878560Y-118972000D01*
X170927843Y-119219765D01*
X171068191Y-119429809D01*
X171278235Y-119570157D01*
X171526000Y-119619440D01*
X175026000Y-119619440D01*
X175273765Y-119570157D01*
X175483809Y-119429809D01*
X175624157Y-119219765D01*
X175673440Y-118972000D01*
X175673440Y-115472000D01*
X175624157Y-115224235D01*
X175483809Y-115014191D01*
X175323388Y-114907000D01*
X175990250Y-114907000D01*
X176149000Y-114748250D01*
X176149000Y-112649000D01*
X176403000Y-112649000D01*
X176403000Y-114748250D01*
X176561750Y-114907000D01*
X178152309Y-114907000D01*
X178385698Y-114810327D01*
X178564327Y-114631699D01*
X178596511Y-114554000D01*
X182127908Y-114554000D01*
X182243161Y-115133418D01*
X182571375Y-115624625D01*
X182757000Y-115748656D01*
X182757001Y-128209991D01*
X182607000Y-128572126D01*
X182607000Y-128983874D01*
X182764569Y-129364280D01*
X183055720Y-129655431D01*
X183436126Y-129813000D01*
X183847874Y-129813000D01*
X184228280Y-129655431D01*
X184519431Y-129364280D01*
X184677000Y-128983874D01*
X184677000Y-128572126D01*
X184527000Y-128209993D01*
X184527000Y-115748656D01*
X184712625Y-115624625D01*
X184912000Y-115326239D01*
X185111375Y-115624625D01*
X185602582Y-115952839D01*
X186035744Y-116039000D01*
X186328256Y-116039000D01*
X186761418Y-115952839D01*
X187252625Y-115624625D01*
X187452000Y-115326239D01*
X187651375Y-115624625D01*
X187962000Y-115832178D01*
X187962001Y-118439144D01*
X187962000Y-118439149D01*
X187962001Y-155760288D01*
X187844569Y-155877720D01*
X187687000Y-156258126D01*
X187687000Y-156669874D01*
X187844569Y-157050280D01*
X188135720Y-157341431D01*
X188516126Y-157499000D01*
X188927874Y-157499000D01*
X189308280Y-157341431D01*
X189599431Y-157050280D01*
X189757000Y-156669874D01*
X189757000Y-156258126D01*
X189599431Y-155877720D01*
X189482000Y-155760289D01*
X189482000Y-151114676D01*
X214964000Y-151114676D01*
X214964000Y-152093324D01*
X215338513Y-152997478D01*
X216030522Y-153689487D01*
X216934676Y-154064000D01*
X217913324Y-154064000D01*
X218817478Y-153689487D01*
X219509487Y-152997478D01*
X219884000Y-152093324D01*
X219884000Y-151114676D01*
X219509487Y-150210522D01*
X218817478Y-149518513D01*
X217913324Y-149144000D01*
X216934676Y-149144000D01*
X216030522Y-149518513D01*
X215338513Y-150210522D01*
X214964000Y-151114676D01*
X189482000Y-151114676D01*
X189482000Y-124960916D01*
X189622569Y-125300280D01*
X189740001Y-125417712D01*
X189740000Y-132709468D01*
X189725112Y-132784315D01*
X189740000Y-132859162D01*
X189740000Y-132859166D01*
X189784096Y-133080851D01*
X189825038Y-133142126D01*
X189719000Y-133398126D01*
X189719000Y-133809874D01*
X189876569Y-134190280D01*
X190167720Y-134481431D01*
X190548126Y-134639000D01*
X190756001Y-134639000D01*
X190756000Y-141536289D01*
X190638569Y-141653720D01*
X190481000Y-142034126D01*
X190481000Y-142445874D01*
X190638569Y-142826280D01*
X190929720Y-143117431D01*
X191310126Y-143275000D01*
X191721874Y-143275000D01*
X192102280Y-143117431D01*
X192393431Y-142826280D01*
X192551000Y-142445874D01*
X192551000Y-142034126D01*
X192393431Y-141653720D01*
X192276000Y-141536289D01*
X192276000Y-134310947D01*
X192317929Y-134282931D01*
X192485904Y-134031539D01*
X192530000Y-133809854D01*
X192530000Y-133809850D01*
X192544888Y-133735003D01*
X192530000Y-133660156D01*
X192530000Y-118305711D01*
X192647431Y-118188280D01*
X192805000Y-117807874D01*
X192805000Y-117396126D01*
X192647431Y-117015720D01*
X192356280Y-116724569D01*
X191975874Y-116567000D01*
X191564126Y-116567000D01*
X191183720Y-116724569D01*
X190892569Y-117015720D01*
X190735000Y-117396126D01*
X190735000Y-117807874D01*
X190892569Y-118188280D01*
X191010001Y-118305712D01*
X191010001Y-123804973D01*
X190705874Y-123679000D01*
X190294126Y-123679000D01*
X189913720Y-123836569D01*
X189622569Y-124127720D01*
X189482000Y-124467084D01*
X189482000Y-115832178D01*
X189792625Y-115624625D01*
X189804816Y-115606381D01*
X189813843Y-115651765D01*
X189954191Y-115861809D01*
X190164235Y-116002157D01*
X190412000Y-116051440D01*
X192112000Y-116051440D01*
X192359765Y-116002157D01*
X192569809Y-115861809D01*
X192710157Y-115651765D01*
X192759440Y-115404000D01*
X192759440Y-113704000D01*
X192710157Y-113456235D01*
X192569809Y-113246191D01*
X192359765Y-113105843D01*
X192112000Y-113056560D01*
X190412000Y-113056560D01*
X190164235Y-113105843D01*
X189954191Y-113246191D01*
X189813843Y-113456235D01*
X189804816Y-113501619D01*
X189792625Y-113483375D01*
X189301418Y-113155161D01*
X188868256Y-113069000D01*
X188575744Y-113069000D01*
X188142582Y-113155161D01*
X187651375Y-113483375D01*
X187452000Y-113781761D01*
X187252625Y-113483375D01*
X186761418Y-113155161D01*
X186328256Y-113069000D01*
X186035744Y-113069000D01*
X185602582Y-113155161D01*
X185111375Y-113483375D01*
X184912000Y-113781761D01*
X184712625Y-113483375D01*
X184221418Y-113155161D01*
X183788256Y-113069000D01*
X183495744Y-113069000D01*
X183062582Y-113155161D01*
X182571375Y-113483375D01*
X182243161Y-113974582D01*
X182127908Y-114554000D01*
X178596511Y-114554000D01*
X178661000Y-114398310D01*
X178661000Y-112807750D01*
X178502250Y-112649000D01*
X176403000Y-112649000D01*
X176149000Y-112649000D01*
X174049750Y-112649000D01*
X173891000Y-112807750D01*
X173891000Y-114398310D01*
X173987673Y-114631699D01*
X174166302Y-114810327D01*
X174200663Y-114824560D01*
X172342005Y-114824560D01*
X172483809Y-114729809D01*
X172624157Y-114519765D01*
X172673440Y-114272000D01*
X172673440Y-110772000D01*
X172648316Y-110645690D01*
X173891000Y-110645690D01*
X173891000Y-112236250D01*
X174049750Y-112395000D01*
X176149000Y-112395000D01*
X176149000Y-110295750D01*
X175990250Y-110137000D01*
X174399691Y-110137000D01*
X174166302Y-110233673D01*
X173987673Y-110412301D01*
X173891000Y-110645690D01*
X172648316Y-110645690D01*
X172624157Y-110524235D01*
X172483809Y-110314191D01*
X172273765Y-110173843D01*
X172026000Y-110124560D01*
X168526000Y-110124560D01*
X168278235Y-110173843D01*
X168068191Y-110314191D01*
X167927843Y-110524235D01*
X167878560Y-110772000D01*
X166064000Y-110772000D01*
X166064000Y-107136000D01*
X178742094Y-107136000D01*
X178386859Y-107491235D01*
X178386859Y-107491235D01*
G37*
X178386859Y-107491235D02*
X177990500Y-108448132D01*
X177990500Y-109483868D01*
X178283554Y-110191363D01*
X178152309Y-110137000D01*
X176561750Y-110137000D01*
X176403000Y-110295750D01*
X176403000Y-112395000D01*
X178502250Y-112395000D01*
X178661000Y-112236250D01*
X178661000Y-110714906D01*
X179119235Y-111173141D01*
X180076132Y-111569500D01*
X181111868Y-111569500D01*
X182068765Y-111173141D01*
X182801141Y-110440765D01*
X183197500Y-109483868D01*
X183197500Y-108448132D01*
X182801141Y-107491235D01*
X182445906Y-107136000D01*
X188715363Y-107136000D01*
X188684918Y-107142056D01*
X188222820Y-107450821D01*
X187914056Y-107912919D01*
X187833000Y-108320413D01*
X187833000Y-109611588D01*
X187914056Y-110019082D01*
X188222821Y-110481180D01*
X188684919Y-110789944D01*
X189230000Y-110898368D01*
X189775082Y-110789944D01*
X190237180Y-110481180D01*
X190500000Y-110087842D01*
X190762821Y-110481180D01*
X191224919Y-110789944D01*
X191770000Y-110898368D01*
X192315082Y-110789944D01*
X192777180Y-110481180D01*
X193040000Y-110087842D01*
X193302821Y-110481180D01*
X193764919Y-110789944D01*
X194310000Y-110898368D01*
X194601569Y-110840371D01*
X195081990Y-111320792D01*
X195081989Y-125806560D01*
X193510000Y-125806560D01*
X193262235Y-125855843D01*
X193052191Y-125996191D01*
X192911843Y-126206235D01*
X192862560Y-126454000D01*
X192862560Y-128054000D01*
X192911843Y-128301765D01*
X193052191Y-128511809D01*
X193262235Y-128652157D01*
X193396106Y-128678785D01*
X193275423Y-128759423D01*
X192958260Y-129234091D01*
X192846887Y-129794000D01*
X192958260Y-130353909D01*
X193275423Y-130828577D01*
X193627758Y-131064000D01*
X193275423Y-131299423D01*
X192958260Y-131774091D01*
X192846887Y-132334000D01*
X192958260Y-132893909D01*
X193275423Y-133368577D01*
X193627758Y-133604000D01*
X193275423Y-133839423D01*
X192958260Y-134314091D01*
X192846887Y-134874000D01*
X192958260Y-135433909D01*
X193275423Y-135908577D01*
X193627758Y-136144000D01*
X193275423Y-136379423D01*
X192958260Y-136854091D01*
X192846887Y-137414000D01*
X192958260Y-137973909D01*
X193275423Y-138448577D01*
X193627758Y-138684000D01*
X193275423Y-138919423D01*
X192958260Y-139394091D01*
X192846887Y-139954000D01*
X192958260Y-140513909D01*
X193275423Y-140988577D01*
X193627758Y-141224000D01*
X193275423Y-141459423D01*
X192958260Y-141934091D01*
X192846887Y-142494000D01*
X192958260Y-143053909D01*
X193275423Y-143528577D01*
X193627758Y-143764000D01*
X193275423Y-143999423D01*
X192958260Y-144474091D01*
X192846887Y-145034000D01*
X192958260Y-145593909D01*
X193275423Y-146068577D01*
X193750091Y-146385740D01*
X194168667Y-146469000D01*
X194451333Y-146469000D01*
X194869909Y-146385740D01*
X195344577Y-146068577D01*
X195661740Y-145593909D01*
X195703684Y-145383039D01*
X200538096Y-145383039D01*
X200698959Y-145771423D01*
X201074866Y-146186389D01*
X201580959Y-146425914D01*
X201803000Y-146304629D01*
X201803000Y-145161000D01*
X202057000Y-145161000D01*
X202057000Y-146304629D01*
X202279041Y-146425914D01*
X202785134Y-146186389D01*
X203161041Y-145771423D01*
X203321904Y-145383039D01*
X203199915Y-145161000D01*
X202057000Y-145161000D01*
X201803000Y-145161000D01*
X200660085Y-145161000D01*
X200538096Y-145383039D01*
X195703684Y-145383039D01*
X195773113Y-145034000D01*
X195661740Y-144474091D01*
X195344577Y-143999423D01*
X194992242Y-143764000D01*
X195344577Y-143528577D01*
X195528043Y-143254000D01*
X196775153Y-143254000D01*
X196850000Y-143268888D01*
X196924847Y-143254000D01*
X196924852Y-143254000D01*
X197146537Y-143209904D01*
X197397929Y-143041929D01*
X197440330Y-142978471D01*
X197842475Y-142576327D01*
X197905929Y-142533929D01*
X197948327Y-142470476D01*
X197948329Y-142470474D01*
X198073903Y-142282538D01*
X198073904Y-142282537D01*
X198118000Y-142060852D01*
X198118000Y-142060848D01*
X198132888Y-141986001D01*
X198118000Y-141911154D01*
X198118000Y-127254000D01*
X200466887Y-127254000D01*
X200578260Y-127813909D01*
X200895423Y-128288577D01*
X201247758Y-128524000D01*
X200895423Y-128759423D01*
X200578260Y-129234091D01*
X200466887Y-129794000D01*
X200578260Y-130353909D01*
X200895423Y-130828577D01*
X201247758Y-131064000D01*
X200895423Y-131299423D01*
X200578260Y-131774091D01*
X200466887Y-132334000D01*
X200578260Y-132893909D01*
X200895423Y-133368577D01*
X201247758Y-133604000D01*
X200895423Y-133839423D01*
X200578260Y-134314091D01*
X200466887Y-134874000D01*
X200578260Y-135433909D01*
X200895423Y-135908577D01*
X201247758Y-136144000D01*
X200895423Y-136379423D01*
X200578260Y-136854091D01*
X200466887Y-137414000D01*
X200578260Y-137973909D01*
X200895423Y-138448577D01*
X201247758Y-138684000D01*
X200895423Y-138919423D01*
X200578260Y-139394091D01*
X200466887Y-139954000D01*
X200578260Y-140513909D01*
X200895423Y-140988577D01*
X201247758Y-141224000D01*
X200895423Y-141459423D01*
X200578260Y-141934091D01*
X200466887Y-142494000D01*
X200578260Y-143053909D01*
X200895423Y-143528577D01*
X201279108Y-143784947D01*
X201074866Y-143881611D01*
X200698959Y-144296577D01*
X200538096Y-144684961D01*
X200660085Y-144907000D01*
X201803000Y-144907000D01*
X201803000Y-144887000D01*
X202057000Y-144887000D01*
X202057000Y-144907000D01*
X203199915Y-144907000D01*
X203321904Y-144684961D01*
X203161041Y-144296577D01*
X202785134Y-143881611D01*
X202580892Y-143784947D01*
X202964577Y-143528577D01*
X203281740Y-143053909D01*
X203393113Y-142494000D01*
X203281740Y-141934091D01*
X202964577Y-141459423D01*
X202612242Y-141224000D01*
X202964577Y-140988577D01*
X203281740Y-140513909D01*
X203393113Y-139954000D01*
X203281740Y-139394091D01*
X202964577Y-138919423D01*
X202612242Y-138684000D01*
X202964577Y-138448577D01*
X203281740Y-137973909D01*
X203393113Y-137414000D01*
X203281740Y-136854091D01*
X202964577Y-136379423D01*
X202612242Y-136144000D01*
X202964577Y-135908577D01*
X203281740Y-135433909D01*
X203393113Y-134874000D01*
X203281740Y-134314091D01*
X202964577Y-133839423D01*
X202612242Y-133604000D01*
X202964577Y-133368577D01*
X203281740Y-132893909D01*
X203393113Y-132334000D01*
X203281740Y-131774091D01*
X202964577Y-131299423D01*
X202612242Y-131064000D01*
X202964577Y-130828577D01*
X203281740Y-130353909D01*
X203393113Y-129794000D01*
X203281740Y-129234091D01*
X202964577Y-128759423D01*
X202612242Y-128524000D01*
X202964577Y-128288577D01*
X203281740Y-127813909D01*
X203393113Y-127254000D01*
X203281740Y-126694091D01*
X202964577Y-126219423D01*
X202489909Y-125902260D01*
X202071333Y-125819000D01*
X201788667Y-125819000D01*
X201370091Y-125902260D01*
X200895423Y-126219423D01*
X200578260Y-126694091D01*
X200466887Y-127254000D01*
X198118000Y-127254000D01*
X198118000Y-113852801D01*
X201262594Y-110708209D01*
X201384919Y-110789944D01*
X201930000Y-110898368D01*
X202475082Y-110789944D01*
X202937180Y-110481180D01*
X203200000Y-110087842D01*
X203462821Y-110481180D01*
X203710001Y-110646340D01*
X203710000Y-119184289D01*
X203592569Y-119301720D01*
X203435000Y-119682126D01*
X203435000Y-120093874D01*
X203592569Y-120474280D01*
X203883720Y-120765431D01*
X204264126Y-120923000D01*
X204675874Y-120923000D01*
X205056280Y-120765431D01*
X205347431Y-120474280D01*
X205505000Y-120093874D01*
X205505000Y-119682126D01*
X205347431Y-119301720D01*
X205230000Y-119184289D01*
X205230000Y-110646340D01*
X205477180Y-110481180D01*
X205740000Y-110087842D01*
X206002821Y-110481180D01*
X206250001Y-110646340D01*
X206250000Y-123891197D01*
X205446198Y-124695000D01*
X205280126Y-124695000D01*
X204899720Y-124852569D01*
X204608569Y-125143720D01*
X204451000Y-125524126D01*
X204451000Y-125935874D01*
X204608569Y-126316280D01*
X204899720Y-126607431D01*
X205280126Y-126765000D01*
X205691874Y-126765000D01*
X206072280Y-126607431D01*
X206363431Y-126316280D01*
X206521000Y-125935874D01*
X206521000Y-125769802D01*
X207494476Y-124796327D01*
X207557929Y-124753929D01*
X207600327Y-124690476D01*
X207600329Y-124690474D01*
X207695869Y-124547487D01*
X207725904Y-124502537D01*
X207770000Y-124280852D01*
X207770000Y-124280848D01*
X207784888Y-124206001D01*
X207770000Y-124131154D01*
X207770000Y-110646340D01*
X208017180Y-110481180D01*
X208325944Y-110019082D01*
X208407000Y-109611588D01*
X208407000Y-108320412D01*
X208325944Y-107912918D01*
X208017179Y-107450820D01*
X207555081Y-107142056D01*
X207524636Y-107136000D01*
X210559363Y-107136000D01*
X210528918Y-107142056D01*
X210066820Y-107450821D01*
X209758056Y-107912919D01*
X209677000Y-108320413D01*
X209677000Y-109611588D01*
X209758056Y-110019082D01*
X210066821Y-110481180D01*
X210314000Y-110646340D01*
X210314001Y-129598288D01*
X210196569Y-129715720D01*
X210039000Y-130096126D01*
X210039000Y-130507874D01*
X210196569Y-130888280D01*
X210487720Y-131179431D01*
X210868126Y-131337000D01*
X211279874Y-131337000D01*
X211584000Y-131211027D01*
X211584000Y-146497198D01*
X211542198Y-146539000D01*
X211376126Y-146539000D01*
X210995720Y-146696569D01*
X210704569Y-146987720D01*
X210547000Y-147368126D01*
X210547000Y-147779874D01*
X210704569Y-148160280D01*
X210995720Y-148451431D01*
X211376126Y-148609000D01*
X211787874Y-148609000D01*
X212168280Y-148451431D01*
X212459431Y-148160280D01*
X212617000Y-147779874D01*
X212617000Y-147613802D01*
X212828473Y-147402329D01*
X212891929Y-147359929D01*
X213011486Y-147181000D01*
X213059904Y-147108538D01*
X213083936Y-146987720D01*
X213104000Y-146886852D01*
X213104000Y-146886848D01*
X213108001Y-146866735D01*
X213108001Y-148394288D01*
X212990569Y-148511720D01*
X212833000Y-148892126D01*
X212833000Y-149303874D01*
X212990569Y-149684280D01*
X213281720Y-149975431D01*
X213662126Y-150133000D01*
X214073874Y-150133000D01*
X214454280Y-149975431D01*
X214745431Y-149684280D01*
X214903000Y-149303874D01*
X214903000Y-148892126D01*
X214768953Y-148568506D01*
X222389000Y-148568506D01*
X222389000Y-149119494D01*
X222599853Y-149628540D01*
X222989460Y-150018147D01*
X223498506Y-150229000D01*
X224049494Y-150229000D01*
X224558540Y-150018147D01*
X224948147Y-149628540D01*
X225159000Y-149119494D01*
X225159000Y-148568506D01*
X224948147Y-148059460D01*
X224558540Y-147669853D01*
X224343070Y-147580603D01*
X224497923Y-147516460D01*
X224565912Y-147275517D01*
X223774000Y-146483605D01*
X222982088Y-147275517D01*
X223050077Y-147516460D01*
X223216658Y-147575745D01*
X222989460Y-147669853D01*
X222599853Y-148059460D01*
X222389000Y-148568506D01*
X214768953Y-148568506D01*
X214745431Y-148511720D01*
X214628000Y-148394289D01*
X214628000Y-140657711D01*
X214745431Y-140540280D01*
X214903000Y-140159874D01*
X214903000Y-139748126D01*
X214745431Y-139367720D01*
X214454280Y-139076569D01*
X214073874Y-138919000D01*
X213662126Y-138919000D01*
X213281720Y-139076569D01*
X213104000Y-139254289D01*
X213104000Y-113225711D01*
X213221431Y-113108280D01*
X213379000Y-112727874D01*
X213379000Y-112316126D01*
X213221431Y-111935720D01*
X212930280Y-111644569D01*
X212549874Y-111487000D01*
X212138126Y-111487000D01*
X211834000Y-111612973D01*
X211834000Y-110646340D01*
X212081180Y-110481180D01*
X212344000Y-110087842D01*
X212606821Y-110481180D01*
X213068919Y-110789944D01*
X213614000Y-110898368D01*
X213616001Y-110897970D01*
X213616000Y-131376289D01*
X213498569Y-131493720D01*
X213341000Y-131874126D01*
X213341000Y-132285874D01*
X213498569Y-132666280D01*
X213789720Y-132957431D01*
X214170126Y-133115000D01*
X214581874Y-133115000D01*
X214962280Y-132957431D01*
X215253431Y-132666280D01*
X215411000Y-132285874D01*
X215411000Y-131874126D01*
X215253431Y-131493720D01*
X215136000Y-131376289D01*
X215136000Y-123874569D01*
X215338513Y-124363478D01*
X216030522Y-125055487D01*
X216934676Y-125430000D01*
X217913324Y-125430000D01*
X218817478Y-125055487D01*
X219509487Y-124363478D01*
X219712000Y-123874569D01*
X219712001Y-133935433D01*
X219509487Y-133446522D01*
X218817478Y-132754513D01*
X217913324Y-132380000D01*
X216934676Y-132380000D01*
X216030522Y-132754513D01*
X215338513Y-133446522D01*
X214964000Y-134350676D01*
X214964000Y-135329324D01*
X215338513Y-136233478D01*
X216030522Y-136925487D01*
X216903291Y-137287000D01*
X216030522Y-137648513D01*
X215338513Y-138340522D01*
X214964000Y-139244676D01*
X214964000Y-140223324D01*
X215338513Y-141127478D01*
X216030522Y-141819487D01*
X216934676Y-142194000D01*
X217913324Y-142194000D01*
X218817478Y-141819487D01*
X219509487Y-141127478D01*
X219712001Y-140638567D01*
X219712001Y-146616288D01*
X219594569Y-146733720D01*
X219437000Y-147114126D01*
X219437000Y-147525874D01*
X219594569Y-147906280D01*
X219885720Y-148197431D01*
X220266126Y-148355000D01*
X220677874Y-148355000D01*
X221058280Y-148197431D01*
X221349431Y-147906280D01*
X221507000Y-147525874D01*
X221507000Y-147114126D01*
X221349431Y-146733720D01*
X221232000Y-146616289D01*
X221232000Y-146099171D01*
X222376799Y-146099171D01*
X222404770Y-146649448D01*
X222561540Y-147027923D01*
X222802483Y-147095912D01*
X223594395Y-146304000D01*
X223953605Y-146304000D01*
X224745517Y-147095912D01*
X224986460Y-147027923D01*
X225171201Y-146508829D01*
X225143230Y-145958552D01*
X224986460Y-145580077D01*
X224745517Y-145512088D01*
X223953605Y-146304000D01*
X223594395Y-146304000D01*
X222802483Y-145512088D01*
X222561540Y-145580077D01*
X222376799Y-146099171D01*
X221232000Y-146099171D01*
X221232000Y-131804506D01*
X222389000Y-131804506D01*
X222389000Y-132355494D01*
X222599853Y-132864540D01*
X222989460Y-133254147D01*
X223498506Y-133465000D01*
X224049494Y-133465000D01*
X224558540Y-133254147D01*
X224948147Y-132864540D01*
X225159000Y-132355494D01*
X225159000Y-131804506D01*
X224948147Y-131295460D01*
X224558540Y-130905853D01*
X224343070Y-130816603D01*
X224497923Y-130752460D01*
X224565912Y-130511517D01*
X223774000Y-129719605D01*
X222982088Y-130511517D01*
X223050077Y-130752460D01*
X223216658Y-130811745D01*
X222989460Y-130905853D01*
X222599853Y-131295460D01*
X222389000Y-131804506D01*
X221232000Y-131804506D01*
X221232000Y-129335171D01*
X222376799Y-129335171D01*
X222404770Y-129885448D01*
X222561540Y-130263923D01*
X222802483Y-130331912D01*
X223594395Y-129540000D01*
X223953605Y-129540000D01*
X224745517Y-130331912D01*
X224986460Y-130263923D01*
X225171201Y-129744829D01*
X225143230Y-129194552D01*
X224986460Y-128816077D01*
X224745517Y-128748088D01*
X223953605Y-129540000D01*
X223594395Y-129540000D01*
X222802483Y-128748088D01*
X222561540Y-128816077D01*
X222376799Y-129335171D01*
X221232000Y-129335171D01*
X221232000Y-120591711D01*
X221349431Y-120474280D01*
X221507000Y-120093874D01*
X221507000Y-119682126D01*
X221349431Y-119301720D01*
X221058280Y-119010569D01*
X220677874Y-118853000D01*
X220266126Y-118853000D01*
X219885720Y-119010569D01*
X219594569Y-119301720D01*
X219437000Y-119682126D01*
X219437000Y-120093874D01*
X219594569Y-120474280D01*
X219712000Y-120591711D01*
X219712000Y-122065431D01*
X219509487Y-121576522D01*
X218817478Y-120884513D01*
X217913324Y-120510000D01*
X216995711Y-120510000D01*
X217285431Y-120220280D01*
X217443000Y-119839874D01*
X217443000Y-119428126D01*
X217285431Y-119047720D01*
X217168000Y-118930289D01*
X217168000Y-110814846D01*
X217182888Y-110739999D01*
X217168000Y-110665152D01*
X217168000Y-110665148D01*
X217134899Y-110498740D01*
X217161180Y-110481180D01*
X217424000Y-110087842D01*
X217686821Y-110481180D01*
X218148919Y-110789944D01*
X218694000Y-110898368D01*
X219239082Y-110789944D01*
X219701180Y-110481180D01*
X219964000Y-110087842D01*
X220220001Y-110470973D01*
X220220000Y-111564289D01*
X220102569Y-111681720D01*
X219945000Y-112062126D01*
X219945000Y-112473874D01*
X220102569Y-112854280D01*
X220393720Y-113145431D01*
X220774126Y-113303000D01*
X221185874Y-113303000D01*
X221566280Y-113145431D01*
X221857431Y-112854280D01*
X222015000Y-112473874D01*
X222015000Y-112062126D01*
X221857431Y-111681720D01*
X221740000Y-111564289D01*
X221740000Y-110797718D01*
X221779082Y-110789944D01*
X222241180Y-110481180D01*
X222504000Y-110087842D01*
X222766821Y-110481180D01*
X223014001Y-110646340D01*
X223014000Y-116332106D01*
X222679720Y-116470569D01*
X222388569Y-116761720D01*
X222231000Y-117142126D01*
X222231000Y-117553874D01*
X222388569Y-117934280D01*
X222679720Y-118225431D01*
X223060126Y-118383000D01*
X223471874Y-118383000D01*
X223852280Y-118225431D01*
X224143431Y-117934280D01*
X224301000Y-117553874D01*
X224301000Y-117401913D01*
X224321929Y-117387929D01*
X224364327Y-117324476D01*
X224364329Y-117324474D01*
X224448102Y-117199098D01*
X224489904Y-117136537D01*
X224534000Y-116914852D01*
X224534000Y-116914848D01*
X224548888Y-116840001D01*
X224534000Y-116765154D01*
X224534000Y-110646340D01*
X224781180Y-110481180D01*
X225044000Y-110087842D01*
X225306821Y-110481180D01*
X225768919Y-110789944D01*
X226314000Y-110898368D01*
X226859082Y-110789944D01*
X227321180Y-110481180D01*
X227584000Y-110087842D01*
X227846821Y-110481180D01*
X228308919Y-110789944D01*
X228854000Y-110898368D01*
X229399082Y-110789944D01*
X229861180Y-110481180D01*
X230169944Y-110019082D01*
X230251000Y-109611588D01*
X230251000Y-108320412D01*
X230169944Y-107912918D01*
X229861179Y-107450820D01*
X229399081Y-107142056D01*
X229368636Y-107136000D01*
X229829910Y-107136000D01*
X230684000Y-107990091D01*
X230684001Y-119056071D01*
X230670091Y-119126000D01*
X230712673Y-119340071D01*
X230725196Y-119403028D01*
X230882120Y-119637881D01*
X230941402Y-119677492D01*
X233224000Y-121960091D01*
X233224000Y-122354094D01*
X232868765Y-121998859D01*
X231911868Y-121602500D01*
X230876132Y-121602500D01*
X229919235Y-121998859D01*
X229186859Y-122731235D01*
X228790500Y-123688132D01*
X228790500Y-124723868D01*
X229186859Y-125680765D01*
X229919235Y-126413141D01*
X230876132Y-126809500D01*
X231911868Y-126809500D01*
X232868765Y-126413141D01*
X233224000Y-126057906D01*
X233224001Y-150294095D01*
X232868765Y-149938859D01*
X231911868Y-149542500D01*
X230876132Y-149542500D01*
X229919235Y-149938859D01*
X229231000Y-150627094D01*
X229231000Y-145094007D01*
X229381000Y-144731874D01*
X229381000Y-144320126D01*
X229231000Y-143957993D01*
X229231000Y-129144578D01*
X229586148Y-128789431D01*
X229948280Y-128639431D01*
X230239431Y-128348280D01*
X230397000Y-127967874D01*
X230397000Y-127556126D01*
X230239431Y-127175720D01*
X229948280Y-126884569D01*
X229567874Y-126727000D01*
X229156126Y-126727000D01*
X228775720Y-126884569D01*
X228484569Y-127175720D01*
X228334569Y-127537852D01*
X227781847Y-128090575D01*
X227707951Y-128139951D01*
X227699000Y-128153347D01*
X227699000Y-127994506D01*
X227488147Y-127485460D01*
X227098540Y-127095853D01*
X226867130Y-127000000D01*
X227098540Y-126904147D01*
X227488147Y-126514540D01*
X227699000Y-126005494D01*
X227699000Y-125454506D01*
X227488147Y-124945460D01*
X227098540Y-124555853D01*
X226589494Y-124345000D01*
X226038506Y-124345000D01*
X225529460Y-124555853D01*
X225171440Y-124913873D01*
X225171440Y-123710000D01*
X225122157Y-123462235D01*
X224981809Y-123252191D01*
X224771765Y-123111843D01*
X224524000Y-123062560D01*
X223024000Y-123062560D01*
X222776235Y-123111843D01*
X222566191Y-123252191D01*
X222425843Y-123462235D01*
X222376560Y-123710000D01*
X222376560Y-125210000D01*
X222425843Y-125457765D01*
X222566191Y-125667809D01*
X222776235Y-125808157D01*
X222968844Y-125846469D01*
X222599853Y-126215460D01*
X222389000Y-126724506D01*
X222389000Y-127275494D01*
X222599853Y-127784540D01*
X222989460Y-128174147D01*
X223204930Y-128263397D01*
X223050077Y-128327540D01*
X222982088Y-128568483D01*
X223774000Y-129360395D01*
X224565912Y-128568483D01*
X224497923Y-128327540D01*
X224331342Y-128268255D01*
X224558540Y-128174147D01*
X224948147Y-127784540D01*
X225159000Y-127275494D01*
X225159000Y-126724506D01*
X224948147Y-126215460D01*
X224579156Y-125846469D01*
X224771765Y-125808157D01*
X224929000Y-125703095D01*
X224929000Y-126005494D01*
X225139853Y-126514540D01*
X225529460Y-126904147D01*
X225760870Y-127000000D01*
X225529460Y-127095853D01*
X225139853Y-127485460D01*
X224929000Y-127994506D01*
X224929000Y-128545494D01*
X225139853Y-129054540D01*
X225529460Y-129444147D01*
X225760870Y-129540000D01*
X225529460Y-129635853D01*
X225139853Y-130025460D01*
X224929000Y-130534506D01*
X224929000Y-131085494D01*
X225139853Y-131594540D01*
X225529460Y-131984147D01*
X225760870Y-132080000D01*
X225529460Y-132175853D01*
X225139853Y-132565460D01*
X224929000Y-133074506D01*
X224929000Y-133625494D01*
X225139853Y-134134540D01*
X225300001Y-134294688D01*
X225300000Y-136710289D01*
X225182569Y-136827720D01*
X225025000Y-137208126D01*
X225025000Y-137619874D01*
X225182569Y-138000280D01*
X225473720Y-138291431D01*
X225854126Y-138449000D01*
X226265874Y-138449000D01*
X226646280Y-138291431D01*
X226937431Y-138000280D01*
X227095000Y-137619874D01*
X227095000Y-137208126D01*
X226937431Y-136827720D01*
X226820000Y-136710289D01*
X226820000Y-134639522D01*
X227098540Y-134524147D01*
X227461000Y-134161687D01*
X227461001Y-141682314D01*
X227098540Y-141319853D01*
X226589494Y-141109000D01*
X226038506Y-141109000D01*
X225529460Y-141319853D01*
X225171440Y-141677873D01*
X225171440Y-140474000D01*
X225122157Y-140226235D01*
X224981809Y-140016191D01*
X224771765Y-139875843D01*
X224524000Y-139826560D01*
X223024000Y-139826560D01*
X222776235Y-139875843D01*
X222566191Y-140016191D01*
X222425843Y-140226235D01*
X222376560Y-140474000D01*
X222376560Y-141974000D01*
X222425843Y-142221765D01*
X222566191Y-142431809D01*
X222776235Y-142572157D01*
X222968844Y-142610469D01*
X222599853Y-142979460D01*
X222389000Y-143488506D01*
X222389000Y-144039494D01*
X222599853Y-144548540D01*
X222989460Y-144938147D01*
X223204930Y-145027397D01*
X223050077Y-145091540D01*
X222982088Y-145332483D01*
X223774000Y-146124395D01*
X224565912Y-145332483D01*
X224497923Y-145091540D01*
X224331342Y-145032255D01*
X224558540Y-144938147D01*
X224948147Y-144548540D01*
X225159000Y-144039494D01*
X225159000Y-143488506D01*
X224948147Y-142979460D01*
X224579156Y-142610469D01*
X224771765Y-142572157D01*
X224929000Y-142467095D01*
X224929000Y-142769494D01*
X225139853Y-143278540D01*
X225529460Y-143668147D01*
X225760870Y-143764000D01*
X225529460Y-143859853D01*
X225139853Y-144249460D01*
X224929000Y-144758506D01*
X224929000Y-145309494D01*
X225139853Y-145818540D01*
X225529460Y-146208147D01*
X225760870Y-146304000D01*
X225529460Y-146399853D01*
X225139853Y-146789460D01*
X224929000Y-147298506D01*
X224929000Y-147849494D01*
X225139853Y-148358540D01*
X225529460Y-148748147D01*
X225760870Y-148844000D01*
X225529460Y-148939853D01*
X225139853Y-149329460D01*
X224929000Y-149838506D01*
X224929000Y-150389494D01*
X225139853Y-150898540D01*
X225529460Y-151288147D01*
X226038506Y-151499000D01*
X226589494Y-151499000D01*
X227098540Y-151288147D01*
X227461001Y-150925686D01*
X227461001Y-153863991D01*
X227311000Y-154226126D01*
X227311000Y-154637874D01*
X227468569Y-155018280D01*
X227759720Y-155309431D01*
X228140126Y-155467000D01*
X228211723Y-155467000D01*
X227846820Y-155710821D01*
X227584000Y-156104159D01*
X227321179Y-155710820D01*
X226859081Y-155402056D01*
X226314000Y-155293632D01*
X225768918Y-155402056D01*
X225306820Y-155710821D01*
X225044000Y-156104159D01*
X224781179Y-155710820D01*
X224319081Y-155402056D01*
X223774000Y-155293632D01*
X223228918Y-155402056D01*
X222766820Y-155710821D01*
X222504000Y-156104159D01*
X222241179Y-155710820D01*
X221779081Y-155402056D01*
X221234000Y-155293632D01*
X220688918Y-155402056D01*
X220226820Y-155710821D01*
X219964000Y-156104159D01*
X219701179Y-155710820D01*
X219239081Y-155402056D01*
X218694000Y-155293632D01*
X218148918Y-155402056D01*
X217686820Y-155710821D01*
X217424000Y-156104159D01*
X217161179Y-155710820D01*
X216699081Y-155402056D01*
X216154000Y-155293632D01*
X215608918Y-155402056D01*
X215146820Y-155710821D01*
X214838056Y-156172919D01*
X214757000Y-156580413D01*
X214757000Y-157871588D01*
X214838056Y-158279082D01*
X215146821Y-158741180D01*
X215608919Y-159049944D01*
X215639364Y-159056000D01*
X211522993Y-159056000D01*
X211972026Y-158811630D01*
X212316059Y-158385941D01*
X212471000Y-157861000D01*
X212471000Y-157353000D01*
X211201000Y-157353000D01*
X211201000Y-157373000D01*
X210947000Y-157373000D01*
X210947000Y-157353000D01*
X210927000Y-157353000D01*
X210927000Y-157099000D01*
X210947000Y-157099000D01*
X210947000Y-155486280D01*
X211201000Y-155486280D01*
X211201000Y-157099000D01*
X212471000Y-157099000D01*
X212471000Y-156591000D01*
X212316059Y-156066059D01*
X211972026Y-155640370D01*
X211491277Y-155378740D01*
X211417070Y-155363780D01*
X211201000Y-155486280D01*
X210947000Y-155486280D01*
X210730930Y-155363780D01*
X210656723Y-155378740D01*
X210175974Y-155640370D01*
X209831941Y-156066059D01*
X209815580Y-156121489D01*
X209541179Y-155710820D01*
X209079081Y-155402056D01*
X208534000Y-155293632D01*
X207988918Y-155402056D01*
X207526820Y-155710821D01*
X207264000Y-156104159D01*
X207001179Y-155710820D01*
X206539081Y-155402056D01*
X205994000Y-155293632D01*
X205448918Y-155402056D01*
X204986820Y-155710821D01*
X204724000Y-156104159D01*
X204461179Y-155710820D01*
X203999081Y-155402056D01*
X203454000Y-155293632D01*
X202908918Y-155402056D01*
X202446820Y-155710821D01*
X202184000Y-156104159D01*
X201921179Y-155710820D01*
X201799000Y-155629183D01*
X201799000Y-155000007D01*
X201949000Y-154637874D01*
X201949000Y-154226126D01*
X201791431Y-153845720D01*
X201500280Y-153554569D01*
X201119874Y-153397000D01*
X200708126Y-153397000D01*
X200327720Y-153554569D01*
X200036569Y-153845720D01*
X199879000Y-154226126D01*
X199879000Y-154637874D01*
X200029001Y-155000009D01*
X200029001Y-155629182D01*
X199906820Y-155710821D01*
X199644000Y-156104159D01*
X199381179Y-155710820D01*
X198919081Y-155402056D01*
X198374000Y-155293632D01*
X197828918Y-155402056D01*
X197366820Y-155710821D01*
X197058056Y-156172919D01*
X196977000Y-156580413D01*
X196977000Y-157871588D01*
X197058056Y-158279082D01*
X197366821Y-158741180D01*
X197828919Y-159049944D01*
X197859364Y-159056000D01*
X181175906Y-159056000D01*
X181531141Y-158700765D01*
X181927500Y-157743868D01*
X181927500Y-156708132D01*
X181531141Y-155751235D01*
X180798765Y-155018859D01*
X179841868Y-154622500D01*
X178806132Y-154622500D01*
X177849235Y-155018859D01*
X177116859Y-155751235D01*
X176720500Y-156708132D01*
X176720500Y-157743868D01*
X177116859Y-158700765D01*
X177472094Y-159056000D01*
X166064000Y-159056000D01*
X166064000Y-155320317D01*
X166418126Y-155467000D01*
X166829874Y-155467000D01*
X167210280Y-155309431D01*
X167501431Y-155018280D01*
X167659000Y-154637874D01*
X167659000Y-154226126D01*
X167509000Y-153863993D01*
X167509000Y-146618007D01*
X167659000Y-146255874D01*
X167659000Y-145844126D01*
X167509000Y-145481993D01*
X167509000Y-140440506D01*
X168033000Y-140440506D01*
X168033000Y-140991494D01*
X168243853Y-141500540D01*
X168633460Y-141890147D01*
X168864870Y-141986000D01*
X168633460Y-142081853D01*
X168243853Y-142471460D01*
X168033000Y-142980506D01*
X168033000Y-143531494D01*
X168243853Y-144040540D01*
X168633460Y-144430147D01*
X168864870Y-144526000D01*
X168633460Y-144621853D01*
X168243853Y-145011460D01*
X168033000Y-145520506D01*
X168033000Y-146071494D01*
X168243853Y-146580540D01*
X168633460Y-146970147D01*
X168864870Y-147066000D01*
X168633460Y-147161853D01*
X168243853Y-147551460D01*
X168033000Y-148060506D01*
X168033000Y-148611494D01*
X168243853Y-149120540D01*
X168633460Y-149510147D01*
X169142506Y-149721000D01*
X169693494Y-149721000D01*
X170202540Y-149510147D01*
X170560560Y-149152127D01*
X170560560Y-150356000D01*
X170609843Y-150603765D01*
X170750191Y-150813809D01*
X170960235Y-150954157D01*
X171208000Y-151003440D01*
X172708000Y-151003440D01*
X172955765Y-150954157D01*
X173165809Y-150813809D01*
X173304211Y-150606676D01*
X175848000Y-150606676D01*
X175848000Y-151585324D01*
X176222513Y-152489478D01*
X176914522Y-153181487D01*
X177818676Y-153556000D01*
X178797324Y-153556000D01*
X179701478Y-153181487D01*
X180393487Y-152489478D01*
X180768000Y-151585324D01*
X180768000Y-150606676D01*
X180393487Y-149702522D01*
X179701478Y-149010513D01*
X178797324Y-148636000D01*
X177818676Y-148636000D01*
X176914522Y-149010513D01*
X176222513Y-149702522D01*
X175848000Y-150606676D01*
X173304211Y-150606676D01*
X173306157Y-150603765D01*
X173355440Y-150356000D01*
X173355440Y-148856000D01*
X173306157Y-148608235D01*
X173165809Y-148398191D01*
X172955765Y-148257843D01*
X172763156Y-148219531D01*
X173132147Y-147850540D01*
X173209000Y-147665000D01*
X173209000Y-148033874D01*
X173366569Y-148414280D01*
X173657720Y-148705431D01*
X174038126Y-148863000D01*
X174449874Y-148863000D01*
X174830280Y-148705431D01*
X175121431Y-148414280D01*
X175279000Y-148033874D01*
X175279000Y-147622126D01*
X175121431Y-147241720D01*
X175004000Y-147124289D01*
X175004000Y-143959711D01*
X175121431Y-143842280D01*
X175279000Y-143461874D01*
X175279000Y-143050126D01*
X175121431Y-142669720D01*
X174830280Y-142378569D01*
X174449874Y-142221000D01*
X174038126Y-142221000D01*
X173657720Y-142378569D01*
X173366569Y-142669720D01*
X173209000Y-143050126D01*
X173209000Y-143461874D01*
X173366569Y-143842280D01*
X173484000Y-143959711D01*
X173484001Y-147124288D01*
X173366569Y-147241720D01*
X173343000Y-147298621D01*
X173343000Y-146790506D01*
X173132147Y-146281460D01*
X172742540Y-145891853D01*
X172527070Y-145802603D01*
X172681923Y-145738460D01*
X172749912Y-145497517D01*
X171958000Y-144705605D01*
X171166088Y-145497517D01*
X171234077Y-145738460D01*
X171400658Y-145797745D01*
X171173460Y-145891853D01*
X170783853Y-146281460D01*
X170573000Y-146790506D01*
X170573000Y-147341494D01*
X170783853Y-147850540D01*
X171152844Y-148219531D01*
X170960235Y-148257843D01*
X170803000Y-148362905D01*
X170803000Y-148060506D01*
X170592147Y-147551460D01*
X170202540Y-147161853D01*
X169971130Y-147066000D01*
X170202540Y-146970147D01*
X170592147Y-146580540D01*
X170803000Y-146071494D01*
X170803000Y-145520506D01*
X170592147Y-145011460D01*
X170202540Y-144621853D01*
X169971130Y-144526000D01*
X170202540Y-144430147D01*
X170311516Y-144321171D01*
X170560799Y-144321171D01*
X170588770Y-144871448D01*
X170745540Y-145249923D01*
X170986483Y-145317912D01*
X171778395Y-144526000D01*
X172137605Y-144526000D01*
X172929517Y-145317912D01*
X173170460Y-145249923D01*
X173355201Y-144730829D01*
X173327230Y-144180552D01*
X173170460Y-143802077D01*
X172929517Y-143734088D01*
X172137605Y-144526000D01*
X171778395Y-144526000D01*
X170986483Y-143734088D01*
X170745540Y-143802077D01*
X170560799Y-144321171D01*
X170311516Y-144321171D01*
X170592147Y-144040540D01*
X170803000Y-143531494D01*
X170803000Y-142980506D01*
X170592147Y-142471460D01*
X170202540Y-142081853D01*
X169971130Y-141986000D01*
X170202540Y-141890147D01*
X170382181Y-141710506D01*
X170573000Y-141710506D01*
X170573000Y-142261494D01*
X170783853Y-142770540D01*
X171173460Y-143160147D01*
X171388930Y-143249397D01*
X171234077Y-143313540D01*
X171166088Y-143554483D01*
X171958000Y-144346395D01*
X172749912Y-143554483D01*
X172681923Y-143313540D01*
X172515342Y-143254255D01*
X172742540Y-143160147D01*
X173132147Y-142770540D01*
X173343000Y-142261494D01*
X173343000Y-141710506D01*
X173132147Y-141201460D01*
X172948813Y-141018126D01*
X175495000Y-141018126D01*
X175495000Y-141429874D01*
X175652569Y-141810280D01*
X175865000Y-142022711D01*
X175864999Y-142965290D01*
X175747568Y-143082721D01*
X175589999Y-143463127D01*
X175589999Y-143874875D01*
X175747568Y-144255281D01*
X176038719Y-144546432D01*
X176419125Y-144704001D01*
X176830873Y-144704001D01*
X177211279Y-144546432D01*
X177502430Y-144255281D01*
X177659999Y-143874875D01*
X177659999Y-143463127D01*
X177502430Y-143082721D01*
X177384999Y-142965290D01*
X177384999Y-141832712D01*
X177407431Y-141810280D01*
X177511596Y-141558803D01*
X177818676Y-141686000D01*
X178797324Y-141686000D01*
X179701478Y-141311487D01*
X180393487Y-140619478D01*
X180768000Y-139715324D01*
X180768000Y-138736676D01*
X180393487Y-137832522D01*
X179701478Y-137140513D01*
X178828709Y-136779000D01*
X179701478Y-136417487D01*
X180393487Y-135725478D01*
X180768000Y-134821324D01*
X180768000Y-133842676D01*
X180393487Y-132938522D01*
X179701478Y-132246513D01*
X178797324Y-131872000D01*
X177818676Y-131872000D01*
X176914522Y-132246513D01*
X176222513Y-132938522D01*
X175848000Y-133842676D01*
X175848000Y-134821324D01*
X176222513Y-135725478D01*
X176914522Y-136417487D01*
X177787291Y-136779000D01*
X176914522Y-137140513D01*
X176222513Y-137832522D01*
X175848000Y-138736676D01*
X175848000Y-139715324D01*
X176085197Y-140287968D01*
X175943720Y-140346569D01*
X175652569Y-140637720D01*
X175495000Y-141018126D01*
X172948813Y-141018126D01*
X172742540Y-140811853D01*
X172233494Y-140601000D01*
X171682506Y-140601000D01*
X171173460Y-140811853D01*
X170783853Y-141201460D01*
X170573000Y-141710506D01*
X170382181Y-141710506D01*
X170592147Y-141500540D01*
X170803000Y-140991494D01*
X170803000Y-140440506D01*
X170592147Y-139931460D01*
X170202540Y-139541853D01*
X169693494Y-139331000D01*
X169142506Y-139331000D01*
X168633460Y-139541853D01*
X168243853Y-139931460D01*
X168033000Y-140440506D01*
X167509000Y-140440506D01*
X167509000Y-129854007D01*
X167659000Y-129491874D01*
X167659000Y-129080126D01*
X167501431Y-128699720D01*
X167210280Y-128408569D01*
X166829874Y-128251000D01*
X166418126Y-128251000D01*
X166064000Y-128397683D01*
X166064000Y-119682126D01*
X166097000Y-119682126D01*
X166097000Y-120093874D01*
X166254569Y-120474280D01*
X166372001Y-120591712D01*
X166372000Y-125026289D01*
X166254569Y-125143720D01*
X166097000Y-125524126D01*
X166097000Y-125935874D01*
X166254569Y-126316280D01*
X166545720Y-126607431D01*
X166926126Y-126765000D01*
X167337874Y-126765000D01*
X167718280Y-126607431D01*
X168009431Y-126316280D01*
X168033000Y-126259379D01*
X168033000Y-126767494D01*
X168243853Y-127276540D01*
X168633460Y-127666147D01*
X168864870Y-127762000D01*
X168633460Y-127857853D01*
X168243853Y-128247460D01*
X168033000Y-128756506D01*
X168033000Y-129307494D01*
X168243853Y-129816540D01*
X168633460Y-130206147D01*
X168864870Y-130302000D01*
X168633460Y-130397853D01*
X168243853Y-130787460D01*
X168033000Y-131296506D01*
X168033000Y-131847494D01*
X168243853Y-132356540D01*
X168633460Y-132746147D01*
X169142506Y-132957000D01*
X169693494Y-132957000D01*
X170202540Y-132746147D01*
X170560560Y-132388127D01*
X170560560Y-133592000D01*
X170609843Y-133839765D01*
X170750191Y-134049809D01*
X170960235Y-134190157D01*
X171208000Y-134239440D01*
X172708000Y-134239440D01*
X172955765Y-134190157D01*
X173165809Y-134049809D01*
X173306157Y-133839765D01*
X173355440Y-133592000D01*
X173355440Y-132092000D01*
X173306157Y-131844235D01*
X173165809Y-131634191D01*
X172955765Y-131493843D01*
X172763156Y-131455531D01*
X173132147Y-131086540D01*
X173343000Y-130577494D01*
X173343000Y-130026506D01*
X173132147Y-129517460D01*
X172742540Y-129127853D01*
X172527070Y-129038603D01*
X172681923Y-128974460D01*
X172749912Y-128733517D01*
X172588521Y-128572126D01*
X173463000Y-128572126D01*
X173463000Y-128983874D01*
X173620569Y-129364280D01*
X173911720Y-129655431D01*
X174292126Y-129813000D01*
X174703874Y-129813000D01*
X175084280Y-129655431D01*
X175375431Y-129364280D01*
X175533000Y-128983874D01*
X175533000Y-128572126D01*
X175375431Y-128191720D01*
X175084280Y-127900569D01*
X174703874Y-127743000D01*
X174292126Y-127743000D01*
X173911720Y-127900569D01*
X173620569Y-128191720D01*
X173463000Y-128572126D01*
X172588521Y-128572126D01*
X171958000Y-127941605D01*
X171166088Y-128733517D01*
X171234077Y-128974460D01*
X171400658Y-129033745D01*
X171173460Y-129127853D01*
X170783853Y-129517460D01*
X170573000Y-130026506D01*
X170573000Y-130577494D01*
X170783853Y-131086540D01*
X171152844Y-131455531D01*
X170960235Y-131493843D01*
X170803000Y-131598905D01*
X170803000Y-131296506D01*
X170592147Y-130787460D01*
X170202540Y-130397853D01*
X169971130Y-130302000D01*
X170202540Y-130206147D01*
X170592147Y-129816540D01*
X170803000Y-129307494D01*
X170803000Y-128756506D01*
X170592147Y-128247460D01*
X170202540Y-127857853D01*
X169971130Y-127762000D01*
X170202540Y-127666147D01*
X170311516Y-127557171D01*
X170560799Y-127557171D01*
X170588770Y-128107448D01*
X170745540Y-128485923D01*
X170986483Y-128553912D01*
X171778395Y-127762000D01*
X172137605Y-127762000D01*
X172929517Y-128553912D01*
X173170460Y-128485923D01*
X173355201Y-127966829D01*
X173327230Y-127416552D01*
X173170460Y-127038077D01*
X172929517Y-126970088D01*
X172137605Y-127762000D01*
X171778395Y-127762000D01*
X170986483Y-126970088D01*
X170745540Y-127038077D01*
X170560799Y-127557171D01*
X170311516Y-127557171D01*
X170592147Y-127276540D01*
X170803000Y-126767494D01*
X170803000Y-126216506D01*
X170592147Y-125707460D01*
X170202540Y-125317853D01*
X169971130Y-125222000D01*
X170202540Y-125126147D01*
X170382181Y-124946506D01*
X170573000Y-124946506D01*
X170573000Y-125497494D01*
X170783853Y-126006540D01*
X171173460Y-126396147D01*
X171388930Y-126485397D01*
X171234077Y-126549540D01*
X171166088Y-126790483D01*
X171958000Y-127582395D01*
X172749912Y-126790483D01*
X172681923Y-126549540D01*
X172515342Y-126490255D01*
X172742540Y-126396147D01*
X173132147Y-126006540D01*
X173343000Y-125497494D01*
X173343000Y-124946506D01*
X173132147Y-124437460D01*
X172742540Y-124047853D01*
X172233494Y-123837000D01*
X171682506Y-123837000D01*
X171173460Y-124047853D01*
X170783853Y-124437460D01*
X170573000Y-124946506D01*
X170382181Y-124946506D01*
X170592147Y-124736540D01*
X170803000Y-124227494D01*
X170803000Y-123676506D01*
X170592147Y-123167460D01*
X170202540Y-122777853D01*
X169693494Y-122567000D01*
X169142506Y-122567000D01*
X168633460Y-122777853D01*
X168243853Y-123167460D01*
X168033000Y-123676506D01*
X168033000Y-124227494D01*
X168243853Y-124736540D01*
X168633460Y-125126147D01*
X168864870Y-125222000D01*
X168633460Y-125317853D01*
X168243853Y-125707460D01*
X168167000Y-125893000D01*
X168167000Y-125524126D01*
X168009431Y-125143720D01*
X167892000Y-125026289D01*
X167892000Y-121972676D01*
X175848000Y-121972676D01*
X175848000Y-122951324D01*
X176222513Y-123855478D01*
X176914522Y-124547487D01*
X177818676Y-124922000D01*
X178797324Y-124922000D01*
X179701478Y-124547487D01*
X180393487Y-123855478D01*
X180768000Y-122951324D01*
X180768000Y-121972676D01*
X180393487Y-121068522D01*
X179701478Y-120376513D01*
X178797324Y-120002000D01*
X177818676Y-120002000D01*
X176914522Y-120376513D01*
X176222513Y-121068522D01*
X175848000Y-121972676D01*
X167892000Y-121972676D01*
X167892000Y-120591711D01*
X168009431Y-120474280D01*
X168167000Y-120093874D01*
X168167000Y-119682126D01*
X168009431Y-119301720D01*
X167718280Y-119010569D01*
X167337874Y-118853000D01*
X166926126Y-118853000D01*
X166545720Y-119010569D01*
X166254569Y-119301720D01*
X166097000Y-119682126D01*
X166064000Y-119682126D01*
X166064000Y-110772000D01*
X167878560Y-110772000D01*
X167878560Y-114272000D01*
X167927843Y-114519765D01*
X168068191Y-114729809D01*
X168278235Y-114870157D01*
X168526000Y-114919440D01*
X171209995Y-114919440D01*
X171068191Y-115014191D01*
X170927843Y-115224235D01*
X170878560Y-115472000D01*
X170878560Y-118972000D01*
X170927843Y-119219765D01*
X171068191Y-119429809D01*
X171278235Y-119570157D01*
X171526000Y-119619440D01*
X175026000Y-119619440D01*
X175273765Y-119570157D01*
X175483809Y-119429809D01*
X175624157Y-119219765D01*
X175673440Y-118972000D01*
X175673440Y-115472000D01*
X175624157Y-115224235D01*
X175483809Y-115014191D01*
X175323388Y-114907000D01*
X175990250Y-114907000D01*
X176149000Y-114748250D01*
X176149000Y-112649000D01*
X176403000Y-112649000D01*
X176403000Y-114748250D01*
X176561750Y-114907000D01*
X178152309Y-114907000D01*
X178385698Y-114810327D01*
X178564327Y-114631699D01*
X178596511Y-114554000D01*
X182127908Y-114554000D01*
X182243161Y-115133418D01*
X182571375Y-115624625D01*
X182757000Y-115748656D01*
X182757001Y-128209991D01*
X182607000Y-128572126D01*
X182607000Y-128983874D01*
X182764569Y-129364280D01*
X183055720Y-129655431D01*
X183436126Y-129813000D01*
X183847874Y-129813000D01*
X184228280Y-129655431D01*
X184519431Y-129364280D01*
X184677000Y-128983874D01*
X184677000Y-128572126D01*
X184527000Y-128209993D01*
X184527000Y-115748656D01*
X184712625Y-115624625D01*
X184912000Y-115326239D01*
X185111375Y-115624625D01*
X185602582Y-115952839D01*
X186035744Y-116039000D01*
X186328256Y-116039000D01*
X186761418Y-115952839D01*
X187252625Y-115624625D01*
X187452000Y-115326239D01*
X187651375Y-115624625D01*
X187962000Y-115832178D01*
X187962001Y-118439144D01*
X187962000Y-118439149D01*
X187962001Y-155760288D01*
X187844569Y-155877720D01*
X187687000Y-156258126D01*
X187687000Y-156669874D01*
X187844569Y-157050280D01*
X188135720Y-157341431D01*
X188516126Y-157499000D01*
X188927874Y-157499000D01*
X189308280Y-157341431D01*
X189599431Y-157050280D01*
X189757000Y-156669874D01*
X189757000Y-156258126D01*
X189599431Y-155877720D01*
X189482000Y-155760289D01*
X189482000Y-151114676D01*
X214964000Y-151114676D01*
X214964000Y-152093324D01*
X215338513Y-152997478D01*
X216030522Y-153689487D01*
X216934676Y-154064000D01*
X217913324Y-154064000D01*
X218817478Y-153689487D01*
X219509487Y-152997478D01*
X219884000Y-152093324D01*
X219884000Y-151114676D01*
X219509487Y-150210522D01*
X218817478Y-149518513D01*
X217913324Y-149144000D01*
X216934676Y-149144000D01*
X216030522Y-149518513D01*
X215338513Y-150210522D01*
X214964000Y-151114676D01*
X189482000Y-151114676D01*
X189482000Y-124960916D01*
X189622569Y-125300280D01*
X189740001Y-125417712D01*
X189740000Y-132709468D01*
X189725112Y-132784315D01*
X189740000Y-132859162D01*
X189740000Y-132859166D01*
X189784096Y-133080851D01*
X189825038Y-133142126D01*
X189719000Y-133398126D01*
X189719000Y-133809874D01*
X189876569Y-134190280D01*
X190167720Y-134481431D01*
X190548126Y-134639000D01*
X190756001Y-134639000D01*
X190756000Y-141536289D01*
X190638569Y-141653720D01*
X190481000Y-142034126D01*
X190481000Y-142445874D01*
X190638569Y-142826280D01*
X190929720Y-143117431D01*
X191310126Y-143275000D01*
X191721874Y-143275000D01*
X192102280Y-143117431D01*
X192393431Y-142826280D01*
X192551000Y-142445874D01*
X192551000Y-142034126D01*
X192393431Y-141653720D01*
X192276000Y-141536289D01*
X192276000Y-134310947D01*
X192317929Y-134282931D01*
X192485904Y-134031539D01*
X192530000Y-133809854D01*
X192530000Y-133809850D01*
X192544888Y-133735003D01*
X192530000Y-133660156D01*
X192530000Y-118305711D01*
X192647431Y-118188280D01*
X192805000Y-117807874D01*
X192805000Y-117396126D01*
X192647431Y-117015720D01*
X192356280Y-116724569D01*
X191975874Y-116567000D01*
X191564126Y-116567000D01*
X191183720Y-116724569D01*
X190892569Y-117015720D01*
X190735000Y-117396126D01*
X190735000Y-117807874D01*
X190892569Y-118188280D01*
X191010001Y-118305712D01*
X191010001Y-123804973D01*
X190705874Y-123679000D01*
X190294126Y-123679000D01*
X189913720Y-123836569D01*
X189622569Y-124127720D01*
X189482000Y-124467084D01*
X189482000Y-115832178D01*
X189792625Y-115624625D01*
X189804816Y-115606381D01*
X189813843Y-115651765D01*
X189954191Y-115861809D01*
X190164235Y-116002157D01*
X190412000Y-116051440D01*
X192112000Y-116051440D01*
X192359765Y-116002157D01*
X192569809Y-115861809D01*
X192710157Y-115651765D01*
X192759440Y-115404000D01*
X192759440Y-113704000D01*
X192710157Y-113456235D01*
X192569809Y-113246191D01*
X192359765Y-113105843D01*
X192112000Y-113056560D01*
X190412000Y-113056560D01*
X190164235Y-113105843D01*
X189954191Y-113246191D01*
X189813843Y-113456235D01*
X189804816Y-113501619D01*
X189792625Y-113483375D01*
X189301418Y-113155161D01*
X188868256Y-113069000D01*
X188575744Y-113069000D01*
X188142582Y-113155161D01*
X187651375Y-113483375D01*
X187452000Y-113781761D01*
X187252625Y-113483375D01*
X186761418Y-113155161D01*
X186328256Y-113069000D01*
X186035744Y-113069000D01*
X185602582Y-113155161D01*
X185111375Y-113483375D01*
X184912000Y-113781761D01*
X184712625Y-113483375D01*
X184221418Y-113155161D01*
X183788256Y-113069000D01*
X183495744Y-113069000D01*
X183062582Y-113155161D01*
X182571375Y-113483375D01*
X182243161Y-113974582D01*
X182127908Y-114554000D01*
X178596511Y-114554000D01*
X178661000Y-114398310D01*
X178661000Y-112807750D01*
X178502250Y-112649000D01*
X176403000Y-112649000D01*
X176149000Y-112649000D01*
X174049750Y-112649000D01*
X173891000Y-112807750D01*
X173891000Y-114398310D01*
X173987673Y-114631699D01*
X174166302Y-114810327D01*
X174200663Y-114824560D01*
X172342005Y-114824560D01*
X172483809Y-114729809D01*
X172624157Y-114519765D01*
X172673440Y-114272000D01*
X172673440Y-110772000D01*
X172648316Y-110645690D01*
X173891000Y-110645690D01*
X173891000Y-112236250D01*
X174049750Y-112395000D01*
X176149000Y-112395000D01*
X176149000Y-110295750D01*
X175990250Y-110137000D01*
X174399691Y-110137000D01*
X174166302Y-110233673D01*
X173987673Y-110412301D01*
X173891000Y-110645690D01*
X172648316Y-110645690D01*
X172624157Y-110524235D01*
X172483809Y-110314191D01*
X172273765Y-110173843D01*
X172026000Y-110124560D01*
X168526000Y-110124560D01*
X168278235Y-110173843D01*
X168068191Y-110314191D01*
X167927843Y-110524235D01*
X167878560Y-110772000D01*
X166064000Y-110772000D01*
X166064000Y-107136000D01*
X178742094Y-107136000D01*
X178386859Y-107491235D01*
G04 #@! TD*
M02*
